<svg xmlns="http://www.w3.org/2000/svg" width="81.901" height="91" viewBox="0 0 81.901 91"><defs><style>.a{fill:#c6e16e;opacity:0.442;}.b{fill:#002b5e;}</style></defs><g transform="translate(-716.099 -1045)"><circle class="a" cx="32.5" cy="32.5" r="32.5" transform="translate(733 1071)"/><g transform="translate(714 1041)"><g transform="translate(1.889 3.794)"><path class="b" d="M21.9,18.389a15.18,15.18,0,0,0-5.912-3.034c-4.123-1.167-5.329-3.345-6.029-5.562a.374.374,0,0,0-.35-.272.428.428,0,0,0-.389.233,20.37,20.37,0,0,0-1.517,7A19.961,19.961,0,0,0,9.5,26.479c3.034,6.263,8.285,8.052,12.1,6.652a14.155,14.155,0,0,1-.389,9.763.4.4,0,0,0,.233.506.429.429,0,0,0,.311,0,.351.351,0,0,0,.233-.233c.545-1.478,2.139-6.379.389-10.347,1.867-1.089,3.384-4.4,2.723-8.791A9.459,9.459,0,0,0,21.9,18.389ZM10.2,26.129a18.755,18.755,0,0,1-1.712-9.335,20,20,0,0,1,.7-4.434,9.256,9.256,0,0,0,.117,1.4,14.1,14.1,0,0,0,.583,2.762,2.172,2.172,0,0,1-.622-.583.28.28,0,1,0-.467.311,2.46,2.46,0,0,0,1.323.934,11.337,11.337,0,0,0,2.023,3.462,7.454,7.454,0,0,1-1.556-.389c-.156-.039-.311,0-.35.156s0,.311.156.35a5.3,5.3,0,0,0,2.256.428c.895.934,1.789,1.828,2.645,2.723L16.5,25.118a5.7,5.7,0,0,1-3.306-.545.261.261,0,1,0-.233.467,6.216,6.216,0,0,0,4.006.506,34.511,34.511,0,0,1,2.878,3.229,9.833,9.833,0,0,1-3.968-.583c-.156-.039-.311,0-.35.156s0,.311.156.35a9.977,9.977,0,0,0,4.551.583,8.308,8.308,0,0,1,1.4,3C18.053,33.714,13.074,32.081,10.2,26.129Zm14.042-1.984c.467,3.034-.272,6.69-2.217,7.9a7.364,7.364,0,0,0-.817-2.023,15.959,15.959,0,0,0,.583-1.789,8.4,8.4,0,0,0,.272-3.7.259.259,0,0,0-.506.117,9.827,9.827,0,0,1-.661,4.746,25.647,25.647,0,0,0-2.606-3.229,6.284,6.284,0,0,0,.117-4.006.283.283,0,0,0-.545.156,5.435,5.435,0,0,1-.039,3.423c-.7-.739-1.439-1.478-2.217-2.256L14.4,22.279a4.332,4.332,0,0,0,.117-3c.039-.078-.117-.156-.272-.117a.278.278,0,0,0-.194.35,3.967,3.967,0,0,1-.039,2.412c-.389-.389-.778-.778-1.128-1.167a10.551,10.551,0,0,1-1.673-2.373,25.074,25.074,0,0,0,.117-2.8.272.272,0,0,0-.545,0c0,.545,0,1.245-.039,1.789a13.663,13.663,0,0,1-.934-3.656c-.078-.856-.078-1.634-.078-2.256.856,1.867,2.451,3.7,6.029,4.668a14.179,14.179,0,0,1,5.562,2.84A8.18,8.18,0,0,1,24.238,24.146Z" transform="translate(21.561 26.917)"/><g transform="translate(0.21 0.206)"><path class="b" d="M78.084,26.751C74.038,24.534,67.62,17.727,60.7,16.91H59.84c-5.018.078-10.891,4.084-14.12,3.968a3.494,3.494,0,0,1-1.206-.233,2.306,2.306,0,0,1-1.206-1.284c-.039-.078-.078-.117-.117-.194a9.963,9.963,0,0,1-.117-1.517,14.367,14.367,0,0,1,.545-3.656c.895-3.306,2.956-7.235,6.185-12.175a1,1,0,0,0,0-1.128,1.025,1.025,0,0,0-1.05-.467,10.862,10.862,0,0,0-3.112,1.05C41.87,3.1,39.614,6.563,36.5,8.586a3.669,3.669,0,0,0-.389-.895,11.547,11.547,0,0,0-7.818-6.535,1,1,0,0,0-.583.039c-2.878.972-4.59,2.917-4.59,5.212a4.96,4.96,0,0,0,.039.739,15.617,15.617,0,0,0-7.235-1.867,15.988,15.988,0,0,0-3,.311,1.118,1.118,0,0,0-.778.661,1.167,1.167,0,0,0,.117.895c.039.039.039.117.078.156,1.556,1.906,4.162,5.718,6.574,9.1,1.206,1.673,2.373,3.267,3.306,4.473.311.35.545.7.778.972-.467.117-.972.272-1.478.389a1.033,1.033,0,0,0-.739,1.284,1.058,1.058,0,0,0,1.128.739C13.124,35.931.288,53.591.21,67.438a17.426,17.426,0,0,0,1.284,6.729c2.956,7,11.358,11.786,27.5,12.253.934.039,1.867.039,2.762.039a75.117,75.117,0,0,0,11.669-.895,65.667,65.667,0,0,0,11.747-2.956C68.32,77.824,76.839,69.072,76.917,58.881c0-8.246-5.718-16.921-18.476-24.545-5.485-3.306-9.374-6.068-11.864-8.791a17.312,17.312,0,0,1-2.062-2.723,5.37,5.37,0,0,0,.778.117c.156,0,.272.039.428.039,4.434-.117,10.113-4.084,14.12-3.968a3.346,3.346,0,0,1,.622.039c5.757.545,12.136,6.963,16.57,9.569a1.267,1.267,0,0,0,.506.156,1.1,1.1,0,0,0,.545-2.023ZM20.4,14.848c-1.75-2.528-3.618-5.173-5.135-7.2a1.031,1.031,0,0,0-.194-.233c.272,0,.545-.039.817-.039a14.415,14.415,0,0,1,8.169,2.762,9.959,9.959,0,0,1,1.011.778,1.025,1.025,0,0,0,1.4-.078,1.069,1.069,0,0,0,.078-1.4,5.175,5.175,0,0,1-1.323-3.034,2.217,2.217,0,0,1,.156-.856c.311-.856,1.089-1.634,2.762-2.334a1.165,1.165,0,0,0,.311.156c.35.117.7.233,1.011.35A10.459,10.459,0,0,1,34.6,9.364c.156.35.311.739.428,1.089a1.076,1.076,0,0,0,1.478.583c3.54-1.945,5.718-4.862,8.285-6.807A10.334,10.334,0,0,1,46.537,3.1c-.895,1.478-1.712,2.84-2.373,4.162C42.1,11.192,41.014,14.5,41.014,17.649c0,.428.039.856.078,1.284-5.212.739-10.5,1.284-15.676,2.373A57.63,57.63,0,0,1,20.4,14.848ZM54.2,34.219c.972.622,2.023,1.284,3.151,1.945,8.4,5.018,13.381,10.347,15.754,15.481a17.481,17.481,0,0,1,1.673,7.274c0,6.729-4.4,13.07-12.058,17.815-7.663,4.707-18.515,7.7-31,7.7h-.311c-.778,0-1.556,0-2.373-.039-12.8-.506-19.994-3.384-23.611-7.624a14,14,0,0,1-3.151-9.258C2.194,54.252,16,35.425,24.793,23.95a1.382,1.382,0,0,0,.156-.35c5.29-1.167,10.891-1.75,16.493-2.567C42.8,25.7,47.082,29.668,54.2,34.219Z" transform="translate(-0.21 -0.206)"/></g></g></g></g></svg>