<svg xmlns="http://www.w3.org/2000/svg" width="52.058" height="60.702" viewBox="0 0 52.058 60.702"><defs><style>.a{fill:#d0e2fc;}.b{fill:none;stroke:#002b5e;stroke-linecap:round;stroke-linejoin:round;stroke-width:0.6px;}</style></defs><g transform="matrix(1, -0.017, 0.017, 1, -398.297, -2952.212)"><circle class="a" cx="22" cy="22" r="22" transform="translate(354.479 2975.554) rotate(1)"/><path class="b" d="M272.85,750.078a.4.4,0,0,0,.377.021c1.451-.591,3.4-2.138,5.332-2.244a1.758,1.758,0,0,1,.188-.008c1.808-.06,3.008,1.8,4.866,1.916h.009c2.5-.065,4.069-1.965,6.216-1.912h.023c1.308-.01,2.615.966,4.094,1.008a2.45,2.45,0,0,0,1.58-.594c1.934,1.7,3.893,3.38,5.844,5.067a.044.044,0,0,1-.021-.007,3.293,3.293,0,0,0-.594-.044c-1.813.013-4.317.961-6.193.951a4.114,4.114,0,0,1-1.031-.119,7.206,7.206,0,0,1-2.793-1.578,4.428,4.428,0,0,0-2.926-1.219,7.229,7.229,0,0,0-2.409.5c-2.872,1.052-4.271,2.409-6.444,2.386a7.55,7.55,0,0,1-2.247-.381c-1.693-.517-3.3-1.271-4.965-1.282a4.407,4.407,0,0,0-1.408.229C271.2,751.9,272.042,751,272.85,750.078Zm30.862,31.259q0,1.033-.042,2.078c-9.5.526-19.173,1.259-28.721,1.259-2.459,0-4.911-.046-7.351-.156q.007-.509.007-1.017c0-4.706-.491-9.559-.491-14.31a41.287,41.287,0,0,1,.8-8.689.512.512,0,0,0,0-.214c.987.09,2,.146,3.041.146,5.678,0,12.027-1.154,16.6-1.374.623-.03,1.255-.047,1.892-.047,4.117,0,8.521.54,12.753.648v0C302.213,767.128,303.714,774.088,303.712,781.337Zm-.219-22.64c-4.523,0-9.422-.682-14.057-.685-.653,0-1.3.014-1.941.046-4.675.23-11,1.372-16.548,1.372a23.5,23.5,0,0,1-6.336-.729c.915-1.055,1.9-2.077,2.91-3.092a.474.474,0,0,0,.132.142.505.505,0,0,0,.7-.114h0c1.189-1.65,2.232-2.074,3.4-2.09,1.339-.012,2.9.682,4.667,1.236a8.59,8.59,0,0,0,2.545.424c2.64-.02,4.128-1.51,6.785-2.445a6.189,6.189,0,0,1,2.068-.441,3.448,3.448,0,0,1,2.3,1,8.119,8.119,0,0,0,3.157,1.763,5.056,5.056,0,0,0,1.29.155c2.145-.016,4.7-.971,6.193-.954a2.671,2.671,0,0,1,.424.03.5.5,0,0,0,.576-.41.463.463,0,0,0-.034-.264c1.835,1.594,3.658,3.2,5.431,4.874A33.282,33.282,0,0,1,303.492,758.7Zm-26.579-14.4a3.926,3.926,0,0,1,2.644-1.33c.849-.011,1.895.447,3.634.61.122.006.241.012.369.012,1.238-.006,3-.41,4.167-.405.649-.013.94.169.94.212a.5.5,0,0,0,.9-.454c-.4-.689-1.129-.743-1.837-.759-1.339,0-3.121.41-4.167.405a2.816,2.816,0,0,1-.284-.013c-1.583-.135-2.548-.595-3.72-.61a3.492,3.492,0,0,0-1.478.326,27.956,27.956,0,0,1,4.77-6.6.5.5,0,0,0,.855.406,85.384,85.384,0,0,0,11.072,11.5,1.375,1.375,0,0,1-.822.259c-.97.04-2.362-.955-4.049-1,0,0-.036,0-.067,0-2.7.054-4.331,1.971-6.216,1.909h-.006c-1.014.115-2.472-1.852-4.868-1.913-.085,0-.17,0-.255.008a10.646,10.646,0,0,0-4.356,1.659c.276-.353.553-.706.814-1.073C275.61,746.5,276.259,745.421,276.913,744.3Zm-4.314,4.534c-1.113,1.326-2.321,2.594-3.564,3.84-.056-3.591-.364-7.12-.361-10.626,0-.684.011-1.362.039-2.047h.11a8.915,8.915,0,0,0,4.164-1c-.119,2.989-.4,5.962-.4,8.978C272.583,748.26,272.592,748.546,272.6,748.831Z" transform="translate(82.389 2224.075)"/></g></svg>