<svg xmlns="http://www.w3.org/2000/svg" xmlns:xlink="http://www.w3.org/1999/xlink" width="59.695" height="55.001" viewBox="0 0 59.695 55.001"><defs><style>.a{fill:#fff;}.a,.f,.g{stroke:#d0e2fc;}.b{fill:#d0e2fc;}.c,.g{fill:#002b5e;}.d,.f{fill:none;}.d{stroke:#002b5e;stroke-width:0.7px;}.e{clip-path:url(#a);}.f,.g{stroke-width:0.362px;}</style><clipPath id="a"><rect class="a" width="35" height="43" transform="translate(187.347 2980.606)"/></clipPath></defs><g transform="translate(-1139 -3125)"><circle class="b" cx="22" cy="22" r="22" transform="translate(1152 3136.001)"/><g transform="translate(737.662 149.442)"><path class="c" d="M9.224,18.372a.3.3,0,0,1-.19-.072L9,18.265a.185.185,0,0,1-.076-.143,2.455,2.455,0,0,1-.19-.751c-.038-.251-.038-.536-.076-.823-.114-1.466-.038-3.468-.3-5.184A5.52,5.52,0,0,0,7.476,8.79,1.95,1.95,0,0,0,5.5,8.039c-.077,0-.114.036-.191.036-1.482.25-2.7,1.644-3.5,3.29-.164.338-.314.685-.449,1.032A2.042,2.042,0,0,0,.944,11.5c.084-.19.17-.38.26-.567A8.739,8.739,0,0,1,3.143,8.289a5.939,5.939,0,0,1,1.178-.751,1.98,1.98,0,0,1-.76-.571,3.612,3.612,0,0,1-.723-1.823,7.55,7.55,0,0,1,.19-3.075L2.953,2a.2.2,0,0,1-.114-.179.349.349,0,0,1,.114-.357.991.991,0,0,0,.228-.179c.249-.187.482-.359.709-.516.284-.172.6-.349.951-.53l.014.009A4.224,4.224,0,0,1,5.765.031,3.217,3.217,0,0,1,9.376,2.677a.126.126,0,0,1,.038.107A3.935,3.935,0,0,1,7.856,6.431c-.076.035-.114.107-.19.143a8.651,8.651,0,0,1-1.14.787,2.511,2.511,0,0,1,.912.357,2.844,2.844,0,0,1,.685.643,6.214,6.214,0,0,1,1.026,2.9c.3,2.145.19,4.648.38,6.006.038.215.114.429.152.572a.382.382,0,0,1-.266.5c-.038.036-.038.036-.076.036ZM5.8.817a4.212,4.212,0,0,0-2.014.93.43.43,0,0,1-.038.214,6.923,6.923,0,0,0-.342,3.253,3.389,3.389,0,0,0,.57,1.466,1.042,1.042,0,0,0,1.065.393A4.788,4.788,0,0,0,7.21,5.894,3.187,3.187,0,0,0,8.5,2.927,2.364,2.364,0,0,0,6.144.8,2.771,2.771,0,0,0,5.8.817Z" transform="translate(451.33 3001.507)"/><path class="c" d="M9.224,18.372a.3.3,0,0,1-.19-.072L9,18.264a.183.183,0,0,1-.076-.143,2.459,2.459,0,0,1-.19-.751c-.038-.25-.038-.536-.076-.822-.114-1.466-.038-3.468-.3-5.184A5.516,5.516,0,0,0,7.476,8.79,1.95,1.95,0,0,0,5.5,8.039c-.075,0-.113.036-.19.036-1.482.25-2.7,1.644-3.5,3.289A15.789,15.789,0,0,0,.444,15.833c-.032.031-.037.087-.061.125-.25.035-.468-.331-.349-1.919,0-.037.006-.074.009-.112l.021.082v.036a3.552,3.552,0,0,1,.152-.608c.038-.107.076-.214.114-.358A19.348,19.348,0,0,1,1.2,10.935,8.729,8.729,0,0,1,3.143,8.289a5.889,5.889,0,0,1,1.178-.751,1.984,1.984,0,0,1-.76-.572,3.612,3.612,0,0,1-.722-1.824,7.536,7.536,0,0,1,.19-3.075L2.953,2a.2.2,0,0,1-.114-.179.349.349,0,0,1,.114-.358,1.01,1.01,0,0,0,.228-.179c.248-.187.481-.358.707-.515.284-.172.6-.35.952-.531l.014.009A4.242,4.242,0,0,1,5.766.031,3.217,3.217,0,0,1,9.376,2.676a.125.125,0,0,1,.038.107A3.939,3.939,0,0,1,7.856,6.431c-.076.035-.114.107-.19.143a8.475,8.475,0,0,1-1.14.786,2.536,2.536,0,0,1,.912.358,2.853,2.853,0,0,1,.684.644,6.206,6.206,0,0,1,1.026,2.9c.3,2.145.191,4.647.38,6.006.038.215.114.429.152.572a.383.383,0,0,1-.266.5c-.038.036-.038.036-.076.036ZM5.8.817a4.218,4.218,0,0,0-2.015.93.428.428,0,0,1-.038.214,6.926,6.926,0,0,0-.342,3.254,3.368,3.368,0,0,0,.571,1.466,1.039,1.039,0,0,0,1.064.393A4.775,4.775,0,0,0,7.21,5.894,3.188,3.188,0,0,0,8.5,2.927,2.364,2.364,0,0,0,6.144.8,2.771,2.771,0,0,0,5.8.817Z" transform="translate(444.33 3011.507)"/><path class="c" d="M9.224,18.372a.3.3,0,0,1-.19-.072L9,18.264a.183.183,0,0,1-.076-.143,2.459,2.459,0,0,1-.19-.751c-.038-.25-.038-.536-.076-.822-.114-1.466-.038-3.468-.3-5.184A5.516,5.516,0,0,0,7.476,8.79,1.95,1.95,0,0,0,5.5,8.039c-.075,0-.113.036-.19.036-1.482.25-2.7,1.644-3.5,3.289A15.789,15.789,0,0,0,.444,15.833c-.032.031-.037.087-.061.125-.25.035-.468-.331-.349-1.919,0-.037.006-.074.009-.112l.021.082v.036a3.552,3.552,0,0,1,.152-.608c.038-.107.076-.214.114-.358A19.348,19.348,0,0,1,1.2,10.935,8.729,8.729,0,0,1,3.143,8.289a5.889,5.889,0,0,1,1.178-.751,1.984,1.984,0,0,1-.76-.572,3.612,3.612,0,0,1-.722-1.824,7.536,7.536,0,0,1,.19-3.075L2.953,2a.2.2,0,0,1-.114-.179.349.349,0,0,1,.114-.358,1.01,1.01,0,0,0,.228-.179c.248-.187.481-.358.707-.515.284-.172.6-.35.952-.531l.014.009A4.242,4.242,0,0,1,5.766.031,3.217,3.217,0,0,1,9.376,2.676a.125.125,0,0,1,.038.107A3.939,3.939,0,0,1,7.856,6.431c-.076.035-.114.107-.19.143a8.475,8.475,0,0,1-1.14.786,2.536,2.536,0,0,1,.912.358,2.853,2.853,0,0,1,.684.644,6.206,6.206,0,0,1,1.026,2.9c.3,2.145.191,4.647.38,6.006.038.215.114.429.152.572a.383.383,0,0,1-.266.5c-.038.036-.038.036-.076.036ZM5.8.817a4.218,4.218,0,0,0-2.015.93.428.428,0,0,1-.038.214,6.926,6.926,0,0,0-.342,3.254,3.368,3.368,0,0,0,.571,1.466,1.039,1.039,0,0,0,1.064.393A4.775,4.775,0,0,0,7.21,5.894,3.188,3.188,0,0,0,8.5,2.927,2.364,2.364,0,0,0,6.144.8,2.771,2.771,0,0,0,5.8.817Z" transform="translate(443.902 2981.7)"/><path class="d" d="M931.9,3365.754s-3.144.529-5.893.931c-3.093.454-6.084.744-8.247,0" transform="translate(-485.283 -354.478)"/><path class="d" d="M14.14,0S11,.529,8.247.931c-3.093.454-6.085.744-8.247,0" transform="matrix(0.809, -0.588, 0.588, 0.809, 430.802, 3008.747)"/><g class="e" transform="translate(213.991 -5.048)"><g transform="translate(191.26 2982.99)"><g transform="translate(0 0)"><path class="f" d="M17.5,6.595c-3.7.8-6.654,4.784-5.836,8.594.789,3.672,4.173,5.8,7.714,6.041a.5.5,0,0,1,.379-.2c4.193-.264,8.254-3.144,8.073-7.731C27.638,8.524,21.81,5.669,17.5,6.595Z" transform="translate(-5.878 -1.119)"/><path class="f" d="M19.449,2.7c-8.493.234-13.256,8.453-11.492,16.218C9.67,26.457,15.19,32.643,20.07,38.356a.485.485,0,0,1,.1.186.5.5,0,0,1,.087-.259c4.112-6.187,9.7-12.756,11.232-20.191C33.056,10.484,27.639,2.475,19.449,2.7Zm.894,19.915a.441.441,0,0,1-.305-.091,8.37,8.37,0,0,1-8.931-7.241,8.665,8.665,0,0,1,7.448-9.248c4.844-.54,10.676,2.534,10.875,7.821C29.624,19,25.083,22.313,20.343,22.615Z" transform="translate(-6.468 -1.678)"/><path class="g" d="M27.732,4.5a12.99,12.99,0,0,0-15.341-.35C7.641,7.421,5.857,12.991,6.9,18.552c1.489,7.918,7.283,14.9,12.665,20.586a.445.445,0,0,0,.763-.327.566.566,0,0,0,1,.147C27.429,29.783,40.282,14.081,27.732,4.5ZM20.4,38.417a.5.5,0,0,0-.087.259.485.485,0,0,0-.1-.186C15.337,32.776,9.817,26.59,8.1,19.051c-1.765-7.765,3-15.984,11.492-16.218,8.191-.226,13.608,7.784,12.041,15.392C30.1,25.66,24.515,32.23,20.4,38.417Z" transform="translate(-6.614 -1.81)"/><path class="g" d="M18.1,5.607a8.665,8.665,0,0,0-7.448,9.248A8.37,8.37,0,0,0,19.585,22.1a.442.442,0,0,0,.305.091c4.74-.3,9.281-3.612,9.087-8.759C28.778,8.142,22.946,5.067,18.1,5.607ZM19.89,21.16a.5.5,0,0,0-.379.2c-3.541-.244-6.925-2.369-7.714-6.041-.819-3.809,2.131-7.8,5.836-8.594,4.314-.926,10.142,1.929,10.33,6.7C28.144,18.015,24.084,20.9,19.89,21.16Z" transform="translate(-6.015 -1.25)"/></g></g></g><path class="d" d="M931.9,3365.754s-3.144.529-5.893.931c-3.093.454-6.084.744-8.247,0" transform="translate(1377.662 -343.961) rotate(31)"/></g></g></svg>