<svg xmlns="http://www.w3.org/2000/svg" xmlns:xlink="http://www.w3.org/1999/xlink" width="61" height="51.284" viewBox="0 0 61 51.284"><defs><style>.a{fill:#fff;}.b,.f{fill:#d0e2fc;}.c{clip-path:url(#a);}.d{fill:#002b5e;}.e,.f{stroke:none;}</style><clipPath id="a"><path class="a" d="M0,0H55.085V44.284H0Z" transform="translate(179 395.681)"/></clipPath></defs><g transform="translate(-182 -393.716)"><g transform="translate(-21 -2735)"><circle class="b" cx="22" cy="22" r="22" transform="translate(220 3136)"/></g><g class="c" transform="translate(3 -1.965)"><g transform="translate(181.218 399.233)"><g class="d" transform="translate(-1.968 -8.034)"><path class="e" d="M 32.26776504516602 44.65343475341797 C 30.88299560546875 44.65343475341797 29.88383483886719 43.82162475585938 29.51853561401367 43.46398544311523 L 29.44297409057617 43.3900146484375 L 29.33737564086914 43.39593505859375 C 29.26959419250488 43.39973449707031 29.20556449890137 43.40331268310547 29.14633560180664 43.40331268310547 C 28.80300521850586 43.40331268310547 28.5245246887207 43.34597396850586 28.31862449645996 43.23288345336914 C 28.01835441589355 43.06829452514648 27.77138519287109 42.86950302124023 27.58439445495605 42.64193344116211 L 27.39915466308594 42.41649627685547 L 27.21391487121582 42.64193344116211 C 27.02662467956543 42.869873046875 26.77984428405762 43.06866455078125 26.48042488098145 43.23279571533203 C 26.27457427978516 43.34539413452148 25.99547386169434 43.40280532836914 25.65106391906738 43.40331268310547 C 25.62382507324219 43.40331268310547 25.58855438232422 43.40006256103516 25.55121421813965 43.39661407470703 C 25.5233154296875 43.39403533935547 25.49545478820801 43.39151382446289 25.46847534179688 43.389892578125 L 25.36198425292969 43.38352584838867 L 25.28596496582031 43.4583625793457 C 24.92095565795898 43.81768417358398 23.92178535461426 44.65343475341797 22.53054428100586 44.65343475341797 C 22.08005523681641 44.65343475341797 21.6269645690918 44.56222534179688 21.18386459350586 44.38234329223633 C 18.28794479370117 43.20680618286133 15.86078453063965 41.72683334350586 14.66222476959229 40.81667327880859 C 12.21291446685791 38.95881271362305 10.54916477203369 36.21483612060547 9.749614715576172 34.89614486694336 C 9.664804458618164 34.75513458251953 9.577234268188477 34.61039352416992 9.502004623413086 34.49174499511719 L 9.488224983215332 34.47000503540039 L 9.470134735107422 34.45168304443359 C 8.744444847106934 33.71659469604492 8.185264587402344 33.00193405151367 7.80813455581665 32.32757568359375 C 7.136964797973633 31.12690353393555 6.102024555206299 29.12222480773926 4.17558479309082 25.35394477844238 C 2.795944690704346 22.65351486206055 2.189224720001221 20.34377479553223 2.20838475227356 17.86485481262207 C 2.227474689483643 15.3956241607666 2.878214836120605 12.76828479766846 3.662494659423828 9.836994171142578 L 3.672144651412964 9.800934791564941 L 3.670374631881714 9.763654708862305 C 3.636054754257202 9.040984153747559 3.801614761352539 8.52778434753418 3.980924844741821 8.339754104614258 C 4.009714603424072 8.309574127197266 4.052724838256836 8.273594856262207 4.094194889068604 8.273594856262207 C 4.102144718170166 8.273594856262207 4.110734939575195 8.274814605712891 4.119724750518799 8.277214050292969 C 4.272384643554688 8.317994117736816 4.400044918060303 8.415844917297363 4.479134559631348 8.552714347839355 C 4.558194637298584 8.689554214477539 4.579264640808105 8.848954200744629 4.538444519042969 9.001564025878906 C 2.66362476348877 16.0080451965332 2.843814849853516 20.14589500427246 5.227014541625977 24.81403350830078 C 7.106404781341553 28.49083518981934 8.180974960327148 30.57282447814941 8.838705062866211 31.74872398376465 C 10.53565502166748 34.78592300415039 15.59173488616943 37.57603454589844 17.4951343536377 38.62639617919922 C 17.78959465026855 38.78875350952148 18.04318428039551 38.92930603027344 18.16484451293945 39.00541305541992 C 20.22086524963379 40.29824447631836 24.22236442565918 42.25314331054688 25.56740379333496 42.25296401977539 C 25.69667434692383 42.25294494628906 25.80285453796387 42.23603439331055 25.89202499389648 42.20125579833984 L 25.90659523010254 42.19557571411133 L 25.9203052520752 42.18805313110352 C 26.42096519470215 41.91319274902344 26.44136428833008 41.61642456054688 26.44806480407715 41.51889419555664 C 26.48210525512695 41.04677581787109 26.0586051940918 40.46590423583984 25.8220043182373 40.28713607788086 C 25.6762752532959 40.17850494384766 24.29339408874512 39.17922592163086 20.16155433654785 37.18756484985352 C 20.12479400634766 37.16956329345703 20.08815383911133 37.14670562744141 20.05400466918945 37.12027359008789 C 20.02976417541504 37.10140609741211 17.56030464172363 35.17542266845703 16.25643539428711 33.84862518310547 C 14.23839473724365 31.79360389709473 13.46532440185547 29.58300399780273 13.17216491699219 28.09042358398438 C 12.82882499694824 26.34231376647949 12.98203468322754 24.64428520202637 13.57199478149414 23.65896415710449 C 14.50831508636475 22.09554481506348 16.23006439208984 21.16215515136719 18.17766380310059 21.16215515136719 C 18.23955535888672 21.16215515136719 18.30174446105957 21.1630744934082 18.36411476135254 21.16492462158203 C 20.03234481811523 21.21188354492188 21.508544921875 21.92168426513672 22.0378246307373 22.93118476867676 C 23.26992416381836 25.28024482727051 24.44907379150391 26.37429428100586 25.7486743927002 26.37426376342773 C 26.02297401428223 26.37425422668457 26.30158424377441 26.32881355285645 26.62547492980957 26.23125457763672 L 26.83293533325195 26.16876411437988 L 26.79168510437012 25.9560546875 C 26.77666473388672 25.87858390808105 26.74897384643555 25.7912540435791 26.70938491821289 25.69648361206055 C 26.4300651550293 25.03547477722168 26.18794441223145 24.39318466186523 25.95379447937012 23.77205467224121 L 25.94503402709961 23.74880409240723 C 25.43941497802734 22.40611457824707 25.00272560119629 21.2464542388916 24.4320240020752 20.52988433837891 C 23.41768455505371 19.25534439086914 20.61795425415039 16.93512535095215 19.08347511291504 16.4828052520752 C 15.00646495819092 15.27956485748291 10.50086498260498 15.15537452697754 10.45583438873291 15.15426445007324 C 10.29816436767578 15.15026473999023 10.15132427215576 15.08496475219727 10.04252433776855 14.97039413452148 C 9.933704376220703 14.85581398010254 9.875974655151367 14.70571422576904 9.879984855651855 14.54775428771973 C 9.887905120849609 14.23531436920166 10.15595436096191 13.97135448455811 10.46532440185547 13.97135448455811 C 10.47158432006836 13.97135448455811 10.47790431976318 13.97146415710449 10.4841947555542 13.97168445587158 C 10.49485492706299 13.97193431854248 11.27396488189697 13.99128437042236 12.50595474243164 14.10165405273438 L 12.68812465667725 14.11797428131104 L 12.75199508666992 13.94658470153809 C 13.08817481994629 13.04453468322754 13.56044483184814 11.98355484008789 14.14291477203369 10.69026470184326 C 14.23839473724365 10.47887420654297 14.45042514801025 10.34213447570801 14.68300437927246 10.34213447570801 C 14.76671504974365 10.34213447570801 14.84830474853516 10.35971450805664 14.92551517486572 10.39437484741211 C 15.06913471221924 10.4590539932251 15.17917442321777 10.57614421844482 15.23509502410889 10.72396469116211 C 15.29104518890381 10.87182426452637 15.28612518310547 11.03258419036865 15.22126483917236 11.17661476135254 C 14.72773456573486 12.27121448516846 14.3252649307251 13.1714448928833 14.01174449920654 13.96236419677734 L 13.89818477630615 14.24886417388916 L 14.20381450653076 14.28847408294678 C 15.25837516784668 14.42514419555664 16.22612380981445 14.74517440795898 17.34669494628906 15.11572456359863 C 17.85393524169922 15.2834644317627 18.37844467163086 15.4569149017334 18.94781494140625 15.62497425079346 C 20.83576393127441 16.18150520324707 24.25019454956055 18.40205383300781 25.35744476318359 19.79341506958008 C 26.04406547546387 20.65545463562012 26.51105499267578 21.89585494995117 27.0517749786377 23.33212471008301 L 27.08027458190918 23.40666389465332 C 27.11179542541504 23.48906517028809 27.14385414123535 23.57284355163574 27.17492485046387 23.65499496459961 L 27.39767456054688 24.24380493164062 L 27.62302398681641 23.65598487854004 L 27.6520938873291 23.58026504516602 C 27.68410491943359 23.49696350097656 27.71647453308105 23.41270446777344 27.74721527099609 23.33072471618652 C 28.2879753112793 21.89546394348145 28.75509452819824 20.6556339263916 29.44088554382324 19.79398536682129 C 30.55650520324707 18.39277458190918 33.49473571777344 15.90525436401367 35.38109588623047 15.34903430938721 C 36.78200531005859 14.93564414978027 38.58881378173828 14.58873462677002 40.90482330322266 14.28847408294678 L 41.21040344238281 14.248854637146 L 41.09689331054688 13.96239471435547 C 40.9299430847168 13.54108428955078 40.65891647338867 13.09321403503418 40.37197494506836 12.61905479431152 C 40.09302520751953 12.15808486938477 39.80457305908203 11.68142414093018 39.57758331298828 11.17767429351807 C 39.51254653930664 11.0336742401123 39.50756454467773 10.87308406829834 39.56348419189453 10.72530460357666 C 39.61944580078125 10.5774040222168 39.72957611083984 10.46023464202881 39.87359619140625 10.3953742980957 C 39.95083618164062 10.36064434051514 40.03251647949219 10.34300422668457 40.11626434326172 10.34300422668457 C 40.34847640991211 10.34300422668457 40.56010437011719 10.47974491119385 40.65540313720703 10.69136428833008 C 41.25922393798828 12.03206443786621 41.71244430541992 13.05040454864502 42.0462760925293 13.94758415222168 L 42.11010360717773 14.11910438537598 L 42.29237365722656 14.10276412963867 C 43.52670288085938 13.99213409423828 44.30342483520508 13.97304439544678 44.3109245300293 13.97288417816162 L 44.31521606445312 13.97279453277588 L 44.31950378417969 13.97254467010498 C 44.32975387573242 13.97195434570312 44.33992385864258 13.97166442871094 44.35006332397461 13.97166442871094 C 44.64986419677734 13.97166442871094 44.90984344482422 14.23599433898926 44.91778564453125 14.54886436462402 C 44.92605590820312 14.87502479553223 44.66791534423828 15.14710426330566 44.34234619140625 15.15536403656006 C 44.2974739074707 15.15647411346436 39.79258346557617 15.28061485290527 35.71536636352539 16.48337364196777 C 34.18072509765625 16.9355640411377 31.38070487976074 19.25581359863281 30.36625480651855 20.53051376342773 C 29.79609489440918 21.24711418151855 29.35943412780762 22.40619468688965 28.85383415222168 23.74829483032227 L 28.83340454101562 23.80239486694336 C 28.60245513916016 24.41423416137695 28.36364555358887 25.04689407348633 28.08883476257324 25.69598388671875 C 28.05061531066895 25.786865234375 28.02300453186035 25.87359428405762 28.00653457641602 25.95431518554688 L 27.96278381347656 26.16875457763672 L 28.17235565185547 26.23182487487793 C 28.49674415588379 26.32943534851074 28.77557563781738 26.3748950958252 29.04984474182129 26.3748836517334 C 30.34916496276855 26.37481498718262 31.52807426452637 25.28073501586914 32.75993347167969 22.93176460266113 C 33.28867340087891 21.92276382446289 34.76534652709961 21.21297454833984 36.43446350097656 21.16548538208008 C 36.49595642089844 21.16365432739258 36.55657577514648 21.16274452209473 36.61735534667969 21.16274452209473 C 38.5663948059082 21.16274452209473 40.2891731262207 22.09613418579102 41.22580337524414 23.65956497192383 C 41.81322479248047 24.64064407348633 41.94049453735352 26.23605537414551 41.56622314453125 27.92724418640137 C 41.25315475463867 29.34184455871582 40.45329284667969 31.46261405944824 38.42060470581055 33.53256607055664 L 38.4028434753418 33.55064392089844 L 38.38926315307617 33.57204437255859 C 37.43689346313477 35.07216262817383 35.73774337768555 36.40916442871094 34.80966567993164 37.07261276245117 C 34.77406311035156 37.09806442260742 34.75121307373047 37.11458587646484 34.74253463745117 37.12134552001953 C 34.70907592773438 37.14755630493164 34.67312622070312 37.16997528076172 34.63523483276367 37.18832397460938 C 30.38407516479492 39.2378044128418 29.03293418884277 40.24466323852539 28.97749519348145 40.28652572631836 C 28.73977470397949 40.46647262573242 28.31496429443359 41.04889297485352 28.34978485107422 41.52118301391602 C 28.35645484924316 41.61745452880859 28.37697410583496 41.91363525390625 28.88641548156738 42.19307327270508 L 28.89940452575684 42.2001953125 L 28.91316413879395 42.20566558837891 C 29.01232528686523 42.24508285522461 29.13489532470703 42.26423263549805 29.28787422180176 42.26421356201172 C 30.59230804443359 42.26405334472656 34.34799575805664 40.7703971862793 36.59765625 39.35739135742188 C 36.63550186157227 39.3394889831543 36.77231597900391 39.30357360839844 36.87266540527344 39.2772331237793 C 37.11852645874023 39.21269607543945 37.42451477050781 39.13237380981445 37.64240646362305 39.01202392578125 C 39.2392463684082 38.13109588623047 44.1948356628418 34.90587615966797 45.95855331420898 31.74973487854004 C 46.60629653930664 30.59140396118164 47.639404296875 28.59057426452637 49.57067489624023 24.81474494934082 C 51.95584487915039 20.14605522155762 52.1364631652832 16.00789451599121 50.2609748840332 9.000974655151367 C 50.17803192138672 8.689431190490723 50.36064910888672 8.368185043334961 50.66902160644531 8.279609680175781 C 50.69709396362305 8.295613288879395 50.82135391235352 8.388723373413086 50.9997444152832 8.847634315490723 C 51.12929534912109 9.18089485168457 51.22913360595703 9.555044174194336 51.28878402709961 9.778594017028809 L 51.30447387695312 9.837244033813477 C 52.99811553955078 16.16531372070312 53.48305511474609 19.75905418395996 50.62327575683594 25.35395431518555 C 48.69314575195312 29.12800407409668 47.65724563598633 31.13419532775879 46.99067306518555 32.32769393920898 C 46.60991287231445 33.01004409790039 46.06560516357422 33.70530319213867 45.32658386230469 34.45327377319336 L 45.30795288085938 34.47213363647461 L 45.29389572143555 34.49461364746094 C 45.23020553588867 34.59639358520508 45.15627288818359 34.71818542480469 45.06798553466797 34.8636360168457 L 45.04947662353516 34.89413452148438 C 44.25055313110352 36.21323394775391 42.58839416503906 38.95764541625977 40.13568496704102 40.81711578369141 C 38.9383544921875 41.72690582275391 36.51221466064453 43.20639419555664 33.61448287963867 44.3823356628418 C 33.1724853515625 44.562255859375 32.71946334838867 44.65343475341797 32.26776504516602 44.65343475341797 Z M 40.82082366943359 37.94112396240234 C 39.6170654296875 38.70115280151367 38.52615356445312 39.30388259887695 37.87436294555664 39.66399383544922 L 37.82461547851562 39.69138336181641 C 37.56008529663086 39.83699417114258 37.36896514892578 39.94219589233398 37.26290512084961 40.009033203125 L 37.25484466552734 40.01399612426758 C 36.93183517456055 40.2137451171875 34.02616500854492 41.9914436340332 31.5015754699707 42.88736343383789 L 30.84533500671387 43.12024307250977 L 31.50584411621094 43.34071350097656 C 31.75763511657715 43.42476272583008 32.01348495483398 43.46737289428711 32.26627349853516 43.46737289428711 C 32.56935501098633 43.46737289428711 32.87355422973633 43.40619277954102 33.17040634155273 43.2855339050293 C 36.83771514892578 41.79730606079102 39.16825485229492 40.06615447998047 39.42192459106445 39.87365341186523 C 39.98903656005859 39.44289398193359 40.56196594238281 38.91567611694336 41.12488555908203 38.30656433105469 L 40.82082366943359 37.94112396240234 Z M 13.97801494598389 37.93999481201172 L 13.67400455474854 38.30547332763672 C 14.24722480773926 38.92568588256836 14.80466461181641 39.43849563598633 15.37816429138184 39.87318420410156 C 15.63140487670898 40.06548309326172 17.95976448059082 41.79605484008789 21.62969398498535 43.28558349609375 C 21.9266242980957 43.40615463256836 22.23073387145996 43.46730422973633 22.53354454040527 43.46730422973633 C 22.78679466247559 43.46730422973633 23.04281425476074 43.42449569702148 23.29448509216309 43.34004592895508 L 23.95317459106445 43.11904525756836 L 23.29836463928223 42.88679504394531 C 20.63584518432617 41.94248580932617 17.56742477416992 40.02708435058594 17.53718566894531 40.00800323486328 C 17.43308448791504 39.94327545166016 17.25123405456543 39.84299468994141 16.99953460693359 39.70420455932617 L 16.92549514770508 39.66337585449219 C 16.27484512329102 39.30389404296875 15.18564510345459 38.70212554931641 13.97801494598389 37.93999481201172 Z M 18.19747543334961 22.34720420837402 C 17.45806503295898 22.34720420837402 15.62619495391846 22.53439521789551 14.58805465698242 24.26821517944336 C 14.22186470031738 24.8797550201416 13.8798246383667 26.21417427062988 14.12104511260986 27.96228408813477 C 14.30376434326172 29.28642463684082 14.88885498046875 31.23883438110352 16.63863563537598 33.02042388916016 C 17.48422431945801 33.88092422485352 19.11714553833008 35.01607513427734 20.09277534484863 35.69431304931641 C 20.38755416870117 35.89922332763672 20.62038421630859 36.06108474731445 20.71422386169434 36.13502502441406 L 20.73477554321289 36.15121459960938 L 20.75833511352539 36.16259384155273 C 23.96828460693359 37.71300506591797 25.87711524963379 38.84545516967773 26.53637504577637 39.34413528442383 C 26.7545051574707 39.50801467895508 27.00133514404297 39.79167556762695 27.19728469848633 40.1034049987793 L 27.40001487731934 40.4259147644043 L 27.60310554504395 40.1036262512207 C 27.79912567138672 39.79254531860352 28.04678535461426 39.50827407836914 28.26558494567871 39.34320449829102 C 28.92220497131348 38.84609603881836 30.82809448242188 37.71502304077148 34.03950500488281 36.16256332397461 L 34.06301498413086 36.15119552612305 L 34.08353424072266 36.13502502441406 C 34.49296569824219 35.81241607666016 36.59140396118164 34.14605331420898 37.69749450683594 33.02047348022461 C 39.46514511108398 31.22067451477051 40.16630554199219 29.28573417663574 40.44323348999023 27.97944450378418 C 40.75930404663086 26.48859405517578 40.6678352355957 25.03182411193848 40.21022415161133 24.26814460754395 C 39.17210388183594 22.53454399108887 37.33665466308594 22.34737396240234 36.595703125 22.34737396240234 C 36.55009460449219 22.34737396240234 36.50727462768555 22.3480339050293 36.46756362915039 22.34912490844727 C 33.86665344238281 22.42207527160645 33.58493423461914 22.95875358581543 33.49235534667969 23.1351146697998 C 31.86032485961914 26.24934387207031 30.52118492126465 27.51956367492676 28.87009429931641 27.51956367492676 C 28.45824432373047 27.51956367492676 28.03016471862793 27.44054412841797 27.5613842010498 27.27798461914062 C 27.55560493469238 27.27558517456055 27.54964447021484 27.27215385437012 27.54355430603027 27.26899528503418 C 27.52728462219238 27.26053428649902 27.51092529296875 27.25226402282715 27.49412536621094 27.24501419067383 L 27.39918518066406 27.20406532287598 L 27.30423545837402 27.24500465393066 C 27.28751564025879 27.2522144317627 27.27126502990723 27.26035499572754 27.25507545471191 27.2686653137207 C 27.24818420410156 27.2722053527832 27.241455078125 27.27610397338867 27.23417472839355 27.27896499633789 C 26.70560455322266 27.4623851776123 26.19635391235352 27.55587387084961 25.72328567504883 27.55587387084961 C 23.95211410522461 27.55587387084961 22.44830513000488 26.26139450073242 20.9907054901123 23.48207473754883 C 20.67028427124023 22.87032508850098 19.52705383300781 22.38321495056152 18.33151435852051 22.34913444519043 C 18.2901439666748 22.34793472290039 18.24536514282227 22.34720420837402 18.19747543334961 22.34720420837402 Z"/><path class="f" d="M 4.128395080566406 8.535968780517578 C 4.035484313964844 8.667343139648438 3.877597808837891 9.073207855224609 3.909835815429688 9.752281188964844 L 3.913375854492188 9.82684326171875 L 3.894084930419922 9.898952484130859 C 3.1141357421875 12.81410217285156 2.466983795166016 15.42576217651367 2.448123931884766 17.8667106628418 C 2.429275512695312 20.3050537109375 3.02789306640625 22.5805721282959 4.389053344726562 25.24481201171875 C 6.314174652099609 29.0104923248291 7.34814453125 31.01334190368652 8.017383575439453 32.21055221557617 C 8.383995056152344 32.86611175537109 8.93017578125 33.56346130371094 9.640754699707031 34.28324127197266 L 9.676933288574219 34.31989288330078 L 9.704505920410156 34.3633918762207 C 9.781253814697266 34.48447418212891 9.869636535644531 34.63052368164062 9.954624176025391 34.77184295654297 C 10.74648284912109 36.07784271240234 12.39422607421875 38.7954216003418 14.80722427368164 40.625732421875 C 15.99408340454102 41.52702331542969 18.39987564086914 42.99349212646484 21.27404403686523 44.16020202636719 C 21.6883659362793 44.32840347290039 22.11111450195312 44.41369247436523 22.53054428100586 44.41369247436523 C 23.83315467834473 44.41369247436523 24.77380561828613 43.62612152099609 25.11777496337891 43.28751373291016 L 25.26982498168945 43.13783264160156 L 25.4828052520752 43.15057373046875 C 25.51229476928711 43.15234375 25.54275512695312 43.15506362915039 25.57325553894043 43.15788269042969 C 25.60213470458984 43.16054153442383 25.63487434387207 43.16357421875 25.65071487426758 43.16357421875 C 25.95457458496094 43.16311264038086 26.1950855255127 43.1156005859375 26.36518478393555 43.02255249023438 C 26.63766479492188 42.87320327758789 26.86089515686035 42.69393157958984 27.02868461608887 42.48972320556641 L 27.39915466308594 42.03885269165039 L 27.76962471008301 42.48972320556641 C 27.93711471557617 42.69356155395508 28.1605339050293 42.87283325195312 28.43403434753418 43.02275085449219 C 28.60416412353516 43.11619186401367 28.84381484985352 43.16357421875 29.14633560180664 43.16357421875 C 29.19885444641113 43.16357421875 29.25962448120117 43.16016387939453 29.32396507263184 43.15656280517578 L 29.5351448059082 43.14473342895508 L 29.68625450134277 43.29267120361328 C 30.0305347442627 43.62973022460938 30.97128486633301 44.41369247436523 32.26776504516602 44.41369247436523 C 32.68832397460938 44.41369247436523 33.11093521118164 44.32846069335938 33.52433395385742 44.16018295288086 C 36.40027618408203 42.99308395385742 38.80500411987305 41.52712249755859 39.9908447265625 40.62606048583984 C 42.40705490112305 38.79427337646484 44.05318450927734 36.07632446289062 44.84453582763672 34.76972198486328 L 44.86304473876953 34.73923492431641 C 44.95198440551758 34.59269332885742 45.02648544311523 34.46999359130859 45.09064483642578 34.3674430847168 L 45.1187744140625 34.32249450683594 L 45.15604400634766 34.28477478027344 C 45.87964630126953 33.55239105224609 46.4112548828125 32.87404251098633 46.78135681152344 32.21078491210938 C 47.44611358642578 31.02054214477539 48.48104476928711 29.01619338989258 50.40980529785156 25.24484252929688 C 51.78766632080078 22.54916191101074 52.41244506835938 20.27104187011719 52.43558502197266 17.85820388793945 C 52.45780563354492 15.54303359985352 51.95272445678711 13.18670272827148 51.07293319702148 9.899463653564453 L 51.05715560913086 9.840473175048828 C 50.84877395629883 9.0595703125 50.69999694824219 8.721397399902344 50.61080551147461 8.575054168701172 C 50.5067138671875 8.659938812255859 50.45588302612305 8.801162719726562 50.49257659912109 8.938972473144531 C 52.38565444946289 16.01161193847656 52.20029449462891 20.19454193115234 49.78411483764648 24.92392349243164 C 47.85154342651367 28.70232200622559 46.81746673583984 30.70498275756836 46.1678352355957 31.8666934967041 C 44.37681579589844 35.07168197631836 39.37062454223633 38.33242034912109 37.75831604003906 39.22189331054688 C 37.5142822265625 39.35667419433594 37.19227600097656 39.44120025634766 36.93353271484375 39.50912475585938 C 36.85504531860352 39.52972412109375 36.75032424926758 39.55721282958984 36.70561218261719 39.57266616821289 C 34.63337326049805 40.86897659301758 30.73977088928223 42.50395202636719 29.28784561157227 42.50395202636719 C 29.10396385192871 42.50395202636719 28.95244407653809 42.47926330566406 28.82463455200195 42.42847442626953 L 28.79709434509277 42.41752243041992 L 28.77111434936523 42.40327453613281 C 28.35104560852051 42.1728630065918 28.13496398925781 41.8893928527832 28.11068534851074 41.53881072998047 C 28.06696510314941 40.94589233398438 28.56755447387695 40.296142578125 28.8330249786377 40.09519195556641 C 28.97393417358398 39.98879241943359 30.33095550537109 38.99726104736328 34.53070449829102 36.97256469726562 C 34.55326461791992 36.96163177490234 34.57465362548828 36.94830322265625 34.59512329101562 36.93227386474609 C 34.60484313964844 36.92469024658203 34.63037490844727 36.90607452392578 34.67027282714844 36.87754058837891 C 36.22541427612305 35.76581192016602 37.50715637207031 34.51416015625 38.18684387207031 33.44355010986328 L 38.21401214599609 33.40075302124023 L 38.24953460693359 33.36458206176758 C 41.69805526733398 29.85285186767578 42.07432556152344 25.54341316223145 41.02013397216797 23.78277206420898 C 40.12722396850586 22.29232215881348 38.4813232421875 21.40249252319336 36.61733245849609 21.40249252319336 C 36.55904388427734 21.40249252319336 36.50058746337891 21.40336227416992 36.4412841796875 21.40513229370117 C 34.88088226318359 21.44954299926758 33.45439529418945 22.12304306030273 32.97225189208984 23.0431022644043 C 31.69442558288574 25.4797534942627 30.44804382324219 26.61462211608887 29.04983520507812 26.61462211608887 C 28.75143432617188 26.61462211608887 28.45066452026367 26.56593322753906 28.10327529907227 26.46139335632324 L 27.68411445617676 26.33526229858398 L 27.77163505554199 25.9063720703125 C 27.79124450683594 25.81026268005371 27.82353401184082 25.70839309692383 27.86805534362793 25.60251235961914 C 28.14102554321289 24.95779228210449 28.37898445129395 24.32738304138184 28.60910415649414 23.71773338317871 L 28.62947463989258 23.66377258300781 C 29.14220428466797 22.30276298522949 29.58501434326172 21.12734222412109 30.17866516113281 20.38122177124023 C 31.20772552490234 19.08815383911133 34.01981353759766 16.7330436706543 35.64752197265625 16.25342178344727 C 39.75828552246094 15.040771484375 44.29135513305664 14.91680145263672 44.33623504638672 14.91570281982422 C 44.5296745300293 14.91079330444336 44.68303680419922 14.74895095825195 44.67811584472656 14.5549430847168 C 44.67339324951172 14.36873245239258 44.52316284179688 14.2114143371582 44.35006332397461 14.2114143371582 C 44.34444427490234 14.2114143371582 44.33881378173828 14.21158218383789 44.33313369750977 14.2119026184082 L 44.32461547851562 14.2123908996582 L 44.31608581542969 14.21257400512695 C 44.30867385864258 14.21273422241211 43.52034378051758 14.23341369628906 42.31377410888672 14.3415412902832 L 41.94922637939453 14.37421417236328 L 41.82158660888672 14.03118133544922 C 41.4903450012207 13.1409912109375 41.0386962890625 12.1262321472168 40.43679428100586 10.78981399536133 C 40.38015365600586 10.66402435302734 40.25433349609375 10.58274078369141 40.11626434326172 10.58274078369141 C 40.06664276123047 10.58274078369141 40.0180549621582 10.59328079223633 39.9720458984375 10.61398315429688 C 39.88645553588867 10.65252304077148 39.82099533081055 10.72219085693359 39.78771591186523 10.81014251708984 C 39.75447463989258 10.89798355102539 39.75741577148438 10.99339294433594 39.79616546630859 11.07919311523438 C 40.01719665527344 11.5697135925293 40.30182647705078 12.04005432128906 40.57708358764648 12.49491119384766 C 40.86936569213867 12.97790145874023 41.14543533325195 13.43411254882812 41.31977462768555 13.87407302856445 L 41.54680633544922 14.44699096679688 L 40.93565368652344 14.52622222900391 C 38.63230514526367 14.82485198974609 36.83760452270508 15.16921234130859 35.44889450073242 15.57900238037109 C 33.6707649230957 16.10329437255859 30.73789405822754 18.54985427856445 29.62846565246582 19.94328308105469 C 28.96616554260254 20.77542114257812 28.50519561767578 21.9989128112793 27.97169494628906 23.41490173339844 C 27.94073486328125 23.49747276306152 27.90813446044922 23.58234214782715 27.87589454650879 23.6662425994873 L 27.84688568115234 23.74180221557617 L 27.39619445800781 24.91745185852051 L 26.9506950378418 23.73982238769531 C 26.91971397399902 23.6579532623291 26.88777542114258 23.57444190979004 26.85635566711426 23.49233245849609 L 26.82739448547363 23.41659164428711 C 26.29381561279297 21.99929237365723 25.83299446105957 20.77527236938477 25.16984558105469 19.94270324707031 C 24.1063346862793 18.60630416870117 20.69694519042969 16.39052200317383 18.87993621826172 15.85492324829102 C 18.3068733215332 15.68576431274414 17.7805061340332 15.51170349121094 17.2714729309082 15.3433723449707 C 16.16255569458008 14.97666168212891 15.20485305786133 14.65996170043945 14.17299652099609 14.5262336730957 L 13.56174468994141 14.44701385498047 L 13.78887557983398 13.8740234375 C 14.10424423217773 13.07840347290039 14.50786590576172 12.17557144165039 15.00266647338867 11.07817077636719 C 15.04125595092773 10.99248123168945 15.04416656494141 10.89681243896484 15.0108642578125 10.80880355834961 C 14.97761535644531 10.72092437744141 14.91225433349609 10.65134429931641 14.82732391357422 10.61309432983398 C 14.78118515014648 10.59238433837891 14.73263549804688 10.58187103271484 14.68300628662109 10.58187103271484 C 14.54445648193359 10.58187103271484 14.41818618774414 10.66325378417969 14.36151504516602 10.78871154785156 C 13.78090286254883 12.0778923034668 13.31025314331055 13.13517379760742 12.97665405273438 14.03031158447266 L 12.84890365600586 14.37308120727539 L 12.48456573486328 14.3404426574707 C 11.26040649414062 14.23078155517578 10.48953628540039 14.21162414550781 10.48209381103516 14.21146392822266 L 10.47888565063477 14.21139144897461 L 10.47567367553711 14.21128082275391 L 10.46532440185547 14.21109390258789 C 10.28580474853516 14.21109390258789 10.12428283691406 14.37124252319336 10.11965560913086 14.5538330078125 C 10.11727523803711 14.64781188964844 10.15161514282227 14.73712158203125 10.21636581420898 14.80530166625977 C 10.28104400634766 14.8734016418457 10.36830520629883 14.91221237182617 10.46176528930664 14.91458129882812 C 10.50711441040039 14.91570281982422 15.04436492919922 15.040771484375 19.1512565612793 16.25283432006836 C 20.77885437011719 16.73259353637695 23.59066390991211 19.08768081665039 24.61955451965332 20.38053131103516 C 25.21378517150879 21.12663269042969 25.65664482116699 22.30266189575195 26.16936492919922 23.66423225402832 L 26.17821502685547 23.68770217895508 C 26.41152381896973 24.30660247802734 26.65276527404785 24.94658279418945 26.93059539794922 25.60406303405762 C 26.97646522521973 25.71385192871094 27.00892448425293 25.81692314147949 27.02704429626465 25.9104118347168 L 27.10954475402832 26.33582305908203 L 26.69462394714355 26.46081161499023 C 26.34765434265137 26.56532287597656 26.04707527160645 26.6140022277832 25.7486743927002 26.6140022277832 C 24.35014533996582 26.6140022277832 23.10353469848633 25.47916221618652 21.82549285888672 23.04251289367676 C 21.3428840637207 22.12201309204102 19.91688537597656 21.44847297668457 18.35702514648438 21.40456199645996 C 18.29701614379883 21.40278244018555 18.23720550537109 21.40189170837402 18.17766571044922 21.40189170837402 C 16.31514358520508 21.40189170837402 14.67028427124023 22.29171180725098 13.77769470214844 23.7821216583252 C 13.21690368652344 24.71871185302734 13.07502365112305 26.35185241699219 13.40742492675781 28.04421234130859 C 13.69426345825195 29.5046329498291 14.45106506347656 31.66800308227539 16.42743301391602 33.68057250976562 C 17.72027587890625 34.99615478515625 20.17716598510742 36.91231155395508 20.20072555541992 36.9306640625 C 20.2220458984375 36.94716262817383 20.24479293823242 36.96137237548828 20.26565551757812 36.97160339355469 C 24.41763496398926 38.97297286987305 25.81765556335449 39.98487091064453 25.96654510498047 40.09585189819336 C 26.23066520690918 40.2954216003418 26.72993469238281 40.94341278076172 26.68725395202637 41.53533172607422 C 26.6629638671875 41.88859176635742 26.4498348236084 42.17084121704102 26.03567504882812 42.39821243286133 L 26.00828552246094 42.41325378417969 L 25.97916412353516 42.42461395263672 C 25.86168479919434 42.47043228149414 25.72698402404785 42.49270248413086 25.5673656463623 42.49270248413086 C 24.15908432006836 42.49270248413086 20.16660308837891 40.54733276367188 18.03769302368164 39.20866394042969 C 17.92136383056641 39.13589477539062 17.65995407104492 38.99104309082031 17.37929534912109 38.8363037109375 C 15.4594841003418 37.77689361572266 10.35981369018555 34.96273040771484 8.629486083984375 31.86576271057129 C 7.970073699951172 30.68691253662109 6.894424438476562 28.60288238525391 5.013484954833984 24.92305183410645 C 2.599365234375 20.19436264038086 2.414443969726562 16.01177215576172 4.30682373046875 8.939594268798828 C 4.331104278564453 8.848854064941406 4.318572998046875 8.754051208496094 4.27154541015625 8.672660827636719 C 4.237308502197266 8.613422393798828 4.187774658203125 8.566474914550781 4.128395080566406 8.535968780517578 M 25.72328567504883 27.31613349914551 C 26.16611099243164 27.31613349914551 26.64499473571777 27.22842979431152 27.14222717285156 27.05708312988281 L 27.14557456970215 27.05538177490234 C 27.16654396057129 27.04461288452148 27.18764495849609 27.03418159484863 27.20930480957031 27.02485275268555 L 27.39919471740723 26.94296264648438 L 27.58908462524414 27.02487182617188 C 27.61117553710938 27.03440284729004 27.63274383544922 27.04515266418457 27.65414428710938 27.05627250671387 L 27.65468978881836 27.05655479431152 C 28.08617973327637 27.20470428466797 28.49503707885742 27.27982330322266 28.87008476257324 27.27982330322266 C 30.41816520690918 27.27982330322266 31.69577407836914 26.04681205749512 33.28007507324219 23.023681640625 C 33.48471450805664 22.63383293151855 34.03118515014648 22.1776123046875 36.46094512939453 22.10947227478027 C 36.50265502929688 22.10832214355469 36.54775238037109 22.10763168334961 36.59565734863281 22.10763168334961 C 37.37747192382812 22.10763168334961 39.31478500366211 22.30615234375 40.41587448120117 24.14492225646973 C 40.91039276123047 24.97018241882324 41.01074600219727 26.45854187011719 40.67777252197266 28.02917289733887 C 40.39422607421875 29.36665344238281 39.67668533325195 31.34743309020996 37.86849212646484 33.18851470947266 C 36.75225448608398 34.32442474365234 34.64334487915039 35.99915313720703 34.23192596435547 36.32333374023438 L 34.19088745117188 36.35567474365234 L 34.14384460449219 36.37841033935547 C 30.94824409484863 37.92323303222656 29.05817413330078 39.04386138916016 28.40997505187988 39.53459167480469 C 28.25798416137695 39.64925384521484 28.01949501037598 39.89252471923828 27.80593490600586 40.2314338684082 L 27.39976501464844 40.87602233886719 L 26.99431419372559 40.23099136352539 C 26.78096389770508 39.89158248901367 26.54379463195801 39.64958190917969 26.39174461364746 39.53533172607422 C 25.74122428894043 39.04327392578125 23.84821510314941 37.9212532043457 20.6540641784668 36.37848281860352 L 20.6069450378418 36.35572052001953 L 20.56583404541016 36.32333374023438 C 20.47763442993164 36.25382995605469 20.23587417602539 36.08577346801758 19.95593643188477 35.89116287231445 C 18.97340393066406 35.20814514160156 17.32895660400391 34.06497192382812 16.46759414672852 33.18842315673828 C 13.21508407592773 29.87677192687988 13.51276397705078 25.59729194641113 14.38235473632812 24.14506340026855 C 15.48346328735352 22.30603218078613 17.41719436645508 22.10747337341309 18.19747543334961 22.10746192932129 C 18.24787521362305 22.10746192932129 18.29499435424805 22.10821342468262 18.33834457397461 22.10948181152344 C 19.63482284545898 22.14644241333008 20.83964538574219 22.67696189880371 21.20302581787109 23.3707218170166 C 22.61468505859375 26.06245231628418 24.051025390625 27.31613349914551 25.72328567504883 27.31613349914551 M 22.53354644775391 43.70705413818359 C 22.19967651367188 43.70705413818359 21.86521530151367 43.63998413085938 21.53952407836914 43.50773239135742 C 17.84094619750977 42.00657272338867 15.489013671875 40.25839233398438 15.23334503173828 40.06425476074219 C 14.64846420288086 39.62093353271484 14.08080291748047 39.09885406494141 13.4979248046875 38.46819305419922 L 14.10595321655273 37.73724365234375 C 15.3075065612793 38.49552154541016 16.39300537109375 39.09527206420898 17.04128646850586 39.45345306396484 L 17.11468505859375 39.49393463134766 C 17.3698844909668 39.6346321105957 17.55426406860352 39.73630142211914 17.66503524780273 39.80518341064453 C 17.69518661499023 39.82417297363281 20.75361633300781 41.72987365722656 23.37850379943848 42.66085052490234 L 24.68818473815918 43.12536239624023 L 23.37073516845703 43.56735229492188 C 23.09443473815918 43.66005325317383 22.8127555847168 43.70705413818359 22.53354644775391 43.70705413818359 M 32.26628494262695 43.70712280273438 C 31.98765563964844 43.70712280273438 31.70626449584961 43.66036224365234 31.42994499206543 43.56813049316406 L 30.1089038848877 43.12719345092773 L 31.42139434814453 42.66142272949219 C 33.92201232910156 41.77400207519531 36.80781555175781 40.008544921875 37.12863540649414 39.81016159057617 L 37.13623809814453 39.80548095703125 C 37.24839782714844 39.73489761352539 37.44146347045898 39.62862014770508 37.70831298828125 39.48172378540039 L 37.75841522216797 39.45414352416992 C 38.40787506103516 39.09532165527344 39.4948844909668 38.4947624206543 40.69282531738281 37.7384033203125 L 41.30095672607422 38.46928405761719 C 40.72858428955078 39.088623046875 40.14520263671875 39.62533187866211 39.56685638427734 40.06464385986328 C 39.31059265136719 40.25910186767578 36.95649719238281 42.00784301757812 33.26066589355469 43.50765228271484 C 32.93500518798828 43.6400146484375 32.60044479370117 43.70712280273438 32.26628494262695 43.70712280273438 M 4.094181060791016 8.033843994140625 C 4.122840881347656 8.033843994140625 4.152046203613281 8.037696838378906 4.181545257568359 8.045574188232422 C 4.625415802001953 8.164154052734375 4.888626098632812 8.620212554931641 4.770034790039062 9.063510894775391 C 2.912586212158203 16.00513076782227 3.088794708251953 20.0985107421875 5.440544128417969 24.70502281188965 C 7.320713043212891 28.38335227966309 8.395175933837891 30.46468162536621 9.047954559326172 31.63168334960938 C 10.71145629882812 34.60903167724609 15.72413635253906 37.37527465820312 17.61096572875977 38.41648101806641 C 17.93457412719727 38.59491348266602 18.17063522338867 38.72624206542969 18.29199600219727 38.80216217041016 C 20.48923873901367 40.18378829956055 24.34727668762207 42.01321411132812 25.56736946105957 42.01321411132812 C 25.66361999511719 42.01321411132812 25.74361991882324 42.00180053710938 25.80492401123047 41.9778938293457 C 26.18948554992676 41.76677322387695 26.20389556884766 41.57504272460938 26.20888519287109 41.5024528503418 C 26.23493385314941 41.14115142822266 25.8747444152832 40.62747192382812 25.67747497558594 40.47841262817383 C 25.6209545135498 40.43629455566406 24.2971248626709 39.44717407226562 20.05745315551758 37.40353393554688 C 20.00425338745117 37.37748336791992 19.95383453369141 37.34590148925781 19.90728378295898 37.30988311767578 C 19.80477523803711 37.23008346557617 17.37822341918945 35.33218383789062 16.08543395996094 34.01666259765625 C 12.48744583129883 30.35274314880371 12.19375610351562 25.49411201477051 13.36630630493164 23.53580284118652 C 14.35055541992188 21.8923397064209 16.13225173950195 20.92240142822266 18.17766571044922 20.92240142822266 C 18.24192047119141 20.92240142822266 18.30647659301758 20.92335891723633 18.37123489379883 20.92528343200684 C 20.12339401245117 20.97460174560547 21.68217468261719 21.73653221130371 22.25016403198242 22.81986236572266 C 23.64611625671387 25.48131370544434 24.77947998046875 26.13451766967773 25.74867248535156 26.13451766967773 C 26.03099632263184 26.13451766967773 26.29944038391113 26.07907104492188 26.55632400512695 26.0016918182373 C 26.54579544067383 25.9473934173584 26.52474403381348 25.87646293640137 26.4881649017334 25.78891181945801 C 26.20389556884766 25.11619186401367 25.95841407775879 24.4639720916748 25.72069549560547 23.83337211608887 C 25.22197532653809 22.50899314880371 24.79085540771484 21.36526298522949 24.24448394775391 20.67925262451172 C 23.24870491027832 19.42801284790039 20.51018524169922 17.15329360961914 19.01568603515625 16.71276092529297 C 14.98825454711914 15.52415084838867 10.49478530883789 15.39504241943359 10.44990539550781 15.3939323425293 C 9.991073608398438 15.38229370117188 9.628673553466797 15.00049209594727 9.640316009521484 14.54167175292969 C 9.651718139648438 14.09169387817383 10.03256988525391 13.73160552978516 10.46532821655273 13.73160552978516 C 10.47436141967773 13.73160552978516 10.48348999023438 13.73176574707031 10.4925651550293 13.73208236694336 C 10.56903457641602 13.7337532043457 11.35202407836914 13.75757217407227 12.52734375 13.86286163330078 C 12.87367630004883 12.9335823059082 13.36353302001953 11.83695220947266 13.92431640625 10.59181213378906 C 14.06326675415039 10.28416442871094 14.36607360839844 10.10238647460938 14.68300247192383 10.10238647460938 C 14.79706192016602 10.10238647460938 14.91299438476562 10.12594985961914 15.02371597290039 10.17566299438477 C 15.44208526611328 10.36406326293945 15.62827301025391 10.85669326782227 15.43986511230469 11.27506256103516 C 14.96940612792969 12.3184928894043 14.55048370361328 13.25386428833008 14.23462295532227 14.05071258544922 C 15.79949569702148 14.25352096557617 17.20034408569336 14.85919189453125 19.01568603515625 15.39504241943359 C 20.94628524780273 15.96413421630859 24.41127395629883 18.21945190429688 25.54503440856934 19.64412307739258 C 26.25432395935059 20.53462219238281 26.72810554504395 21.79195213317871 27.27614402770996 23.24765205383301 C 27.31659507751465 23.35349273681641 27.35870552062988 23.46321296691895 27.3991641998291 23.57016181945801 C 27.44016456604004 23.46321296691895 27.48283386230469 23.35294342041016 27.52273559570312 23.24654197692871 C 28.07077407836914 21.79195213317871 28.5445556640625 20.53517150878906 29.25329399108887 19.64468383789062 C 30.38760566711426 18.22000122070312 33.38323211669922 15.68817138671875 35.31328582763672 15.11908340454102 C 37.12917327880859 14.58323287963867 39.3096923828125 14.25352096557617 40.87400436401367 14.05071258544922 C 40.55759429931641 13.25221252441406 39.82891464233398 12.31904220581055 39.35900497436523 11.27617263793945 C 39.1700439453125 10.85780334472656 39.35679626464844 10.36517333984375 39.77515411376953 10.17677307128906 C 39.88610076904297 10.12687683105469 40.00211334228516 10.10325622558594 40.11626052856445 10.10325622558594 C 40.43313598632812 10.10325622558594 40.73549270629883 10.28535079956055 40.87400436401367 10.59292221069336 C 41.43479537963867 11.83806228637695 41.92519378662109 12.9346923828125 42.27097320556641 13.86396408081055 C 43.44573593139648 13.75868225097656 44.22872543334961 13.7348518371582 44.30575561523438 13.73319244384766 C 44.32061004638672 13.73233795166016 44.33535766601562 13.73191833496094 44.35005950927734 13.73191833496094 C 44.7839469909668 13.73191833496094 45.14619445800781 14.0989990234375 45.15745544433594 14.54278182983398 C 45.16909408569336 15.00160217285156 44.80668640136719 15.38340377807617 44.34841537475586 15.39504241943359 C 44.30353546142578 15.39614105224609 39.81062316894531 15.52525329589844 35.78319549560547 16.71332168579102 C 34.28813552856445 17.15385437011719 31.54961395263672 19.42857360839844 30.5538444519043 20.67980194091797 C 30.00802421569824 21.36582183837891 29.576904296875 22.50899314880371 29.07818412780762 23.83281326293945 C 28.83991432189941 24.4639720916748 28.59442520141602 25.11674308776855 28.30960464477539 25.78946304321289 C 28.27302551269531 25.8764533996582 28.25252532958984 25.94794273376465 28.24144554138184 26.00224304199219 C 28.49871826171875 26.07966232299805 28.76728057861328 26.13513374328613 29.04983711242676 26.13513374328613 C 30.01914405822754 26.13513374328613 31.15187644958496 25.48187828063965 32.54761505126953 22.82041168212891 C 33.11559295654297 21.73653221130371 34.6749267578125 20.97571182250977 36.42764282226562 20.92583274841309 C 36.49108123779297 20.92394065856934 36.55429840087891 20.92300033569336 36.61733245849609 20.92300033569336 C 38.64057922363281 20.92300033569336 40.44696426391602 21.89300918579102 41.43146514892578 23.53635215759277 C 42.6040153503418 25.49466323852539 42.1890869140625 30.03717231750488 38.59165191650391 33.70054244995117 C 37.38248443603516 35.60517120361328 34.99299621582031 37.23008346557617 34.88992309570312 37.31043243408203 C 34.84393310546875 37.34645080566406 34.79351425170898 37.37804412841797 34.73976516723633 37.40408325195312 C 30.4984245300293 39.44883346557617 29.1762638092041 40.43685150146484 29.1219654083252 40.47785186767578 C 28.923583984375 40.62802124023438 28.56228446960449 41.14281463623047 28.5888843536377 41.5035514831543 C 28.59387397766113 41.57559204101562 28.60772514343262 41.76676177978516 29.0017147064209 41.98287200927734 C 29.07267761230469 42.01107788085938 29.16906929016113 42.02446365356445 29.287841796875 42.02446365356445 C 30.54821014404297 42.02446365356445 34.30776977539062 40.51355743408203 36.47419738769531 39.15181350708008 C 36.59609222412109 39.07589340209961 37.20343399047852 38.9805908203125 37.52649688720703 38.80216217041016 C 39.41387557983398 37.76094055175781 44.08576583862305 34.60958099365234 45.74926376342773 31.63278198242188 C 46.40092468261719 30.46744346618652 47.43161392211914 28.47035217285156 49.35722351074219 24.7055721282959 C 51.71118545532227 20.09796142578125 51.88739395141602 16.00457382202148 50.02938461303711 9.062953948974609 C 49.91135406494141 8.619651794433594 50.17401504516602 8.163600921630859 50.61787414550781 8.045013427734375 C 50.63581085205078 8.040199279785156 50.65357971191406 8.037876129150391 50.67121505737305 8.037876129150391 C 51.09002685546875 8.037918090820312 51.42167663574219 9.349636077880859 51.53599548339844 9.7750244140625 C 53.23441314697266 16.12095260620117 53.74816513061523 19.76714324951172 50.83675384521484 25.46307182312012 C 48.90172576904297 29.2466926574707 47.86383438110352 31.25597190856934 47.19998550415039 32.44459533691406 C 46.77884674072266 33.19932174682617 46.18259429931641 33.92800140380859 45.49713516235352 34.62177276611328 C 45.42952346801758 34.72983169555664 45.35028457641602 34.86061096191406 45.25441360473633 35.0185432434082 C 44.44760513305664 36.35066986083984 42.76858520507812 39.12189483642578 40.28052520751953 41.00816345214844 C 39.07140350341797 41.92691040039062 36.62269592285156 43.42029190063477 33.70463562011719 44.60448455810547 C 33.20369720458984 44.80840301513672 32.72159576416016 44.89318084716797 32.26776504516602 44.89318084716797 C 30.99880409240723 44.89318084716797 29.95758438110352 44.22933197021484 29.35081481933594 43.63530349731445 C 29.28154563903809 43.63918304443359 29.21228408813477 43.64306259155273 29.14633560180664 43.64306259155273 C 28.77728462219238 43.64306259155273 28.45644378662109 43.58211135864258 28.20320510864258 43.44302368164062 C 27.84634399414062 43.24741363525391 27.58811569213867 43.02410125732422 27.39915466308594 42.79413223266602 C 27.21019554138184 43.02410125732422 26.95252418518066 43.24741363525391 26.59566497802734 43.44302368164062 C 26.3424243927002 43.58155059814453 26.02103424072266 43.64251327514648 25.65142440795898 43.64306259155273 C 25.58936500549316 43.64306259155273 25.51898384094238 43.63309478759766 25.45415496826172 43.62921142578125 C 24.84848403930664 44.2254524230957 23.80449485778809 44.89318084716797 22.53054428100586 44.89318084716797 C 22.07671356201172 44.89318084716797 21.5946159362793 44.80784225463867 21.09368515014648 44.60448455810547 C 18.17783355712891 43.42085266113281 15.72856521606445 41.92747116088867 14.51723480224609 41.00760269165039 C 12.02973556518555 39.12078094482422 10.35015487670898 36.34901428222656 9.54278564453125 35.01743316650391 C 9.447475433349609 34.85894012451172 9.36767578125 34.72762298583984 9.299526214599609 34.62011337280273 C 8.615165710449219 33.92689514160156 8.020023345947266 33.19766235351562 7.598884582519531 32.44459533691406 C 6.929492950439453 31.24711227416992 5.892715454101562 29.23948287963867 3.962116241455078 25.46307182312012 C 1.052352905273438 19.76769256591797 1.733024597167969 16.12095260620117 3.430885314941406 9.7750244140625 C 3.383884429931641 8.785194396972656 3.693225860595703 8.033843994140625 4.094181060791016 8.033843994140625 Z M 25.72328758239746 27.79561996459961 C 23.84110450744629 27.79561996459961 22.27255249023438 26.44248008728027 20.77838516235352 23.59342193603516 C 20.53400421142578 23.12685203552246 19.54931640625 22.62369346618652 18.32468414306641 22.58878326416016 C 18.28532791137695 22.58763694763184 18.24287033081055 22.58695220947266 18.19747161865234 22.58695411682129 C 17.40803909301758 22.58696556091309 15.75003814697266 22.79423522949219 14.79374313354492 24.39138221740723 C 14.02294540405273 25.67863273620605 13.73202514648438 29.71881294250488 16.80968475341797 32.85243225097656 C 17.90963363647461 33.97178268432617 20.45753479003906 35.62753295898438 20.86260604858398 35.94671249389648 C 24.08987426757812 37.5054817199707 26.01216506958008 38.64700317382812 26.68100547790527 39.15292358398438 C 26.90154457092285 39.31861114501953 27.17141532897949 39.61174392700195 27.40026473999023 39.97581481933594 C 27.62967491149902 39.61174392700195 27.90009498596191 39.31861114501953 28.12119483947754 39.15181350708008 C 28.78726387023926 38.64755249023438 30.70954513549805 37.50604248046875 33.93515396118164 35.94671249389648 C 34.34022521972656 35.62753295898438 36.42598724365234 33.97233200073242 37.52649688720703 32.85243225097656 C 40.60359573364258 29.71936225891113 40.77592468261719 25.67863273620605 40.00457382202148 24.39138221740723 C 39.04651641845703 22.79147148132324 37.38112258911133 22.58712196350098 36.59565734863281 22.58712196350098 C 36.55246734619141 22.58712196350098 36.51180267333984 22.58774375915527 36.47419738769531 22.58878326416016 C 35.24900436401367 22.62314224243164 33.94955444335938 22.77996253967285 33.70463562011719 23.24654197692871 C 32.16506576538086 26.1843204498291 30.75270843505859 27.75931358337402 28.87008857727051 27.75931358337402 C 28.4352912902832 27.75931358337402 27.97512054443359 27.67520713806152 27.48283386230469 27.50449180603027 C 27.45346450805664 27.49452209472656 27.42742538452148 27.47734260559082 27.3991641998291 27.46515274047852 C 27.37089538574219 27.47734260559082 27.3448543548584 27.49396324157715 27.31548500061035 27.50449180603027 C 26.75890731811523 27.69765663146973 26.22977066040039 27.79561996459961 25.72328758239746 27.79561996459961 Z M 13.85005569458008 38.14274215698242 C 14.35708618164062 38.69133377075195 14.91399383544922 39.22052383422852 15.52298355102539 39.68212127685547 C 15.77400588989258 39.87273406982422 18.07864379882812 41.58556365966797 21.71985626220703 43.06344223022461 C 22.00705718994141 43.1800651550293 22.27952575683594 43.22755813598633 22.53354263305664 43.22755813598633 C 22.7804069519043 43.22755813598633 23.00984382629395 43.18267440795898 23.21822547912598 43.11276245117188 C 20.5262565612793 42.15799331665039 17.45580291748047 40.24013137817383 17.40925598144531 40.21076202392578 C 17.30230331420898 40.14426422119141 17.09395599365234 40.03011322021484 16.80968475341797 39.8733024597168 C 16.12366485595703 39.49427032470703 15.04421615600586 38.8963623046875 13.85005569458008 38.14274215698242 Z M 32.26628112792969 43.22763061523438 C 32.52043151855469 43.22763061523438 32.79302597045898 43.18013381958008 33.08012390136719 43.06344223022461 C 36.72465515136719 41.58445358276367 39.02652359008789 39.87274169921875 39.27699279785156 39.68267059326172 C 39.88542556762695 39.22052383422852 40.44233703613281 38.6918830871582 40.94881439208984 38.14384460449219 C 39.75521469116211 38.8974609375 38.67631530761719 39.49482345581055 37.99029541015625 39.87384033203125 C 37.70547485351562 40.03066253662109 37.49711608886719 40.14481353759766 37.39072418212891 40.21187210083008 C 37.34418487548828 40.24013137817383 34.27372741699219 42.15798187255859 31.58175468444824 43.11330413818359 C 31.7902774810791 43.18290710449219 32.01959228515625 43.22763061523438 32.26628112792969 43.22763061523438 Z"/></g></g></g></g></svg>