<svg xmlns="http://www.w3.org/2000/svg" width="592.058" height="397.936" viewBox="0 0 592.058 397.936"><defs><style>.a{fill:#f786be;}.b{fill:#f9a485;}.c{fill:#c0cad7;opacity:0.8;}.d{fill:#bfc9d6;opacity:0.5;}.e{fill:#1e3057;opacity:0.3;}.f{fill:#fff085;}.g{fill:#83b4ff;}.h{fill:#c4e36a;}.i{fill:#002b5e;opacity:0.43;}.j{fill:#1c203e;}.k{fill:#1c1f3d;}.l{fill:#f9c185;}</style></defs><g transform="translate(-250.231 0.004)"><path class="a" d="M277.83,7.87H413.545a8.37,8.37,0,1,1,0,16.74H277.83Z" transform="translate(144.973 4.109)"/><path class="b" d="M389.73,37.04H525.445a8.37,8.37,0,1,1,0,16.74H389.73Z" transform="translate(203.363 19.33)"/><path class="c" d="M437.07,157.07H572.785a8.372,8.372,0,0,1,3.231,16.095,8.067,8.067,0,0,1-3.231.645H437.07Z" transform="translate(228.066 81.962)"/><g transform="translate(0 -0.004)"><path class="d" d="M389.051,1803.12c3.652-10.972,10.622-20.225,17.486-30.588-5.326.244-9.922.776-14.487.624-13.742-.472-24.5-5.9-29.888-19.327-.852-2.1-2.891-4.946,1.141-6.818,2.222,4.139,3.9,8.461,6.559,12.022,6.437,8.614,16.025,10.486,25.932,10.074,20.408-.852,38.639-8.188,55.82-19.038,16.116-10.2,31.9-21.518,51-25.49,11.094-2.313,22.538-3.028,33.86-4.185,18.87-1.917,37.771-3.409,56.611-5.57,4.52-.517,8.887-2.831,13.209-4.581,4.124-1.674,5.433-5.676,3.865-9.055a10.712,10.712,0,0,0-7.472-5.235c-7.64-.67-15.385.046-23.086-.152-20.438-.548-40.876-1.263-61.314-1.979-1.233-.046-2.907-.182-3.576-.974a24.148,24.148,0,0,1-4.078-6.6c-.137-.35,2.846-2.161,4.52-3,6.924-3.424,13.818-6.879,20.864-10.029,14.655-6.574,29.477-12.752,44.056-19.479,9.253-4.261,18.353-8.887,27.195-13.97,7.776-4.474,15.933-8.355,23.634-12.981,5.8-3.485,6.437-6.8,3.181-13.149-2.541-4.961-8.492-7.518-13.209-5.509-15.248,6.483-30.345,13.331-45.73,19.464-16.679,6.65-33.541,12.829-50.463,18.825-6.422,2.283-7.639,1.4-8.75-2.344,9.177-5.676,18.4-10.8,27-16.846,14.594-10.242,28.564-21.351,43.2-31.516,9.45-6.559,19.692-11.977,29.462-18.094,3.972-2.481,8.522-4.718,8.826-10.409.2-3.835-.5-7.609-3.865-9.694-4.657-2.876-9.785-2.587-14.579-.076-14.792,7.746-29.843,15.035-44.163,23.573-15.142,9.025-29.508,19.342-44.3,28.991a114.807,114.807,0,0,1-13.529,7.777c-1.537.73-5.189.289-5.6-.624-.928-2.085-1.476-5.539-.35-7.122a188,188,0,0,1,13.377-15.994c10.135-11.261,20.316-22.492,30.664-33.571,7.335-7.853,15.066-15.34,22.462-23.131a41.355,41.355,0,0,0,6.909-8.918c3.82-7.35.259-12.54-7.959-12.6-7.061-.046-12.388,3.911-17.333,7.837-14.2,11.292-28.245,22.842-41.8,34.9-9.085,8.081-16.892,17.592-25.916,25.734-9.481,8.552-19.723,16.253-29.66,24.3-7.655,6.209-15.385,12.981-25.186,14.777a10.518,10.518,0,0,0-3.85,1.248c-.67,2.572.837,3.713,4.307,4.839a26.816,26.816,0,0,1-17.881-3.865c-6.863-4.124-8.766-10.637-7.442-18.079,2.359-13.27,5.235-26.464,7.548-39.75,2.131-12.281,1.689-24.3-5.418-35.245a16.813,16.813,0,0,0-14.122-8.187c-2.511-.091-4.87.548-5.661,3.881-4.474,18.657-9.709,37.147-13.529,55.926-3.15,15.477-9.237,29.828-14.244,44.619-5.889,17.394-12.692,34.636-13.559,53.324-.472,10.1,2.694,19.3,7.594,27.971a14.409,14.409,0,0,1,1.735,3.363,8.352,8.352,0,0,1-.3,2.952c-1.05-.4-2.5-.487-3.059-1.248-1.811-2.465-3.3-5.159-5.326-8.461-2.48,5.981-4.322,11.185-6.742,16.1-5.935,12.1-11.383,24.5-20.484,34.728-.837.944-2.45,1.172-3.713,1.735.167-1.43-.2-3.3.578-4.23,12.357-15.035,19.449-32.856,26.845-50.509a9.958,9.958,0,0,0,.791-5.92c-3.82-14.168-2.024-27.864,2.648-41.484,6.392-18.627,12.707-37.284,18.642-56.063,3.47-10.972,5.007-22.553,8.507-33.51a311.655,311.655,0,0,0,9.268-38.684c1.065-5.783,4.885-9.04,10.942-8.6,10.348.746,16.07,7.32,19.905,16.086,5.326,12.144,4.383,24.592,1.857,37.208-2.526,12.585-4.885,25.216-6.6,37.938-.944,7,1.583,9.085,8.568,9.42,9.45.457,17.638-3.2,25.095-8.339,8.842-6.1,17.546-12.479,25.795-19.342,7.761-6.452,14.822-13.757,22.264-20.59,13.133-12.053,26.114-24.288,39.552-35.991A296.747,296.747,0,0,1,550.621,1516c3.561-2.45,8.446-3.485,12.875-4.018,4.535-.548,9.344.183,11.87,5.083,2.648,5.129,2.435,10.364-1.157,14.746-5.8,7.076-12.007,13.848-18.231,20.56-8.811,9.511-17.836,18.825-26.708,28.26-7.563,8.05-15.218,16.04-22.462,24.379-2.161,2.5-6.178,4.49-4.931,10.394,7.061-4.84,13.255-9.375,19.723-13.483,16.39-10.379,32.7-20.879,49.413-30.695,11.383-6.681,23.375-12.342,35.169-18.353,5.357-2.724,13.194-1.507,17.516,1.979,5.813,4.687,6.528,11.748,3.667,16.74-2.572,4.489-7.594,7.868-12.114,10.881-8.537,5.677-17.775,10.287-26.175,16.146-10.729,7.488-20.788,15.949-31.395,23.649-7.518,5.463-15.446,10.349-22.949,16.344,5.57-1.948,11.2-3.728,16.679-5.874,13.255-5.174,26.495-10.394,39.658-15.827,9.892-4.079,19.586-8.644,29.447-12.768,6.1-2.557,14.229,1.461,17.7,8.4,3.607,7.2,2.572,12.874-4.048,16.877-8.613,5.2-17.516,9.983-26.479,14.594-16.512,8.491-33.023,16.968-49.778,24.957-9.116,4.337-18.779,7.488-28.062,11.505-4.687,2.024-9.055,4.794-13.574,7.228.137.792.122.776.259,1.568,2.815.456,5.631,1.293,8.446,1.324,24.562.2,49.124-.061,73.671.487,10.242.228,18.17,4.611,15.583,16.085-1.035,4.581-4.535,6.726-8.385,8.294-12.631,5.174-26.038,5.935-39.46,7.015-20.8,1.689-41.652,3.44-62.318,6.285-14.442,1.994-26.6,10.242-38.867,17.759-15.553,9.542-30.969,19.175-48.865,24.334-4.672,1.339-8.461,7.3-11.642,11.855-4.139,5.92-7.213,12.57-10.927,18.81-.685,1.157-2.222,1.8-3.363,2.678C389.964,1803.8,389.507,1803.47,389.051,1803.12Z" transform="translate(-59.199 -1406.263)"/><path class="e" d="M377.848,1643.322c-.015-9.329-1.1-18.84-2.054-28.123a59.761,59.761,0,0,1,.183-14.183c.624-4.642.913-9.922,3.47-13.955.046-.046-.183-.122-.213-.076-4.063,5.463-5.326,14.853-5.463,21.5-.183,8.659,1.446,17.562,1.948,26.205.533,9.3.761,18.079-2.6,26.921-3.181,8.324-8.979,17.3-17.683,20.468-.137.046.167.183.259.167C371.03,1677.654,377.848,1657.612,377.848,1643.322Z" transform="translate(-35.214 -1367.053)"/><path class="e" d="M453.829,1662.066c-3.713-14.914-9.268-29.812-17.409-42.809a209.6,209.6,0,0,0-17.653-23.421c-4.763-5.661-10.227-10.181-15.446-15.264-.061-.046-.244-.061-.152.015,4.809,5.129,10.014,9.74,14.564,15.2a265.7,265.7,0,0,1,16.238,21.534c9.739,14.518,15.446,34.225,20.042,51.026C454.027,1666.251,453.936,1664.151,453.829,1662.066Z" transform="translate(-10.299 -1370.412)"/><path class="a" d="M365.833,1536.578l-1.72-10.257a9.074,9.074,0,0,1,7.32-10.424,8.828,8.828,0,0,1,10.348,6.97c.015.046.015.106.03.152l1.72,10.257.959,5.478,3.987,28.169a9.086,9.086,0,0,1-7.32,10.424,8.828,8.828,0,0,1-10.348-6.97c-.015-.046-.015-.106-.03-.152l-3.972-28.169Z" transform="translate(-30.731 -1404.226)"/><path class="b" d="M469.086,1521.065l7.107-7.594a9.1,9.1,0,0,1,12.722-.517,8.815,8.815,0,0,1,.731,12.448c-.03.046-.076.076-.107.122l-7.107,7.594-3.774,4.079-19.981,20.255a9.1,9.1,0,0,1-12.722.517,8.814,8.814,0,0,1-.73-12.448c.03-.046.076-.076.106-.122l19.966-20.255Z" transform="translate(10.495 -1406.9)"/><path class="f" d="M507.575,1543.785l8.629-5.8a9.087,9.087,0,0,1,12.509,2.359,8.821,8.821,0,0,1-2.085,12.3.86.86,0,0,0-.122.091l-8.629,5.8-4.6,3.135-24.014,15.249a9.088,9.088,0,0,1-12.509-2.359,8.821,8.821,0,0,1,2.085-12.3.814.814,0,0,0,.122-.091l24.014-15.249Z" transform="translate(27.264 -1393.415)"/><path class="g" d="M503.9,1626.37l10.272-1.613a9.087,9.087,0,0,1,10.348,7.427,8.827,8.827,0,0,1-7.092,10.272c-.046.015-.107.015-.152.03l-10.272,1.614-5.494.9L473.3,1648.68a9.087,9.087,0,0,1-10.348-7.427,8.826,8.826,0,0,1,7.092-10.272c.046-.015.106-.015.152-.03l28.214-3.683Z" transform="translate(20.832 -1347.393)"/><path class="h" d="M518.394,1574.216l9.74-3.668a9.072,9.072,0,0,1,11.627,5.174,8.815,8.815,0,0,1-4.855,11.49,1.627,1.627,0,0,1-.152.061l-9.74,3.668-5.2,1.994-26.89,9.328a9.072,9.072,0,0,1-11.627-5.174,8.815,8.815,0,0,1,4.855-11.49,1.581,1.581,0,0,1,.152-.061l26.875-9.329Z" transform="translate(30.141 -1375.924)"/><path class="i" d="M389.051,1803.12c3.652-10.972,10.622-20.225,17.486-30.588-5.326.244-9.922.776-14.487.624-13.742-.472-24.5-5.9-29.888-19.327-.852-2.1-2.891-4.946,1.141-6.818,2.222,4.139,3.9,8.461,6.559,12.022,6.437,8.614,16.025,10.486,25.932,10.074,20.408-.852,38.639-8.188,55.82-19.038,16.116-10.2,31.9-21.518,51-25.49,11.094-2.313,22.538-3.028,33.86-4.185,18.87-1.917,37.771-3.409,56.611-5.57,4.52-.517,8.887-2.831,13.209-4.581,4.124-1.674,5.433-5.676,3.865-9.055a10.712,10.712,0,0,0-7.472-5.235c-7.64-.67-15.385.046-23.086-.152-20.438-.548-40.876-1.263-61.314-1.979-1.233-.046-2.907-.182-3.576-.974a24.148,24.148,0,0,1-4.078-6.6c-.137-.35,2.846-2.161,4.52-3,6.924-3.424,13.818-6.879,20.864-10.029,14.655-6.574,29.477-12.752,44.056-19.479,9.253-4.261,18.353-8.887,27.195-13.97,7.776-4.474,15.933-8.355,23.634-12.981,5.8-3.485,6.437-6.8,3.181-13.149-2.541-4.961-8.492-7.518-13.209-5.509-15.248,6.483-30.345,13.331-45.73,19.464-16.679,6.65-33.541,12.829-50.463,18.825-6.422,2.283-7.639,1.4-8.75-2.344,9.177-5.676,18.4-10.8,27-16.846,14.594-10.242,28.564-21.351,43.2-31.516,9.45-6.559,19.692-11.977,29.462-18.094,3.972-2.481,8.522-4.718,8.826-10.409.2-3.835-.5-7.609-3.865-9.694-4.657-2.876-9.785-2.587-14.579-.076-14.792,7.746-29.843,15.035-44.163,23.573-15.142,9.025-29.508,19.342-44.3,28.991a114.807,114.807,0,0,1-13.529,7.777c-1.537.73-5.189.289-5.6-.624-.928-2.085-1.476-5.539-.35-7.122a188,188,0,0,1,13.377-15.994c10.135-11.261,20.316-22.492,30.664-33.571,7.335-7.853,15.066-15.34,22.462-23.131a41.355,41.355,0,0,0,6.909-8.918c3.82-7.35.259-12.54-7.959-12.6-7.061-.046-12.388,3.911-17.333,7.837-14.2,11.292-28.245,22.842-41.8,34.9-9.085,8.081-16.892,17.592-25.916,25.734-9.481,8.552-19.723,16.253-29.66,24.3-7.655,6.209-15.385,12.981-25.186,14.777a10.518,10.518,0,0,0-3.85,1.248c-.67,2.572.837,3.713,4.307,4.839a26.816,26.816,0,0,1-17.881-3.865c-6.863-4.124-8.766-10.637-7.442-18.079,2.359-13.27,5.235-26.464,7.548-39.75,2.131-12.281,1.689-24.3-5.418-35.245a16.813,16.813,0,0,0-14.122-8.187c-2.511-.091-4.87.548-5.661,3.881-4.474,18.657-9.709,37.147-13.529,55.926-3.15,15.477-9.237,29.828-14.244,44.619-5.889,17.394-12.692,34.636-13.559,53.324-.472,10.1,2.694,19.3,7.594,27.971a14.409,14.409,0,0,1,1.735,3.363,8.352,8.352,0,0,1-.3,2.952c-1.05-.4-2.5-.487-3.059-1.248-1.811-2.465-3.3-5.159-5.326-8.461-2.48,5.981-4.322,11.185-6.742,16.1-5.935,12.1-11.383,24.5-20.484,34.728-.837.944-2.45,1.172-3.713,1.735.167-1.43-.2-3.3.578-4.23,12.357-15.035,19.449-32.856,26.845-50.509a9.958,9.958,0,0,0,.791-5.92c-3.82-14.168-2.024-27.864,2.648-41.484,6.392-18.627,12.707-37.284,18.642-56.063,3.47-10.972,5.007-22.553,8.507-33.51a311.655,311.655,0,0,0,9.268-38.684c1.065-5.783,4.885-9.04,10.942-8.6,10.348.746,16.07,7.32,19.905,16.086,5.326,12.144,4.383,24.592,1.857,37.208-2.526,12.585-4.885,25.216-6.6,37.938-.944,7,1.583,9.085,8.568,9.42,9.45.457,17.638-3.2,25.095-8.339,8.842-6.1,17.546-12.479,25.795-19.342,7.761-6.452,14.822-13.757,22.264-20.59,13.133-12.053,26.114-24.288,39.552-35.991A296.747,296.747,0,0,1,550.621,1516c3.561-2.45,8.446-3.485,12.875-4.018,4.535-.548,9.344.183,11.87,5.083,2.648,5.129,2.435,10.364-1.157,14.746-5.8,7.076-12.007,13.848-18.231,20.56-8.811,9.511-17.836,18.825-26.708,28.26-7.563,8.05-15.218,16.04-22.462,24.379-2.161,2.5-6.178,4.49-4.931,10.394,7.061-4.84,13.255-9.375,19.723-13.483,16.39-10.379,32.7-20.879,49.413-30.695,11.383-6.681,23.375-12.342,35.169-18.353,5.357-2.724,13.194-1.507,17.516,1.979,5.813,4.687,6.528,11.748,3.667,16.74-2.572,4.489-7.594,7.868-12.114,10.881-8.537,5.677-17.775,10.287-26.175,16.146-10.729,7.488-20.788,15.949-31.395,23.649-7.518,5.463-15.446,10.349-22.949,16.344,5.57-1.948,11.2-3.728,16.679-5.874,13.255-5.174,26.495-10.394,39.658-15.827,9.892-4.079,19.586-8.644,29.447-12.768,6.1-2.557,14.229,1.461,17.7,8.4,3.607,7.2,2.572,12.874-4.048,16.877-8.613,5.2-17.516,9.983-26.479,14.594-16.512,8.491-33.023,16.968-49.778,24.957-9.116,4.337-18.779,7.488-28.062,11.505-4.687,2.024-9.055,4.794-13.574,7.228.137.792.122.776.259,1.568,2.815.456,5.631,1.293,8.446,1.324,24.562.2,49.124-.061,73.671.487,10.242.228,18.17,4.611,15.583,16.085-1.035,4.581-4.535,6.726-8.385,8.294-12.631,5.174-26.038,5.935-39.46,7.015-20.8,1.689-41.652,3.44-62.318,6.285-14.442,1.994-26.6,10.242-38.867,17.759-15.553,9.542-30.969,19.175-48.865,24.334-4.672,1.339-8.461,7.3-11.642,11.855-4.139,5.92-7.213,12.57-10.927,18.81-.685,1.157-2.222,1.8-3.363,2.678C389.964,1803.8,389.507,1803.47,389.051,1803.12Z" transform="translate(-59.199 -1406.263)"/><g transform="translate(421.721 0)"><g transform="translate(20.014 53.157)"><path class="j" d="M-266.649,214.935h-2.115v-.974h-.03a2.216,2.216,0,0,1-.365.411,3.5,3.5,0,0,1-.517.38,3.674,3.674,0,0,1-.654.274,2.455,2.455,0,0,1-.746.107,3.623,3.623,0,0,1-1.491-.289,3.4,3.4,0,0,1-1.157-.791,3.64,3.64,0,0,1-.746-1.217,4.588,4.588,0,0,1-.259-1.537,4.441,4.441,0,0,1,.243-1.491,4.018,4.018,0,0,1,.67-1.263,3.344,3.344,0,0,1,1.065-.883,3.082,3.082,0,0,1,1.415-.335,3.869,3.869,0,0,1,1.339.228,2.183,2.183,0,0,1,1.02.761h.03V203.4h2.3Zm-2.115-3.713a1.893,1.893,0,0,0-.487-1.354,1.8,1.8,0,0,0-1.354-.517,1.744,1.744,0,0,0-1.354.517,1.944,1.944,0,0,0-.487,1.354,1.893,1.893,0,0,0,.487,1.354,1.8,1.8,0,0,0,1.354.517,1.744,1.744,0,0,0,1.354-.517A1.918,1.918,0,0,0-268.765,211.222Z" transform="translate(274.73 -203.385)"/><path class="j" d="M-261.116,212.3a3.573,3.573,0,0,1-1.385,1.08,4.1,4.1,0,0,1-1.735.38,4.664,4.664,0,0,1-1.613-.274,3.68,3.68,0,0,1-1.309-.791,3.648,3.648,0,0,1-.883-1.233,3.944,3.944,0,0,1-.32-1.6,3.842,3.842,0,0,1,.32-1.6,3.742,3.742,0,0,1,.883-1.233,3.913,3.913,0,0,1,1.309-.791,4.662,4.662,0,0,1,1.613-.274,3.708,3.708,0,0,1,1.446.274,2.861,2.861,0,0,1,1.1.791,3.48,3.48,0,0,1,.7,1.233,4.825,4.825,0,0,1,.243,1.6v.715h-5.326a1.811,1.811,0,0,0,.594,1.05,1.694,1.694,0,0,0,1.126.4,1.731,1.731,0,0,0,.959-.259,2.533,2.533,0,0,0,.685-.654Zm-1.948-3.272a1.329,1.329,0,0,0-.38-.989,1.353,1.353,0,0,0-1.02-.411,1.812,1.812,0,0,0-.67.122,1.42,1.42,0,0,0-.5.32,1.315,1.315,0,0,0-.32.441,1.619,1.619,0,0,0-.137.533h3.028Z" transform="translate(278.054 -202.044)"/><path class="j" d="M-258.1,208.344a1.631,1.631,0,0,0-1.324-.624,1.23,1.23,0,0,0-.563.137.48.48,0,0,0-.274.472.432.432,0,0,0,.289.411,3.046,3.046,0,0,0,.715.228c.289.061.609.137.928.213a3.281,3.281,0,0,1,.928.365,2.009,2.009,0,0,1,.715.67,2.055,2.055,0,0,1,.289,1.126,2.093,2.093,0,0,1-.32,1.187,2.37,2.37,0,0,1-.806.746,3.612,3.612,0,0,1-1.1.4,6.574,6.574,0,0,1-1.2.122,5.582,5.582,0,0,1-1.567-.228,2.916,2.916,0,0,1-1.339-.791l1.385-1.537a2.425,2.425,0,0,0,.715.609,1.927,1.927,0,0,0,.913.213,1.813,1.813,0,0,0,.715-.122.433.433,0,0,0,.32-.426.47.47,0,0,0-.289-.441,3,3,0,0,0-.715-.243c-.289-.061-.594-.137-.928-.213a3.775,3.775,0,0,1-.928-.35,1.843,1.843,0,0,1-.715-.654,2.054,2.054,0,0,1-.289-1.126,2.167,2.167,0,0,1,.274-1.126,2.448,2.448,0,0,1,.7-.776,3.375,3.375,0,0,1,1-.457,4.9,4.9,0,0,1,1.141-.152,5.5,5.5,0,0,1,1.476.213,2.7,2.7,0,0,1,1.263.761Z" transform="translate(280.992 -202.044)"/><path class="j" d="M-254.81,203.39h2.3v11.55h-2.3Z" transform="translate(285.124 -203.39)"/><path class="j" d="M-252.32,205.019a1.3,1.3,0,0,1,.4-.944,1.3,1.3,0,0,1,.944-.4,1.3,1.3,0,0,1,.944.4,1.3,1.3,0,0,1,.4.944,1.243,1.243,0,0,1-.4.944,1.325,1.325,0,0,1-.944.4,1.3,1.3,0,0,1-.944-.4A1.243,1.243,0,0,1-252.32,205.019Zm.183,2.344h2.3v7.426h-2.3Z" transform="translate(286.424 -203.239)"/><path class="j" d="M-242.506,212.3a3.573,3.573,0,0,1-1.385,1.08,4.1,4.1,0,0,1-1.735.38,4.664,4.664,0,0,1-1.613-.274,3.68,3.68,0,0,1-1.309-.791,3.647,3.647,0,0,1-.883-1.233,3.942,3.942,0,0,1-.32-1.6,3.841,3.841,0,0,1,.32-1.6,3.741,3.741,0,0,1,.883-1.233,3.914,3.914,0,0,1,1.309-.791,4.663,4.663,0,0,1,1.613-.274,3.708,3.708,0,0,1,1.446.274,2.861,2.861,0,0,1,1.1.791,3.481,3.481,0,0,1,.7,1.233,4.824,4.824,0,0,1,.243,1.6v.715h-5.326a1.811,1.811,0,0,0,.594,1.05,1.694,1.694,0,0,0,1.126.4,1.731,1.731,0,0,0,.959-.259,2.533,2.533,0,0,0,.685-.654Zm-1.948-3.272a1.329,1.329,0,0,0-.38-.989,1.353,1.353,0,0,0-1.02-.411,1.812,1.812,0,0,0-.67.122,1.42,1.42,0,0,0-.5.32,1.316,1.316,0,0,0-.32.441,1.618,1.618,0,0,0-.137.533h3.028Z" transform="translate(287.765 -202.044)"/><path class="j" d="M-236.692,213.526H-238.9v-1h-.03a1.944,1.944,0,0,1-.32.426,1.988,1.988,0,0,1-.472.38,3.353,3.353,0,0,1-.624.274,2.422,2.422,0,0,1-.761.107,3.168,3.168,0,0,1-1.415-.274,2,2,0,0,1-.837-.746,2.841,2.841,0,0,1-.4-1.111,9.85,9.85,0,0,1-.107-1.385V206.1h2.3v3.637c0,.213.015.441.03.67a2.172,2.172,0,0,0,.137.639,1.1,1.1,0,0,0,.35.472,1.082,1.082,0,0,0,.685.183,1.42,1.42,0,0,0,.715-.167,1.145,1.145,0,0,0,.426-.426,1.581,1.581,0,0,0,.183-.609,5.232,5.232,0,0,0,.046-.7v-3.7h2.3v7.426Z" transform="translate(290.838 -201.976)"/><path class="j" d="M-235.758,209.554l-2.481-3.455h2.709l1.309,2.024,1.263-2.024h2.557l-2.42,3.455,2.861,3.972h-2.709l-1.613-2.481-1.75,2.481h-2.678Z" transform="translate(293.525 -201.976)"/></g><g transform="translate(20.014 72.864)"><path class="j" d="M-266.649,227.9h-2.115v-.974h-.03a2.214,2.214,0,0,1-.365.411,3.5,3.5,0,0,1-.517.38,3.672,3.672,0,0,1-.654.274,2.457,2.457,0,0,1-.746.107,3.623,3.623,0,0,1-1.491-.289,3.4,3.4,0,0,1-1.157-.791,3.64,3.64,0,0,1-.746-1.217,4.588,4.588,0,0,1-.259-1.537,4.441,4.441,0,0,1,.243-1.491,4.017,4.017,0,0,1,.67-1.263,3.344,3.344,0,0,1,1.065-.883,3.082,3.082,0,0,1,1.415-.335,3.869,3.869,0,0,1,1.339.228,2.183,2.183,0,0,1,1.02.761h.03V216.36h2.3Zm-2.115-3.713a1.892,1.892,0,0,0-.487-1.354,1.8,1.8,0,0,0-1.354-.517,1.744,1.744,0,0,0-1.354.517,1.944,1.944,0,0,0-.487,1.354,1.893,1.893,0,0,0,.487,1.354,1.8,1.8,0,0,0,1.354.517,1.745,1.745,0,0,0,1.354-.517A1.944,1.944,0,0,0-268.765,224.182Z" transform="translate(274.73 -216.33)"/><path class="j" d="M-261.116,225.261a3.573,3.573,0,0,1-1.385,1.08,4.1,4.1,0,0,1-1.735.38,4.663,4.663,0,0,1-1.613-.274,3.681,3.681,0,0,1-1.309-.791,3.648,3.648,0,0,1-.883-1.233,3.944,3.944,0,0,1-.32-1.6,3.842,3.842,0,0,1,.32-1.6,3.741,3.741,0,0,1,.883-1.233,3.914,3.914,0,0,1,1.309-.791,4.664,4.664,0,0,1,1.613-.274,3.709,3.709,0,0,1,1.446.274,2.861,2.861,0,0,1,1.1.791,3.48,3.48,0,0,1,.7,1.233,4.825,4.825,0,0,1,.243,1.6v.715h-5.326a1.811,1.811,0,0,0,.594,1.05,1.694,1.694,0,0,0,1.126.4,1.732,1.732,0,0,0,.959-.259,2.533,2.533,0,0,0,.685-.654Zm-1.948-3.272a1.329,1.329,0,0,0-.38-.989,1.353,1.353,0,0,0-1.02-.411,1.812,1.812,0,0,0-.67.122,1.42,1.42,0,0,0-.5.32,1.314,1.314,0,0,0-.32.441,1.619,1.619,0,0,0-.137.533h3.028Z" transform="translate(278.054 -214.989)"/><path class="j" d="M-259.34,216.34h2.3v4.915h.03a2.208,2.208,0,0,1,1.02-.761,3.806,3.806,0,0,1,1.339-.228,2.862,2.862,0,0,1,1.415.335,3.311,3.311,0,0,1,1.065.883,4.018,4.018,0,0,1,.67,1.263,4.861,4.861,0,0,1,.243,1.491,4.46,4.46,0,0,1-.259,1.537,3.55,3.55,0,0,1-.746,1.217,3.078,3.078,0,0,1-1.157.791,3.888,3.888,0,0,1-1.491.289,2.388,2.388,0,0,1-.746-.107,4.219,4.219,0,0,1-.654-.274,2.675,2.675,0,0,1-.517-.38,2.215,2.215,0,0,1-.365-.411h-.03v.974h-2.115V216.34Zm2.1,7.853a1.893,1.893,0,0,0,.487,1.354,1.8,1.8,0,0,0,1.354.517,1.744,1.744,0,0,0,1.354-.517,1.944,1.944,0,0,0,.487-1.354,1.893,1.893,0,0,0-.487-1.354,1.744,1.744,0,0,0-1.354-.517,1.744,1.744,0,0,0-1.354.517A1.918,1.918,0,0,0-257.24,224.193Z" transform="translate(282.761 -216.34)"/><path class="j" d="M-248.363,225.616h-.03a2.136,2.136,0,0,1-1.02.852,3.616,3.616,0,0,1-1.339.259,3.15,3.15,0,0,1-1-.152,2.393,2.393,0,0,1-.852-.441,2.037,2.037,0,0,1-.578-.715,2.3,2.3,0,0,1-.213-.989,2.142,2.142,0,0,1,.243-1.081,2.1,2.1,0,0,1,.639-.73,3.109,3.109,0,0,1,.928-.457,7.991,7.991,0,0,1,1.081-.243c.365-.046.746-.076,1.111-.091s.715-.015,1.035-.015a1.165,1.165,0,0,0-.441-.974,1.564,1.564,0,0,0-1.035-.365,2.162,2.162,0,0,0-1.035.243,2.845,2.845,0,0,0-.837.654l-1.217-1.248a4.251,4.251,0,0,1,1.491-.9,5.337,5.337,0,0,1,1.781-.3,4.684,4.684,0,0,1,1.659.259,2.279,2.279,0,0,1,1.035.746,2.919,2.919,0,0,1,.548,1.2,7.551,7.551,0,0,1,.152,1.644v3.774h-2.115v-.928Zm-.578-2.313c-.167,0-.4.015-.654.03a3.071,3.071,0,0,0-.746.137,1.778,1.778,0,0,0-.609.32.728.728,0,0,0-.259.594.667.667,0,0,0,.35.609,1.427,1.427,0,0,0,.73.2,2.344,2.344,0,0,0,.654-.091,2.123,2.123,0,0,0,.563-.259,1.326,1.326,0,0,0,.4-.426,1.283,1.283,0,0,0,.137-.609v-.487h-.563Z" transform="translate(285.86 -214.994)"/><path class="j" d="M-243.414,221.3a1.63,1.63,0,0,0-1.324-.624,1.23,1.23,0,0,0-.563.137.48.48,0,0,0-.274.472.432.432,0,0,0,.289.411,3.044,3.044,0,0,0,.715.228c.289.061.609.137.928.213a3.28,3.28,0,0,1,.928.365,2.01,2.01,0,0,1,.715.67,2.055,2.055,0,0,1,.289,1.126,2.094,2.094,0,0,1-.32,1.187,2.37,2.37,0,0,1-.807.746,3.612,3.612,0,0,1-1.1.4,6.574,6.574,0,0,1-1.2.122,5.583,5.583,0,0,1-1.567-.228,2.916,2.916,0,0,1-1.339-.791l1.385-1.537a2.423,2.423,0,0,0,.715.609,1.927,1.927,0,0,0,.913.213,1.813,1.813,0,0,0,.715-.122.433.433,0,0,0,.32-.426.47.47,0,0,0-.289-.441,3,3,0,0,0-.715-.243c-.289-.061-.594-.137-.928-.213a3.774,3.774,0,0,1-.928-.35,1.843,1.843,0,0,1-.715-.654,2.055,2.055,0,0,1-.289-1.126,2.167,2.167,0,0,1,.274-1.126,2.448,2.448,0,0,1,.7-.776,3.375,3.375,0,0,1,1-.457,4.9,4.9,0,0,1,1.141-.152,5.5,5.5,0,0,1,1.476.213A2.7,2.7,0,0,1-242,219.9Z" transform="translate(288.657 -214.989)"/><path class="j" d="M-238,221.522a1.251,1.251,0,0,0-.472-.411,1.394,1.394,0,0,0-.654-.167,1.744,1.744,0,0,0-1.354.517,1.944,1.944,0,0,0-.487,1.354,1.892,1.892,0,0,0,.487,1.354,1.8,1.8,0,0,0,1.354.517,1.265,1.265,0,0,0,.654-.167,1.977,1.977,0,0,0,.472-.4l1.507,1.583a2.94,2.94,0,0,1-1.263.776,4.62,4.62,0,0,1-1.385.228,4.664,4.664,0,0,1-1.613-.274,3.681,3.681,0,0,1-1.309-.791,3.648,3.648,0,0,1-.883-1.233,3.944,3.944,0,0,1-.32-1.6,3.841,3.841,0,0,1,.32-1.6,3.741,3.741,0,0,1,.883-1.233,3.914,3.914,0,0,1,1.309-.791,4.664,4.664,0,0,1,1.613-.274,4.622,4.622,0,0,1,1.385.228,3.033,3.033,0,0,1,1.263.776Z" transform="translate(291.146 -214.994)"/><path class="j" d="M-231.112,226.486h-2.207v-1h-.03a1.946,1.946,0,0,1-.32.426,1.987,1.987,0,0,1-.472.38,3.355,3.355,0,0,1-.624.274,2.422,2.422,0,0,1-.761.107,3.167,3.167,0,0,1-1.415-.274,2,2,0,0,1-.837-.746,2.841,2.841,0,0,1-.4-1.111,9.844,9.844,0,0,1-.107-1.385V219.06h2.3V222.7c0,.213.015.441.03.67a2.172,2.172,0,0,0,.137.639,1.1,1.1,0,0,0,.35.472,1.082,1.082,0,0,0,.685.183,1.42,1.42,0,0,0,.715-.167,1.145,1.145,0,0,0,.426-.426,1.58,1.58,0,0,0,.183-.609,5.232,5.232,0,0,0,.046-.7v-3.7h2.3v7.426Z" transform="translate(293.75 -214.921)"/><path class="j" d="M-232.49,216.34h2.3v11.55h-2.3Z" transform="translate(296.771 -216.34)"/><path class="j" d="M-222.8,225.261a3.573,3.573,0,0,1-1.385,1.08,4.1,4.1,0,0,1-1.735.38,4.663,4.663,0,0,1-1.613-.274,3.681,3.681,0,0,1-1.309-.791,3.648,3.648,0,0,1-.883-1.233,3.943,3.943,0,0,1-.32-1.6,3.841,3.841,0,0,1,.32-1.6,3.74,3.74,0,0,1,.883-1.233,3.914,3.914,0,0,1,1.309-.791,4.664,4.664,0,0,1,1.613-.274,3.708,3.708,0,0,1,1.446.274,2.86,2.86,0,0,1,1.1.791,3.481,3.481,0,0,1,.7,1.233,4.824,4.824,0,0,1,.243,1.6v.715h-5.326a1.811,1.811,0,0,0,.594,1.05,1.694,1.694,0,0,0,1.126.4,1.731,1.731,0,0,0,.959-.259,2.533,2.533,0,0,0,.685-.654Zm-1.948-3.272a1.329,1.329,0,0,0-.38-.989,1.353,1.353,0,0,0-1.02-.411,1.812,1.812,0,0,0-.67.122,1.42,1.42,0,0,0-.5.32,1.315,1.315,0,0,0-.32.441,1.618,1.618,0,0,0-.137.533h3.028Z" transform="translate(298.049 -214.989)"/></g><g transform="translate(6.652 0)"><path class="k" d="M-271.838,175.908a3.553,3.553,0,0,0-1.309-1,4.469,4.469,0,0,0-1.811-.35,4.678,4.678,0,0,0-1.9.4,4.363,4.363,0,0,0-1.507,1.111,5.188,5.188,0,0,0-1,1.689,6,6,0,0,0-.365,2.115,5.963,5.963,0,0,0,.365,2.131,5.537,5.537,0,0,0,.989,1.674,4.776,4.776,0,0,0,1.476,1.111,4.326,4.326,0,0,0,1.826.4,4,4,0,0,0,1.978-.472,3.89,3.89,0,0,0,1.415-1.309l3.028,2.252a6.281,6.281,0,0,1-2.648,2.161,8.152,8.152,0,0,1-3.3.7,9.942,9.942,0,0,1-3.561-.609,8.428,8.428,0,0,1-2.815-1.735,7.869,7.869,0,0,1-1.857-2.739,9.323,9.323,0,0,1-.67-3.591,9.379,9.379,0,0,1,.67-3.591,8.013,8.013,0,0,1,1.857-2.739,7.966,7.966,0,0,1,2.815-1.735,9.942,9.942,0,0,1,3.561-.609,9.951,9.951,0,0,1,1.461.122,8.679,8.679,0,0,1,1.491.411,7.018,7.018,0,0,1,1.415.746,5.021,5.021,0,0,1,1.2,1.141Z" transform="translate(283.51 -167.051)"/><path class="k" d="M-272.44,171.46h6.376a11.061,11.061,0,0,1,2.389.243,5.777,5.777,0,0,1,1.978.822,4.15,4.15,0,0,1,1.354,1.537,5.163,5.163,0,0,1,.5,2.4,4.784,4.784,0,0,1-.913,2.968,4.121,4.121,0,0,1-2.648,1.552l4.185,6.97h-4.352l-3.439-6.589h-1.8v6.589h-3.637Zm3.622,6.833h2.146c.32,0,.67-.015,1.035-.03a3.257,3.257,0,0,0,.989-.213,1.855,1.855,0,0,0,.73-.548,1.628,1.628,0,0,0,.289-1.05,1.749,1.749,0,0,0-.259-1,1.838,1.838,0,0,0-.654-.578,2.681,2.681,0,0,0-.913-.274,7.439,7.439,0,0,0-1-.076h-2.374v3.774Z" transform="translate(289.286 -166.895)"/><path class="k" d="M-262.44,173.025h11.2v3.348H-258.8v3.074h7.153V182.8H-258.8v3.348h7.99v3.348H-262.44Zm5.555-4.565h4.748l-4.033,3.348h-3.074Z" transform="translate(294.504 -168.46)"/><path class="k" d="M-252.8,171.46h11.2v3.348h-7.563v3.074h7.152v3.348h-7.152v3.348h7.989v3.348H-252.8Z" transform="translate(299.535 -166.895)"/><path class="k" d="M-243.25,171.46h6.376a11.061,11.061,0,0,1,2.389.243,5.777,5.777,0,0,1,1.978.822,4.15,4.15,0,0,1,1.354,1.537,5.163,5.163,0,0,1,.5,2.4,4.784,4.784,0,0,1-.913,2.968,4.121,4.121,0,0,1-2.648,1.552l4.185,6.97h-4.352l-3.439-6.589h-1.8v6.589h-3.637v-16.5Zm3.637,6.833h2.146c.32,0,.67-.015,1.035-.03a3.257,3.257,0,0,0,.989-.213,1.854,1.854,0,0,0,.73-.548,1.628,1.628,0,0,0,.289-1.05,1.75,1.75,0,0,0-.259-1,1.839,1.839,0,0,0-.654-.578,2.681,2.681,0,0,0-.913-.274,7.441,7.441,0,0,0-1-.076h-2.374v3.774Z" transform="translate(304.518 -166.895)"/></g><g transform="translate(0 52.992)"><g transform="translate(0 10.046) rotate(-64.024)"><path class="a" d="M6.618,10.315,1.839.5A.906.906,0,0,0,.637.089h0L.5.15a.906.906,0,0,0-.411,1.2l4.778,9.816a.906.906,0,0,0,1.2.411h0l.137-.061a.877.877,0,0,0,.411-1.2" transform="translate(1.91 0)"/><path class="a" d="M8.162,2.44,1.238.051A.9.9,0,0,0,.1.614L.051.766A.9.9,0,0,0,.614,1.908L7.538,4.3A.9.9,0,0,0,8.68,3.734h0L8.725,3.6A.925.925,0,0,0,8.162,2.44" transform="translate(0 7.738)"/><path class="a" d="M.053,7.548,2.442.608A.908.908,0,0,1,3.583.045h0L3.72.091a.908.908,0,0,1,.563,1.141L1.894,8.172a.908.908,0,0,1-1.141.563h0L.6,8.689A.887.887,0,0,1,.053,7.548" transform="translate(6.846 3.255)"/></g></g></g><g transform="translate(591.502 48.135)"><g transform="translate(20.96 49.033)"><path class="j" d="M-121.85,238.31h2.3V249.86h-2.3Z" transform="translate(121.85 -238.31)"/><path class="j" d="M-117.437,243.1H-119.4l1.126-4.307h2.207Z" transform="translate(123.128 -238.06)"/><path class="j" d="M-109.186,247.231a3.573,3.573,0,0,1-1.385,1.081,4.1,4.1,0,0,1-1.735.38,4.663,4.663,0,0,1-1.613-.274,3.68,3.68,0,0,1-1.309-.791,3.647,3.647,0,0,1-.883-1.233,3.943,3.943,0,0,1-.32-1.6,3.841,3.841,0,0,1,.32-1.6,3.741,3.741,0,0,1,.883-1.233,3.914,3.914,0,0,1,1.309-.791,4.664,4.664,0,0,1,1.613-.274,3.709,3.709,0,0,1,1.446.274,2.861,2.861,0,0,1,1.1.791,3.481,3.481,0,0,1,.7,1.233,4.825,4.825,0,0,1,.243,1.6v.715h-5.326a1.811,1.811,0,0,0,.593,1.05,1.694,1.694,0,0,0,1.126.4,1.731,1.731,0,0,0,.959-.259,2.533,2.533,0,0,0,.685-.654Zm-1.933-3.272a1.329,1.329,0,0,0-.38-.989,1.353,1.353,0,0,0-1.02-.411,1.811,1.811,0,0,0-.67.122,1.42,1.42,0,0,0-.5.32,1.315,1.315,0,0,0-.32.441,1.618,1.618,0,0,0-.137.533h3.028Z" transform="translate(124.678 -236.959)"/><path class="j" d="M-110.515,241.083h2.207v1h.03a1.85,1.85,0,0,1,.3-.426,2.35,2.35,0,0,1,.472-.38,3.353,3.353,0,0,1,.624-.274,2.422,2.422,0,0,1,.761-.107,3.055,3.055,0,0,1,1.4.274,2.1,2.1,0,0,1,.837.746,3.119,3.119,0,0,1,.411,1.111,8,8,0,0,1,.107,1.385v4.094h-2.3v-3.637c0-.213,0-.441-.015-.67a2.174,2.174,0,0,0-.137-.639,1.1,1.1,0,0,0-.35-.472,1.082,1.082,0,0,0-.685-.183,1.381,1.381,0,0,0-.715.167,1.145,1.145,0,0,0-.426.426,1.6,1.6,0,0,0-.2.609,5.236,5.236,0,0,0-.046.7v3.7h-2.3v-7.426Z" transform="translate(127.757 -236.959)"/><path class="j" d="M-96.869,247.89a4.383,4.383,0,0,1-1.065,3.2,4.311,4.311,0,0,1-3.226,1.1,8.544,8.544,0,0,1-1.963-.228,4.621,4.621,0,0,1-1.78-.867l1.263-1.9a4.622,4.622,0,0,0,1.126.7,3.272,3.272,0,0,0,1.294.259,2.056,2.056,0,0,0,1.552-.517,1.778,1.778,0,0,0,.5-1.309V247.6h-.03a2.206,2.206,0,0,1-.989.761,3.085,3.085,0,0,1-1.111.228,3.623,3.623,0,0,1-1.491-.289,3.4,3.4,0,0,1-1.157-.791,3.641,3.641,0,0,1-.746-1.217,4.588,4.588,0,0,1-.259-1.537,4.157,4.157,0,0,1,.243-1.43,3.707,3.707,0,0,1,.67-1.233,3.512,3.512,0,0,1,1.065-.867,3.082,3.082,0,0,1,1.415-.335,3.378,3.378,0,0,1,.9.107,4.069,4.069,0,0,1,.73.274,2.492,2.492,0,0,1,.548.38,2.216,2.216,0,0,1,.365.411h.03v-.974h2.115Zm-5.768-3.135a1.851,1.851,0,0,0,.137.7,1.864,1.864,0,0,0,.4.578,2.221,2.221,0,0,0,.578.411,1.61,1.61,0,0,0,.73.152,1.588,1.588,0,0,0,.715-.152,2.067,2.067,0,0,0,.594-.411,1.865,1.865,0,0,0,.4-.578,1.794,1.794,0,0,0,.137-.7,1.851,1.851,0,0,0-.137-.7,1.865,1.865,0,0,0-.4-.578,2.067,2.067,0,0,0-.594-.411,1.634,1.634,0,0,0-.715-.152,1.7,1.7,0,0,0-.73.152,2.221,2.221,0,0,0-.578.411,1.865,1.865,0,0,0-.4.578A1.8,1.8,0,0,0-102.637,244.755Z" transform="translate(130.669 -236.964)"/><path class="j" d="M-93.643,247.586h-.03a2.136,2.136,0,0,1-1.02.852,3.616,3.616,0,0,1-1.339.259,3.152,3.152,0,0,1-1-.152,2.394,2.394,0,0,1-.852-.441,2.037,2.037,0,0,1-.578-.715,2.3,2.3,0,0,1-.213-.989,2.142,2.142,0,0,1,.243-1.08,2.1,2.1,0,0,1,.639-.73,3.108,3.108,0,0,1,.928-.457,7.987,7.987,0,0,1,1.08-.243c.365-.046.746-.076,1.111-.091s.715-.015,1.035-.015a1.165,1.165,0,0,0-.441-.974,1.564,1.564,0,0,0-1.035-.365,2.162,2.162,0,0,0-1.035.243,2.845,2.845,0,0,0-.837.654l-1.217-1.248a4.251,4.251,0,0,1,1.491-.9,5.336,5.336,0,0,1,1.78-.3,4.685,4.685,0,0,1,1.659.259,2.279,2.279,0,0,1,1.035.746,2.919,2.919,0,0,1,.548,1.2,7.552,7.552,0,0,1,.152,1.644v3.774h-2.115v-.928Zm-.563-2.328c-.167,0-.4.015-.654.03a3.071,3.071,0,0,0-.746.137,1.778,1.778,0,0,0-.609.32.727.727,0,0,0-.259.593.667.667,0,0,0,.35.609,1.427,1.427,0,0,0,.73.2,2.345,2.345,0,0,0,.654-.091,2.123,2.123,0,0,0,.563-.259,1.327,1.327,0,0,0,.4-.426,1.283,1.283,0,0,0,.137-.609v-.487h-.563Z" transform="translate(133.94 -236.964)"/><path class="j" d="M-85.149,247.89a4.383,4.383,0,0,1-1.065,3.2,4.311,4.311,0,0,1-3.226,1.1,8.544,8.544,0,0,1-1.963-.228,4.621,4.621,0,0,1-1.781-.867l1.263-1.9a4.622,4.622,0,0,0,1.126.7,3.271,3.271,0,0,0,1.294.259,2.056,2.056,0,0,0,1.552-.517,1.778,1.778,0,0,0,.5-1.309V247.6h-.03a2.206,2.206,0,0,1-.989.761,3.085,3.085,0,0,1-1.111.228,3.623,3.623,0,0,1-1.491-.289,3.4,3.4,0,0,1-1.157-.791,3.641,3.641,0,0,1-.746-1.217,4.588,4.588,0,0,1-.259-1.537,4.157,4.157,0,0,1,.244-1.43,3.707,3.707,0,0,1,.67-1.233,3.512,3.512,0,0,1,1.065-.867,3.082,3.082,0,0,1,1.415-.335,3.378,3.378,0,0,1,.9.107,4.069,4.069,0,0,1,.73.274,2.491,2.491,0,0,1,.548.38,2.215,2.215,0,0,1,.365.411h.03v-.974h2.115v6.8Zm-5.768-3.135a1.85,1.85,0,0,0,.137.7,1.864,1.864,0,0,0,.4.578,2.221,2.221,0,0,0,.578.411,1.609,1.609,0,0,0,.73.152,1.588,1.588,0,0,0,.715-.152,2.067,2.067,0,0,0,.594-.411,1.865,1.865,0,0,0,.4-.578,1.8,1.8,0,0,0,.137-.7,1.851,1.851,0,0,0-.137-.7,1.865,1.865,0,0,0-.4-.578,2.067,2.067,0,0,0-.594-.411,1.634,1.634,0,0,0-.715-.152,1.7,1.7,0,0,0-.73.152,2.221,2.221,0,0,0-.578.411,1.865,1.865,0,0,0-.4.578A1.794,1.794,0,0,0-90.917,244.755Z" transform="translate(136.784 -236.964)"/><path class="j" d="M-79.606,247.231a3.573,3.573,0,0,1-1.385,1.081,4.1,4.1,0,0,1-1.735.38,4.663,4.663,0,0,1-1.613-.274,3.68,3.68,0,0,1-1.309-.791,3.647,3.647,0,0,1-.883-1.233,3.943,3.943,0,0,1-.32-1.6,3.841,3.841,0,0,1,.32-1.6,3.741,3.741,0,0,1,.883-1.233,3.914,3.914,0,0,1,1.309-.791,4.664,4.664,0,0,1,1.613-.274,3.709,3.709,0,0,1,1.446.274,2.861,2.861,0,0,1,1.1.791,3.482,3.482,0,0,1,.7,1.233,4.824,4.824,0,0,1,.243,1.6v.715h-5.326a1.811,1.811,0,0,0,.593,1.05,1.694,1.694,0,0,0,1.126.4,1.731,1.731,0,0,0,.959-.259,2.533,2.533,0,0,0,.685-.654Zm-1.948-3.272a1.329,1.329,0,0,0-.38-.989,1.353,1.353,0,0,0-1.02-.411,1.811,1.811,0,0,0-.67.122,1.42,1.42,0,0,0-.5.32,1.315,1.315,0,0,0-.32.441,1.618,1.618,0,0,0-.137.533h3.028Z" transform="translate(140.113 -236.959)"/><path class="j" d="M-80.924,241.083h2.207v1h.03a1.85,1.85,0,0,1,.3-.426,2.349,2.349,0,0,1,.472-.38,3.352,3.352,0,0,1,.624-.274,2.422,2.422,0,0,1,.761-.107,2.949,2.949,0,0,1,1.385.32,2.037,2.037,0,0,1,.913,1,2.406,2.406,0,0,1,.959-1.02,2.956,2.956,0,0,1,1.385-.3,2.873,2.873,0,0,1,1.263.259,2.09,2.09,0,0,1,.807.685,3.072,3.072,0,0,1,.426,1.02,5.477,5.477,0,0,1,.122,1.263v4.383h-2.3v-4.322a1.712,1.712,0,0,0-.228-.9.862.862,0,0,0-.791-.38,1.5,1.5,0,0,0-.67.137,1.114,1.114,0,0,0-.426.365,1.527,1.527,0,0,0-.228.533,2.83,2.83,0,0,0-.076.639v3.926h-2.3v-3.926c0-.137,0-.289-.015-.487a2.058,2.058,0,0,0-.107-.548,1.1,1.1,0,0,0-.3-.441.882.882,0,0,0-.609-.183,1.421,1.421,0,0,0-.715.167,1.145,1.145,0,0,0-.426.426,1.594,1.594,0,0,0-.2.609,5.238,5.238,0,0,0-.046.7v3.7H-81v-7.442Z" transform="translate(143.166 -236.959)"/><path class="j" d="M-65.106,247.231a3.573,3.573,0,0,1-1.385,1.081,4.1,4.1,0,0,1-1.735.38,4.663,4.663,0,0,1-1.613-.274,3.68,3.68,0,0,1-1.309-.791,3.647,3.647,0,0,1-.883-1.233,3.943,3.943,0,0,1-.32-1.6,3.841,3.841,0,0,1,.32-1.6,3.741,3.741,0,0,1,.883-1.233,3.914,3.914,0,0,1,1.309-.791,4.664,4.664,0,0,1,1.613-.274,3.709,3.709,0,0,1,1.446.274,2.861,2.861,0,0,1,1.1.791,3.481,3.481,0,0,1,.7,1.233,4.824,4.824,0,0,1,.243,1.6v.715h-5.326a1.811,1.811,0,0,0,.594,1.05,1.694,1.694,0,0,0,1.126.4,1.731,1.731,0,0,0,.959-.259,2.533,2.533,0,0,0,.685-.654Zm-1.948-3.272a1.329,1.329,0,0,0-.38-.989,1.353,1.353,0,0,0-1.02-.411,1.811,1.811,0,0,0-.67.122,1.42,1.42,0,0,0-.5.32,1.314,1.314,0,0,0-.32.441,1.618,1.618,0,0,0-.137.533h3.028Z" transform="translate(147.679 -236.959)"/><path class="j" d="M-66.445,241.083h2.207v1h.03a1.85,1.85,0,0,1,.3-.426,2.349,2.349,0,0,1,.472-.38,3.353,3.353,0,0,1,.624-.274,2.422,2.422,0,0,1,.761-.107,3.055,3.055,0,0,1,1.4.274,2.1,2.1,0,0,1,.837.746,3.118,3.118,0,0,1,.411,1.111,7.993,7.993,0,0,1,.107,1.385v4.094h-2.3v-3.637c0-.213,0-.441-.015-.67a2.173,2.173,0,0,0-.137-.639,1.1,1.1,0,0,0-.35-.472,1.082,1.082,0,0,0-.685-.183,1.381,1.381,0,0,0-.715.167,1.145,1.145,0,0,0-.426.426,1.6,1.6,0,0,0-.2.609,5.235,5.235,0,0,0-.046.7v3.7h-2.3v-7.426Z" transform="translate(150.753 -236.959)"/><path class="j" d="M-55.388,243.608h-2.024v2.481c0,.2.015.4.03.563a1,1,0,0,0,.137.441.788.788,0,0,0,.335.289,1.621,1.621,0,0,0,.593.091c.122,0,.289-.015.487-.03a.9.9,0,0,0,.457-.183v1.9a3.517,3.517,0,0,1-.791.183,7.374,7.374,0,0,1-.807.046,4.655,4.655,0,0,1-1.065-.122,2.311,2.311,0,0,1-.852-.4,1.86,1.86,0,0,1-.578-.7,2.413,2.413,0,0,1-.213-1.035v-3.531H-61.14v-1.841h1.461V239.56h2.3v2.207h2.024v1.841Z" transform="translate(153.529 -237.658)"/></g><g transform="translate(20.747 69.394)"><path class="j" d="M-116.5,256.8a1.389,1.389,0,0,0-.5-.426,1.517,1.517,0,0,0-.685-.167,1.823,1.823,0,0,0-1.415.548,2.025,2.025,0,0,0-.5,1.43,2.026,2.026,0,0,0,.5,1.431,1.823,1.823,0,0,0,1.415.548,1.243,1.243,0,0,0,.685-.183,2.685,2.685,0,0,0,.5-.411l1.583,1.659a3.15,3.15,0,0,1-1.324.807,5.007,5.007,0,0,1-1.446.228,4.806,4.806,0,0,1-1.689-.289,4.109,4.109,0,0,1-1.37-.822,3.571,3.571,0,0,1-.913-1.294,4.013,4.013,0,0,1-.335-1.674,3.964,3.964,0,0,1,.335-1.674,4.147,4.147,0,0,1,.913-1.294,3.787,3.787,0,0,1,1.37-.822,4.807,4.807,0,0,1,1.689-.289,5.008,5.008,0,0,1,1.446.228,3.149,3.149,0,0,1,1.324.807Z" transform="translate(121.99 -250.427)"/><path class="j" d="M-116.88,253.09a1.357,1.357,0,0,1,.411-.989,1.332,1.332,0,0,1,.989-.411,1.357,1.357,0,0,1,.989.411,1.332,1.332,0,0,1,.411.989,1.357,1.357,0,0,1-.411.989,1.332,1.332,0,0,1-.989.411,1.357,1.357,0,0,1-.989-.411A1.332,1.332,0,0,1-116.88,253.09Zm.2,2.45h2.4v7.776h-2.4Z" transform="translate(124.656 -251.69)"/><path class="j" d="M-108.483,256.951H-110.6v2.587c0,.213.015.411.03.578a1.242,1.242,0,0,0,.137.457.672.672,0,0,0,.35.289,1.77,1.77,0,0,0,.624.107,3.776,3.776,0,0,0,.5-.046.9.9,0,0,0,.472-.183v1.994a3.948,3.948,0,0,1-.837.2,8.24,8.24,0,0,1-.852.046,5.209,5.209,0,0,1-1.126-.122,2.853,2.853,0,0,1-.9-.411,1.756,1.756,0,0,1-.593-.73,2.6,2.6,0,0,1-.213-1.1v-3.7h-1.537V255H-113V252.69h2.4V255h2.115v1.948Z" transform="translate(125.877 -251.168)"/><path class="j" d="M-109.95,258.178a3.964,3.964,0,0,1,.335-1.674,3.954,3.954,0,0,1,.928-1.294,4.163,4.163,0,0,1,1.37-.822,4.807,4.807,0,0,1,1.689-.289,4.807,4.807,0,0,1,1.689.289,4.342,4.342,0,0,1,1.385.822,3.571,3.571,0,0,1,.913,1.294,4.013,4.013,0,0,1,.335,1.674,3.917,3.917,0,0,1-.335,1.674,4.333,4.333,0,0,1-.913,1.293,3.85,3.85,0,0,1-1.385.822,4.807,4.807,0,0,1-1.689.289,4.807,4.807,0,0,1-1.689-.289,4.109,4.109,0,0,1-1.37-.822,3.8,3.8,0,0,1-.928-1.293A3.964,3.964,0,0,1-109.95,258.178Zm2.4,0a2.026,2.026,0,0,0,.5,1.431,1.824,1.824,0,0,0,1.415.548,1.824,1.824,0,0,0,1.415-.548,2.026,2.026,0,0,0,.5-1.431,2.025,2.025,0,0,0-.5-1.431,1.823,1.823,0,0,0-1.415-.548,1.823,1.823,0,0,0-1.415.548A2.026,2.026,0,0,0-107.546,258.178Z" transform="translate(128.273 -250.432)"/><path class="j" d="M-98.585,263.264c-.152.411-.32.791-.457,1.111a2.635,2.635,0,0,1-.563.807,2.413,2.413,0,0,1-.867.5,4.949,4.949,0,0,1-1.4.167,5.481,5.481,0,0,1-1.8-.289l.32-1.963a2.88,2.88,0,0,0,1.126.243,1.93,1.93,0,0,0,.654-.091,1,1,0,0,0,.426-.259,1.384,1.384,0,0,0,.274-.411c.076-.167.152-.35.243-.563l.183-.441-3.409-7.837h2.587l2.009,5.144h.03l1.7-5.144h2.465Z" transform="translate(131.456 -250.359)"/><path class="j" d="M-90.046,260.72a3.885,3.885,0,0,1-1.461,1.141,4.3,4.3,0,0,1-1.826.4,4.807,4.807,0,0,1-1.689-.289,4.109,4.109,0,0,1-1.37-.822,3.571,3.571,0,0,1-.913-1.293,4.013,4.013,0,0,1-.335-1.674,3.964,3.964,0,0,1,.335-1.674,4.147,4.147,0,0,1,.913-1.294,3.787,3.787,0,0,1,1.37-.822,4.807,4.807,0,0,1,1.689-.289,3.7,3.7,0,0,1,1.507.289,3.337,3.337,0,0,1,1.157.822,3.583,3.583,0,0,1,.73,1.294,5.291,5.291,0,0,1,.259,1.674v.746h-5.57a1.888,1.888,0,0,0,.624,1.1,1.76,1.76,0,0,0,1.187.411,1.893,1.893,0,0,0,1-.259,2.536,2.536,0,0,0,.715-.685Zm-2.039-3.424a1.363,1.363,0,0,0-.4-1.035,1.422,1.422,0,0,0-1.08-.426,1.981,1.981,0,0,0-.7.122,1.784,1.784,0,0,0-.517.335,1.48,1.48,0,0,0-.335.472,1.81,1.81,0,0,0-.137.548h3.165Z" transform="translate(134.696 -250.432)"/><path class="j" d="M-91.45,254.283h2.3v1.05h.03a1.708,1.708,0,0,1,.32-.441,2.22,2.22,0,0,1,.5-.4,3.694,3.694,0,0,1,.654-.289,2.723,2.723,0,0,1,.807-.107,3.408,3.408,0,0,1,1.476.274,1.964,1.964,0,0,1,.867.776,3.07,3.07,0,0,1,.426,1.172,8.789,8.789,0,0,1,.107,1.461v4.292h-2.4v-3.8c0-.228-.015-.457-.03-.7a2.381,2.381,0,0,0-.137-.67,1.193,1.193,0,0,0-.365-.5,1.178,1.178,0,0,0-.715-.2,1.5,1.5,0,0,0-.746.167,1.119,1.119,0,0,0-.441.441,1.66,1.66,0,0,0-.2.639,5.706,5.706,0,0,0-.046.73v3.881h-2.4v-7.776Z" transform="translate(137.926 -250.432)"/></g><g transform="translate(20.96 96.696)"><path class="j" d="M-121.85,269.63h2.3v11.55h-2.3Z" transform="translate(121.85 -269.63)"/><path class="j" d="M-117.437,274.417H-119.4l1.126-4.307h2.207Z" transform="translate(123.128 -269.379)"/><path class="j" d="M-109.186,278.541a3.573,3.573,0,0,1-1.385,1.08,4.1,4.1,0,0,1-1.735.38,4.664,4.664,0,0,1-1.613-.274,3.682,3.682,0,0,1-1.309-.791,3.647,3.647,0,0,1-.883-1.233,3.943,3.943,0,0,1-.32-1.6,3.841,3.841,0,0,1,.32-1.6,3.741,3.741,0,0,1,.883-1.233,3.913,3.913,0,0,1,1.309-.791,4.664,4.664,0,0,1,1.613-.274,3.709,3.709,0,0,1,1.446.274,2.861,2.861,0,0,1,1.1.791,3.481,3.481,0,0,1,.7,1.233,4.825,4.825,0,0,1,.243,1.6v.715h-5.326a1.811,1.811,0,0,0,.593,1.05,1.694,1.694,0,0,0,1.126.4,1.731,1.731,0,0,0,.959-.259,2.533,2.533,0,0,0,.685-.654Zm-1.933-3.272a1.329,1.329,0,0,0-.38-.989,1.353,1.353,0,0,0-1.02-.411,1.813,1.813,0,0,0-.67.122,1.421,1.421,0,0,0-.5.32,1.316,1.316,0,0,0-.32.441,1.618,1.618,0,0,0-.137.533h3.028Z" transform="translate(124.678 -268.284)"/><path class="j" d="M-110.515,272.4h2.207v1h.03a1.85,1.85,0,0,1,.3-.426,2.35,2.35,0,0,1,.472-.38,3.351,3.351,0,0,1,.624-.274,2.422,2.422,0,0,1,.761-.107,3.055,3.055,0,0,1,1.4.274,2.1,2.1,0,0,1,.837.746,3.119,3.119,0,0,1,.411,1.111,7.994,7.994,0,0,1,.107,1.385v4.094h-2.3v-3.637c0-.213,0-.441-.015-.67a2.173,2.173,0,0,0-.137-.639,1.1,1.1,0,0,0-.35-.472,1.082,1.082,0,0,0-.685-.183,1.381,1.381,0,0,0-.715.167,1.145,1.145,0,0,0-.426.426,1.6,1.6,0,0,0-.2.609,5.235,5.235,0,0,0-.046.7v3.7h-2.3V272.4Z" transform="translate(127.757 -268.279)"/><path class="j" d="M-99.458,274.928h-2.024v2.481c0,.2.015.4.03.563a1,1,0,0,0,.137.441.788.788,0,0,0,.335.289,1.62,1.62,0,0,0,.593.091c.122,0,.289-.015.487-.03a.9.9,0,0,0,.457-.183v1.9a3.515,3.515,0,0,1-.791.183,7.366,7.366,0,0,1-.807.046,4.654,4.654,0,0,1-1.065-.122,2.31,2.31,0,0,1-.852-.4,1.861,1.861,0,0,1-.578-.7,2.413,2.413,0,0,1-.213-1.035v-3.531h-1.461v-1.841h1.461V270.88h2.3v2.207h2.024v1.841Z" transform="translate(130.533 -268.978)"/><path class="j" d="M-100.66,272.408h2.3v1.187h.03a2.835,2.835,0,0,1,.867-1.035,2.207,2.207,0,0,1,1.263-.35,3.444,3.444,0,0,1,.4.015,2.286,2.286,0,0,1,.365.061v2.1c-.167-.046-.32-.091-.487-.122a2.623,2.623,0,0,0-.5-.03,2.379,2.379,0,0,0-1.035.183,1.318,1.318,0,0,0-.593.517,2.029,2.029,0,0,0-.274.791,6.849,6.849,0,0,0-.061,1v3.1h-2.3v-7.426Z" transform="translate(132.891 -268.284)"/><path class="j" d="M-91.793,278.9h-.03a2.136,2.136,0,0,1-1.02.852,3.616,3.616,0,0,1-1.339.259,3.15,3.15,0,0,1-1-.152,2.393,2.393,0,0,1-.852-.441,2.037,2.037,0,0,1-.578-.715,2.3,2.3,0,0,1-.213-.989,2.142,2.142,0,0,1,.243-1.081,2.1,2.1,0,0,1,.639-.73,3.106,3.106,0,0,1,.928-.457,7.981,7.981,0,0,1,1.08-.243c.365-.046.746-.076,1.111-.091s.715-.015,1.035-.015a1.165,1.165,0,0,0-.441-.974,1.564,1.564,0,0,0-1.035-.365A2.162,2.162,0,0,0-94.3,274a2.845,2.845,0,0,0-.837.654l-1.217-1.248a4.251,4.251,0,0,1,1.491-.9,5.336,5.336,0,0,1,1.781-.3,4.684,4.684,0,0,1,1.659.259,2.279,2.279,0,0,1,1.035.746,2.919,2.919,0,0,1,.548,1.2,7.553,7.553,0,0,1,.152,1.644v3.774h-2.115V278.9Zm-.563-2.313c-.167,0-.4.015-.654.03a3.068,3.068,0,0,0-.746.137,1.779,1.779,0,0,0-.609.32.728.728,0,0,0-.259.594.667.667,0,0,0,.35.609,1.427,1.427,0,0,0,.73.2,2.345,2.345,0,0,0,.654-.091,2.127,2.127,0,0,0,.563-.259,1.326,1.326,0,0,0,.4-.426,1.283,1.283,0,0,0,.137-.609V276.6h-.563Z" transform="translate(134.906 -268.289)"/><path class="j" d="M-91.29,271.259a1.3,1.3,0,0,1,.4-.944,1.3,1.3,0,0,1,.944-.4,1.3,1.3,0,0,1,.944.4,1.3,1.3,0,0,1,.4.944,1.243,1.243,0,0,1-.4.943,1.325,1.325,0,0,1-.944.4,1.3,1.3,0,0,1-.944-.4A1.243,1.243,0,0,1-91.29,271.259Zm.183,2.344h2.3v7.426h-2.3Z" transform="translate(137.796 -269.479)"/><path class="j" d="M-80.689,281.175H-82.8V280.2h-.03a2.215,2.215,0,0,1-.365.411,3.5,3.5,0,0,1-.517.38,3.669,3.669,0,0,1-.654.274,2.456,2.456,0,0,1-.746.107,3.623,3.623,0,0,1-1.491-.289,3.405,3.405,0,0,1-1.157-.791,3.641,3.641,0,0,1-.746-1.217,4.588,4.588,0,0,1-.259-1.537,4.443,4.443,0,0,1,.243-1.491,4.017,4.017,0,0,1,.67-1.263,3.344,3.344,0,0,1,1.065-.883,3.082,3.082,0,0,1,1.415-.335,3.867,3.867,0,0,1,1.339.228,2.183,2.183,0,0,1,1.02.761h.03V269.64h2.3Zm-2.1-3.713a1.892,1.892,0,0,0-.487-1.354,1.8,1.8,0,0,0-1.354-.517,1.744,1.744,0,0,0-1.354.517,1.944,1.944,0,0,0-.487,1.354,1.892,1.892,0,0,0,.487,1.354,1.8,1.8,0,0,0,1.354.517,1.744,1.744,0,0,0,1.354-.517A1.918,1.918,0,0,0-82.789,277.462Z" transform="translate(139.111 -269.625)"/><path class="j" d="M-75.146,278.541a3.573,3.573,0,0,1-1.385,1.08,4.1,4.1,0,0,1-1.735.38,4.664,4.664,0,0,1-1.613-.274,3.682,3.682,0,0,1-1.309-.791,3.647,3.647,0,0,1-.883-1.233,3.943,3.943,0,0,1-.32-1.6,3.841,3.841,0,0,1,.32-1.6,3.741,3.741,0,0,1,.883-1.233,3.913,3.913,0,0,1,1.309-.791,4.664,4.664,0,0,1,1.613-.274,3.709,3.709,0,0,1,1.446.274,2.861,2.861,0,0,1,1.1.791,3.481,3.481,0,0,1,.7,1.233,4.825,4.825,0,0,1,.243,1.6v.715h-5.326a1.811,1.811,0,0,0,.593,1.05,1.694,1.694,0,0,0,1.126.4,1.731,1.731,0,0,0,.959-.259,2.533,2.533,0,0,0,.685-.654Zm-1.948-3.272a1.329,1.329,0,0,0-.38-.989,1.353,1.353,0,0,0-1.02-.411,1.813,1.813,0,0,0-.67.122,1.421,1.421,0,0,0-.5.32,1.316,1.316,0,0,0-.32.441,1.618,1.618,0,0,0-.137.533h3.028Z" transform="translate(142.44 -268.284)"/><path class="j" d="M-66.416,278.541a3.573,3.573,0,0,1-1.385,1.08,4.1,4.1,0,0,1-1.735.38,4.664,4.664,0,0,1-1.613-.274,3.682,3.682,0,0,1-1.309-.791,3.647,3.647,0,0,1-.883-1.233,3.943,3.943,0,0,1-.32-1.6,3.841,3.841,0,0,1,.32-1.6,3.741,3.741,0,0,1,.883-1.233,3.913,3.913,0,0,1,1.309-.791,4.664,4.664,0,0,1,1.613-.274,3.709,3.709,0,0,1,1.446.274,2.861,2.861,0,0,1,1.1.791,3.481,3.481,0,0,1,.7,1.233,4.825,4.825,0,0,1,.243,1.6v.715h-5.326a1.811,1.811,0,0,0,.593,1.05,1.694,1.694,0,0,0,1.126.4,1.731,1.731,0,0,0,.959-.259,2.533,2.533,0,0,0,.685-.654Zm-1.933-3.272a1.329,1.329,0,0,0-.38-.989,1.353,1.353,0,0,0-1.02-.411,1.813,1.813,0,0,0-.67.122,1.421,1.421,0,0,0-.5.32,1.315,1.315,0,0,0-.32.441,1.618,1.618,0,0,0-.137.533h3.028Z" transform="translate(146.996 -268.284)"/><path class="j" d="M-67.745,272.4h2.207v1h.03a1.851,1.851,0,0,1,.3-.426,2.349,2.349,0,0,1,.472-.38,3.35,3.35,0,0,1,.624-.274,2.422,2.422,0,0,1,.761-.107,3.055,3.055,0,0,1,1.4.274,2.1,2.1,0,0,1,.837.746,3.119,3.119,0,0,1,.411,1.111,7.993,7.993,0,0,1,.107,1.385v4.094h-2.3v-3.637c0-.213,0-.441-.015-.67a2.174,2.174,0,0,0-.137-.639,1.1,1.1,0,0,0-.35-.472,1.082,1.082,0,0,0-.685-.183,1.381,1.381,0,0,0-.715.167,1.145,1.145,0,0,0-.426.426,1.6,1.6,0,0,0-.2.609,5.235,5.235,0,0,0-.046.7v3.7h-2.3V272.4Z" transform="translate(150.074 -268.279)"/><path class="j" d="M-56.688,274.928h-2.024v2.481c0,.2.015.4.03.563a1,1,0,0,0,.137.441.788.788,0,0,0,.335.289,1.621,1.621,0,0,0,.594.091c.122,0,.289-.015.487-.03a.9.9,0,0,0,.457-.183v1.9a3.516,3.516,0,0,1-.791.183,7.366,7.366,0,0,1-.807.046,4.654,4.654,0,0,1-1.065-.122,2.31,2.31,0,0,1-.852-.4,1.86,1.86,0,0,1-.578-.7,2.413,2.413,0,0,1-.213-1.035v-3.531H-62.44v-1.841h1.461V270.88h2.3v2.207h2.024v1.841Z" transform="translate(152.85 -268.978)"/><path class="j" d="M-57.89,272.408h2.3v1.187h.03a2.835,2.835,0,0,1,.867-1.035,2.207,2.207,0,0,1,1.263-.35,3.444,3.444,0,0,1,.4.015,2.286,2.286,0,0,1,.365.061v2.1c-.167-.046-.32-.091-.487-.122a2.623,2.623,0,0,0-.5-.03,2.379,2.379,0,0,0-1.035.183,1.318,1.318,0,0,0-.594.517,2.029,2.029,0,0,0-.274.791,6.85,6.85,0,0,0-.061,1v3.1h-2.3v-7.426Z" transform="translate(155.209 -268.284)"/><path class="j" d="M-46.9,278.541a3.573,3.573,0,0,1-1.385,1.08,4.1,4.1,0,0,1-1.735.38,4.664,4.664,0,0,1-1.613-.274,3.682,3.682,0,0,1-1.309-.791,3.647,3.647,0,0,1-.883-1.233,3.943,3.943,0,0,1-.32-1.6,3.841,3.841,0,0,1,.32-1.6,3.741,3.741,0,0,1,.883-1.233,3.913,3.913,0,0,1,1.309-.791,4.664,4.664,0,0,1,1.613-.274,3.709,3.709,0,0,1,1.446.274,2.861,2.861,0,0,1,1.1.791,3.481,3.481,0,0,1,.7,1.233,4.825,4.825,0,0,1,.243,1.6v.715h-5.326a1.811,1.811,0,0,0,.594,1.05,1.694,1.694,0,0,0,1.126.4,1.731,1.731,0,0,0,.959-.259,2.533,2.533,0,0,0,.685-.654Zm-1.933-3.272a1.329,1.329,0,0,0-.38-.989,1.353,1.353,0,0,0-1.02-.411,1.813,1.813,0,0,0-.67.122,1.421,1.421,0,0,0-.5.32,1.315,1.315,0,0,0-.32.441,1.618,1.618,0,0,0-.137.533h3.028Z" transform="translate(157.181 -268.284)"/></g><g transform="translate(21.142 116.433)"><path class="j" d="M-121.73,285.368h2.115v.974h.03a2.217,2.217,0,0,1,.365-.411,3.5,3.5,0,0,1,.517-.38,3.668,3.668,0,0,1,.654-.274,2.456,2.456,0,0,1,.746-.107,3.623,3.623,0,0,1,1.491.289,3.4,3.4,0,0,1,1.157.791,3.641,3.641,0,0,1,.746,1.217,4.588,4.588,0,0,1,.259,1.537,4.443,4.443,0,0,1-.243,1.491,4.016,4.016,0,0,1-.67,1.263,3.344,3.344,0,0,1-1.065.883,3.082,3.082,0,0,1-1.415.335,3.807,3.807,0,0,1-1.339-.228,2.183,2.183,0,0,1-1.02-.761h-.03v4.276h-2.3v-10.9Zm2.115,3.713a1.893,1.893,0,0,0,.487,1.354,1.8,1.8,0,0,0,1.354.517,1.744,1.744,0,0,0,1.354-.517,1.944,1.944,0,0,0,.487-1.354,1.893,1.893,0,0,0-.487-1.354,1.8,1.8,0,0,0-1.354-.517,1.744,1.744,0,0,0-1.354.517A1.918,1.918,0,0,0-119.615,289.081Z" transform="translate(121.73 -281.259)"/><path class="j" d="M-115.72,289.076a3.841,3.841,0,0,1,.32-1.6,3.741,3.741,0,0,1,.883-1.233,3.913,3.913,0,0,1,1.309-.791,4.663,4.663,0,0,1,1.613-.274,4.662,4.662,0,0,1,1.613.274,3.681,3.681,0,0,1,1.309.791,3.647,3.647,0,0,1,.883,1.233,3.892,3.892,0,0,1,.32,1.6,3.841,3.841,0,0,1-.32,1.6,3.74,3.74,0,0,1-.883,1.233,4.071,4.071,0,0,1-1.309.791,4.663,4.663,0,0,1-1.613.274,4.663,4.663,0,0,1-1.613-.274,3.681,3.681,0,0,1-1.309-.791,3.648,3.648,0,0,1-.883-1.233A3.943,3.943,0,0,1-115.72,289.076Zm2.283,0a1.893,1.893,0,0,0,.487,1.354,1.8,1.8,0,0,0,1.354.517,1.744,1.744,0,0,0,1.354-.517,1.944,1.944,0,0,0,.487-1.354,1.892,1.892,0,0,0-.487-1.354,1.8,1.8,0,0,0-1.354-.517,1.744,1.744,0,0,0-1.354.517A1.918,1.918,0,0,0-113.437,289.076Z" transform="translate(124.866 -281.254)"/><path class="j" d="M-109.41,285.368h2.3v1.187h.03a2.835,2.835,0,0,1,.867-1.035,2.206,2.206,0,0,1,1.263-.35,3.431,3.431,0,0,1,.4.015,2.28,2.28,0,0,1,.365.061v2.1c-.167-.046-.32-.091-.487-.122a2.618,2.618,0,0,0-.5-.03,2.379,2.379,0,0,0-1.035.183,1.319,1.319,0,0,0-.593.517,2.03,2.03,0,0,0-.274.791,6.848,6.848,0,0,0-.061,1v3.1h-2.3v-7.426Z" transform="translate(128.143 -281.259)"/><path class="j" d="M-100.038,287.888h-2.024v2.481c0,.2.015.4.03.563a1,1,0,0,0,.137.441.788.788,0,0,0,.335.289,1.621,1.621,0,0,0,.593.091c.122,0,.289-.015.487-.03a.9.9,0,0,0,.457-.183v1.9a3.517,3.517,0,0,1-.791.183,7.374,7.374,0,0,1-.807.046,4.656,4.656,0,0,1-1.065-.122,2.31,2.31,0,0,1-.852-.4,1.86,1.86,0,0,1-.578-.7,2.413,2.413,0,0,1-.213-1.035v-3.531h-1.461v-1.841h1.461V283.84h2.3v2.207h2.024v1.841Z" transform="translate(130.048 -281.953)"/><path class="j" d="M-94.136,291.5a3.573,3.573,0,0,1-1.385,1.081,4.1,4.1,0,0,1-1.735.38,4.662,4.662,0,0,1-1.613-.274,3.68,3.68,0,0,1-1.309-.791,3.647,3.647,0,0,1-.883-1.233,3.944,3.944,0,0,1-.32-1.6,3.841,3.841,0,0,1,.32-1.6,3.741,3.741,0,0,1,.883-1.233,3.913,3.913,0,0,1,1.309-.791,4.662,4.662,0,0,1,1.613-.274,3.707,3.707,0,0,1,1.446.274,2.861,2.861,0,0,1,1.1.791,3.48,3.48,0,0,1,.7,1.233,4.824,4.824,0,0,1,.244,1.6v.715H-99.1a1.811,1.811,0,0,0,.594,1.05,1.694,1.694,0,0,0,1.126.4,1.731,1.731,0,0,0,.959-.259,2.533,2.533,0,0,0,.685-.654Zm-1.948-3.272a1.329,1.329,0,0,0-.38-.989,1.353,1.353,0,0,0-1.02-.411,1.812,1.812,0,0,0-.67.122,1.42,1.42,0,0,0-.5.32,1.314,1.314,0,0,0-.32.441,1.617,1.617,0,0,0-.137.533h3.028Z" transform="translate(132.349 -281.259)"/><path class="j" d="M-88.322,292.726h-2.207v-1h-.03a1.947,1.947,0,0,1-.32.426,1.987,1.987,0,0,1-.472.38,3.353,3.353,0,0,1-.624.274,2.424,2.424,0,0,1-.761.107,3.168,3.168,0,0,1-1.415-.274,2,2,0,0,1-.837-.746,2.842,2.842,0,0,1-.4-1.111,9.841,9.841,0,0,1-.107-1.385V285.3h2.3v3.637c0,.213.015.441.03.67a2.174,2.174,0,0,0,.137.639,1.1,1.1,0,0,0,.35.472,1.082,1.082,0,0,0,.685.183,1.421,1.421,0,0,0,.715-.167,1.145,1.145,0,0,0,.426-.426,1.581,1.581,0,0,0,.183-.609,5.237,5.237,0,0,0,.046-.7v-3.7h2.3Z" transform="translate(135.422 -281.191)"/><path class="j" d="M-89.7,285.368h2.3v1.187h.03a2.835,2.835,0,0,1,.867-1.035,2.206,2.206,0,0,1,1.263-.35,3.431,3.431,0,0,1,.4.015,2.279,2.279,0,0,1,.365.061v2.1c-.167-.046-.32-.091-.487-.122a2.618,2.618,0,0,0-.5-.03,2.379,2.379,0,0,0-1.035.183,1.319,1.319,0,0,0-.594.517,2.03,2.03,0,0,0-.274.791,6.851,6.851,0,0,0-.061,1v3.1h-2.3v-7.426Z" transform="translate(138.428 -281.259)"/><path class="j" d="M-81.284,287.544a1.631,1.631,0,0,0-1.324-.624,1.229,1.229,0,0,0-.563.137.48.48,0,0,0-.274.472.432.432,0,0,0,.289.411,3.046,3.046,0,0,0,.715.228c.289.061.609.137.928.213a3.28,3.28,0,0,1,.928.365,2.009,2.009,0,0,1,.715.67,2.054,2.054,0,0,1,.289,1.126,2.094,2.094,0,0,1-.32,1.187,2.37,2.37,0,0,1-.807.746,3.61,3.61,0,0,1-1.1.4,6.578,6.578,0,0,1-1.2.122,5.58,5.58,0,0,1-1.567-.228,2.916,2.916,0,0,1-1.339-.791l1.385-1.537a2.424,2.424,0,0,0,.715.609,1.927,1.927,0,0,0,.913.213,1.813,1.813,0,0,0,.715-.122.434.434,0,0,0,.32-.426.47.47,0,0,0-.289-.441,3,3,0,0,0-.715-.243c-.289-.061-.594-.137-.928-.213a3.774,3.774,0,0,1-.928-.35,1.844,1.844,0,0,1-.715-.654,2.055,2.055,0,0,1-.289-1.126,2.166,2.166,0,0,1,.274-1.126,2.449,2.449,0,0,1,.7-.776,3.375,3.375,0,0,1,1-.457,4.9,4.9,0,0,1,1.141-.152,5.492,5.492,0,0,1,1.476.213,2.7,2.7,0,0,1,1.263.761Z" transform="translate(140.421 -281.259)"/><path class="j" d="M-70.109,294.135h-2.115v-.974h-.03a2.217,2.217,0,0,1-.365.411,3.507,3.507,0,0,1-.517.38,3.67,3.67,0,0,1-.654.274,2.456,2.456,0,0,1-.746.107,3.623,3.623,0,0,1-1.491-.289,3.4,3.4,0,0,1-1.157-.791,3.64,3.64,0,0,1-.746-1.217,4.588,4.588,0,0,1-.259-1.537,4.443,4.443,0,0,1,.243-1.491,4.017,4.017,0,0,1,.67-1.263,3.343,3.343,0,0,1,1.065-.883,3.081,3.081,0,0,1,1.415-.335,3.867,3.867,0,0,1,1.339.228,2.183,2.183,0,0,1,1.02.761h.03V282.6h2.3v11.535Zm-2.115-3.713a1.893,1.893,0,0,0-.487-1.354,1.8,1.8,0,0,0-1.354-.517,1.744,1.744,0,0,0-1.354.517,1.944,1.944,0,0,0-.487,1.354,1.893,1.893,0,0,0,.487,1.354,1.8,1.8,0,0,0,1.354.517,1.744,1.744,0,0,0,1.354-.517A1.944,1.944,0,0,0-72.225,290.422Z" transform="translate(144.449 -282.6)"/><path class="j" d="M-64.576,291.5a3.573,3.573,0,0,1-1.385,1.081,4.1,4.1,0,0,1-1.735.38,4.662,4.662,0,0,1-1.613-.274,3.68,3.68,0,0,1-1.309-.791,3.647,3.647,0,0,1-.883-1.233,3.944,3.944,0,0,1-.32-1.6,3.841,3.841,0,0,1,.32-1.6,3.741,3.741,0,0,1,.883-1.233,3.912,3.912,0,0,1,1.309-.791,4.662,4.662,0,0,1,1.613-.274,3.707,3.707,0,0,1,1.446.274,2.861,2.861,0,0,1,1.1.791,3.48,3.48,0,0,1,.7,1.233,4.824,4.824,0,0,1,.243,1.6v.715h-5.326a1.811,1.811,0,0,0,.594,1.05,1.694,1.694,0,0,0,1.126.4,1.731,1.731,0,0,0,.959-.259,2.533,2.533,0,0,0,.685-.654Zm-1.948-3.272a1.329,1.329,0,0,0-.38-.989,1.353,1.353,0,0,0-1.02-.411,1.812,1.812,0,0,0-.67.122,1.42,1.42,0,0,0-.5.32,1.314,1.314,0,0,0-.32.441,1.618,1.618,0,0,0-.137.533h3.028Z" transform="translate(147.773 -281.259)"/><path class="j" d="M-62.8,285.368h2.115v.974h.03a2.216,2.216,0,0,1,.365-.411,3.5,3.5,0,0,1,.517-.38,3.669,3.669,0,0,1,.654-.274,2.456,2.456,0,0,1,.746-.107,3.623,3.623,0,0,1,1.491.289,3.4,3.4,0,0,1,1.157.791,3.641,3.641,0,0,1,.746,1.217A4.588,4.588,0,0,1-54.719,289a4.443,4.443,0,0,1-.243,1.491,4.016,4.016,0,0,1-.67,1.263,3.343,3.343,0,0,1-1.065.883,3.082,3.082,0,0,1-1.415.335,3.807,3.807,0,0,1-1.339-.228,2.183,2.183,0,0,1-1.02-.761h-.03v4.276h-2.3v-10.9Zm2.1,3.713a1.893,1.893,0,0,0,.487,1.354,1.8,1.8,0,0,0,1.354.517,1.744,1.744,0,0,0,1.354-.517,1.944,1.944,0,0,0,.487-1.354,1.893,1.893,0,0,0-.487-1.354,1.8,1.8,0,0,0-1.354-.517,1.744,1.744,0,0,0-1.354.517A1.918,1.918,0,0,0-60.7,289.081Z" transform="translate(152.48 -281.259)"/><path class="j" d="M-56.61,285.368h2.3v1.187h.03a2.835,2.835,0,0,1,.867-1.035,2.206,2.206,0,0,1,1.263-.35,3.43,3.43,0,0,1,.4.015,2.279,2.279,0,0,1,.365.061v2.1c-.167-.046-.32-.091-.487-.122a2.618,2.618,0,0,0-.5-.03,2.379,2.379,0,0,0-1.035.183,1.319,1.319,0,0,0-.594.517,2.03,2.03,0,0,0-.274.791,6.85,6.85,0,0,0-.061,1v3.1h-2.3v-7.426Z" transform="translate(155.694 -281.259)"/><path class="j" d="M-52.89,289.076a3.841,3.841,0,0,1,.32-1.6,3.741,3.741,0,0,1,.883-1.233,3.913,3.913,0,0,1,1.309-.791,4.663,4.663,0,0,1,1.613-.274,4.663,4.663,0,0,1,1.613.274,3.681,3.681,0,0,1,1.309.791,3.647,3.647,0,0,1,.883,1.233,3.891,3.891,0,0,1,.32,1.6,3.841,3.841,0,0,1-.32,1.6,3.74,3.74,0,0,1-.883,1.233,4.071,4.071,0,0,1-1.309.791,4.663,4.663,0,0,1-1.613.274,4.663,4.663,0,0,1-1.613-.274,3.681,3.681,0,0,1-1.309-.791,3.647,3.647,0,0,1-.883-1.233A3.943,3.943,0,0,1-52.89,289.076Zm2.283,0a1.893,1.893,0,0,0,.487,1.354,1.8,1.8,0,0,0,1.354.517,1.744,1.744,0,0,0,1.354-.517,1.944,1.944,0,0,0,.487-1.354,1.892,1.892,0,0,0-.487-1.354,1.8,1.8,0,0,0-1.354-.517,1.744,1.744,0,0,0-1.354.517A1.918,1.918,0,0,0-50.607,289.076Z" transform="translate(157.651 -281.254)"/><path class="j" d="M-43.75,294.537a5.623,5.623,0,0,1-.137,1.294,2.409,2.409,0,0,1-.457.974,2.108,2.108,0,0,1-.852.624,3.307,3.307,0,0,1-1.309.228,3.216,3.216,0,0,1-.533-.03,2.07,2.07,0,0,1-.533-.107l.122-2.039a1.309,1.309,0,0,0,.593.137.615.615,0,0,0,.457-.152.911.911,0,0,0,.243-.38,2.508,2.508,0,0,0,.091-.487c.015-.167.015-.335.015-.472v-7.579h2.3Zm-2.481-10.318a1.3,1.3,0,0,1,.4-.944,1.3,1.3,0,0,1,.944-.4,1.3,1.3,0,0,1,.944.4,1.3,1.3,0,0,1,.4.944,1.243,1.243,0,0,1-.4.944,1.325,1.325,0,0,1-.944.4,1.3,1.3,0,0,1-.944-.4A1.3,1.3,0,0,1-46.231,284.219Z" transform="translate(160.427 -282.454)"/><path class="j" d="M-36.876,291.5a3.573,3.573,0,0,1-1.385,1.081,4.1,4.1,0,0,1-1.735.38,4.662,4.662,0,0,1-1.613-.274,3.68,3.68,0,0,1-1.309-.791,3.647,3.647,0,0,1-.883-1.233,3.943,3.943,0,0,1-.32-1.6,3.841,3.841,0,0,1,.32-1.6,3.74,3.74,0,0,1,.883-1.233,3.912,3.912,0,0,1,1.309-.791A4.662,4.662,0,0,1-40,285.17a3.707,3.707,0,0,1,1.446.274,2.861,2.861,0,0,1,1.1.791,3.48,3.48,0,0,1,.7,1.233,4.824,4.824,0,0,1,.243,1.6v.715h-5.326a1.811,1.811,0,0,0,.594,1.05,1.694,1.694,0,0,0,1.126.4,1.731,1.731,0,0,0,.959-.259,2.533,2.533,0,0,0,.685-.654Zm-1.933-3.272a1.329,1.329,0,0,0-.38-.989,1.353,1.353,0,0,0-1.02-.411,1.812,1.812,0,0,0-.67.122,1.42,1.42,0,0,0-.5.32,1.314,1.314,0,0,0-.32.441,1.618,1.618,0,0,0-.137.533h3.028Z" transform="translate(162.227 -281.259)"/><path class="j" d="M-32.918,287.888h-2.024v2.481c0,.2.015.4.03.563a1,1,0,0,0,.137.441.788.788,0,0,0,.335.289,1.621,1.621,0,0,0,.594.091c.122,0,.289-.015.487-.03a.9.9,0,0,0,.457-.183v1.9a3.517,3.517,0,0,1-.791.183,7.374,7.374,0,0,1-.807.046,4.656,4.656,0,0,1-1.065-.122,2.31,2.31,0,0,1-.852-.4,1.86,1.86,0,0,1-.578-.7,2.413,2.413,0,0,1-.213-1.035v-3.531H-38.67v-1.841h1.461V283.84h2.3v2.207h2.024v1.841Z" transform="translate(165.071 -281.953)"/><path class="j" d="M-29.774,287.544a1.631,1.631,0,0,0-1.324-.624,1.229,1.229,0,0,0-.563.137.48.48,0,0,0-.274.472.432.432,0,0,0,.289.411,3.046,3.046,0,0,0,.715.228c.289.061.609.137.928.213a3.28,3.28,0,0,1,.928.365,2.009,2.009,0,0,1,.715.67,2.054,2.054,0,0,1,.289,1.126,2.094,2.094,0,0,1-.32,1.187,2.37,2.37,0,0,1-.807.746,3.611,3.611,0,0,1-1.1.4,6.578,6.578,0,0,1-1.2.122,5.58,5.58,0,0,1-1.567-.228,2.916,2.916,0,0,1-1.339-.791l1.385-1.537a2.423,2.423,0,0,0,.715.609,1.927,1.927,0,0,0,.913.213,1.813,1.813,0,0,0,.715-.122.434.434,0,0,0,.32-.426.47.47,0,0,0-.289-.441,3,3,0,0,0-.715-.243c-.289-.061-.593-.137-.928-.213a3.774,3.774,0,0,1-.928-.35,1.844,1.844,0,0,1-.715-.654,2.055,2.055,0,0,1-.289-1.126,2.166,2.166,0,0,1,.274-1.126,2.449,2.449,0,0,1,.7-.776,3.375,3.375,0,0,1,1-.457,4.9,4.9,0,0,1,1.141-.152,5.492,5.492,0,0,1,1.476.213,2.7,2.7,0,0,1,1.263.761Z" transform="translate(167.299 -281.259)"/></g><g transform="translate(8.313 0.457)"><path class="k" d="M-130.16,206.39H-119.1v3.348h-7.426v3.348h6.863v3.348h-6.863v6.422h-3.637Z" transform="translate(130.16 -206.39)"/></g><g transform="translate(19.027 0)"><path class="k" d="M-116,206.39h3l7.168,16.481h-4.094l-1.415-3.5h-6.407l-1.37,3.5h-4Zm1.4,4.794-2.009,5.128h4.033Z" transform="translate(123.12 -205.933)"/><path class="k" d="M-99.578,210.838a3.554,3.554,0,0,0-1.309-1,4.47,4.47,0,0,0-1.811-.35,4.679,4.679,0,0,0-1.9.4,4.51,4.51,0,0,0-1.507,1.111,5.187,5.187,0,0,0-1,1.689,6,6,0,0,0-.365,2.115,5.962,5.962,0,0,0,.365,2.131,5.537,5.537,0,0,0,.989,1.674,4.777,4.777,0,0,0,1.476,1.111,4.108,4.108,0,0,0,1.826.4,4,4,0,0,0,1.978-.472,3.765,3.765,0,0,0,1.415-1.309l3.028,2.252a6.281,6.281,0,0,1-2.648,2.161,8.1,8.1,0,0,1-3.3.7,9.942,9.942,0,0,1-3.561-.609,8.427,8.427,0,0,1-2.815-1.735,7.868,7.868,0,0,1-1.857-2.739,9.323,9.323,0,0,1-.67-3.591,9.378,9.378,0,0,1,.67-3.591,8.011,8.011,0,0,1,1.857-2.739,7.965,7.965,0,0,1,2.815-1.735,10.286,10.286,0,0,1,3.561-.609,9.953,9.953,0,0,1,1.461.122,8.678,8.678,0,0,1,1.491.411,7.02,7.02,0,0,1,1.415.746,5.021,5.021,0,0,1,1.2,1.141Z" transform="translate(129.314 -206.09)"/><path class="k" d="M-100.21,206.39h3.637v16.481h-3.637Z" transform="translate(135.075 -205.933)"/><path class="k" d="M-95.56,206.39h3.637v13.133H-85.2v3.348H-95.56Z" transform="translate(137.501 -205.933)"/><path class="k" d="M-87.46,206.39h3.637v16.481H-87.46Z" transform="translate(141.728 -205.933)"/><path class="k" d="M-79.2,209.6h-4.7V206.39h13.042V209.6h-4.7v13.27H-79.2V209.6Z" transform="translate(143.585 -205.933)"/><path class="k" d="M-74.03,206.39h11.2v3.348h-7.563v3.074h7.152v3.348h-7.152v3.348H-62.4v3.348H-74.03Z" transform="translate(148.735 -205.933)"/><path class="k" d="M-64.48,206.39H-58.1a11.063,11.063,0,0,1,2.389.244,5.778,5.778,0,0,1,1.978.822,4.15,4.15,0,0,1,1.354,1.537,5.163,5.163,0,0,1,.5,2.4,4.784,4.784,0,0,1-.913,2.967,4.121,4.121,0,0,1-2.648,1.552l4.185,6.97h-4.352l-3.439-6.589h-1.8v6.589H-64.48Zm3.637,6.833H-58.7c.32,0,.67-.015,1.035-.03a3.256,3.256,0,0,0,.989-.213,1.855,1.855,0,0,0,.73-.548,1.629,1.629,0,0,0,.289-1.05,1.75,1.75,0,0,0-.259-1,1.838,1.838,0,0,0-.654-.578,2.679,2.679,0,0,0-.913-.274,7.433,7.433,0,0,0-1-.076h-2.374v3.774Z" transform="translate(153.719 -205.933)"/></g><g transform="translate(0 49.255)"><g transform="translate(0 10.046) rotate(-64.024)"><path class="l" d="M6.617,10.315,1.839.5A.906.906,0,0,0,.637.089h0L.5.15a.906.906,0,0,0-.411,1.2l4.778,9.816a.906.906,0,0,0,1.2.411h0l.137-.061a.906.906,0,0,0,.411-1.2" transform="translate(1.925 0)"/><path class="l" d="M8.162,2.44,1.238.051A.9.9,0,0,0,.1.614L.051.766A.9.9,0,0,0,.614,1.908L7.538,4.3A.9.9,0,0,0,8.68,3.734h0L8.725,3.6A.906.906,0,0,0,8.162,2.44" transform="translate(0 7.738)"/><path class="l" d="M.045,7.548,2.435.608A.908.908,0,0,1,3.576.045h0l.137.046a.908.908,0,0,1,.563,1.141L1.887,8.172a.908.908,0,0,1-1.141.563h0L.593,8.689A.919.919,0,0,1,.045,7.548" transform="translate(6.854 3.255)"/></g></g><g transform="translate(0.005 97.286)"><g transform="translate(0 10.046) rotate(-64.024)"><path class="f" d="M6.618,10.315,1.839.5A.906.906,0,0,0,.637.089h0L.5.15a.906.906,0,0,0-.411,1.2l4.778,9.816a.906.906,0,0,0,1.2.411h0l.137-.061a.911.911,0,0,0,.411-1.2" transform="translate(1.925 0)"/><path class="f" d="M8.162,2.44,1.238.051A.9.9,0,0,0,.1.614L.051.766A.9.9,0,0,0,.614,1.908L7.538,4.3A.9.9,0,0,0,8.68,3.734h0L8.725,3.6A.9.9,0,0,0,8.162,2.44" transform="translate(0 7.738)"/><path class="f" d="M.051,7.548,2.44.608A.908.908,0,0,1,3.582.045h0l.137.046a.908.908,0,0,1,.563,1.141L1.893,8.172a.908.908,0,0,1-1.141.563h0L.6,8.689A.894.894,0,0,1,.051,7.548" transform="translate(6.848 3.24)"/></g></g></g><g transform="translate(664.27 231.619)"><g transform="translate(27.178 47.115)"><path class="j" d="M136.36,39.62h2.3v11.55h-2.3Z" transform="translate(-136.36 -39.62)"/><path class="j" d="M143.747,48.9h-.03a2.136,2.136,0,0,1-1.02.852,3.616,3.616,0,0,1-1.339.259,3.151,3.151,0,0,1-1-.152,2.393,2.393,0,0,1-.852-.441,2.037,2.037,0,0,1-.578-.715,2.3,2.3,0,0,1-.213-.989,2.141,2.141,0,0,1,.244-1.08,2.1,2.1,0,0,1,.639-.73,3.108,3.108,0,0,1,.928-.457A7.989,7.989,0,0,1,141.6,45.2c.365-.046.746-.076,1.111-.091s.715-.015,1.035-.015a1.165,1.165,0,0,0-.441-.974,1.564,1.564,0,0,0-1.035-.365,2.162,2.162,0,0,0-1.035.243,2.844,2.844,0,0,0-.837.654L139.182,43.4a4.252,4.252,0,0,1,1.491-.9,5.336,5.336,0,0,1,1.781-.3,4.685,4.685,0,0,1,1.659.259,2.279,2.279,0,0,1,1.035.746,2.919,2.919,0,0,1,.548,1.2,7.552,7.552,0,0,1,.152,1.644v3.774h-2.115V48.9Zm-.563-2.313c-.167,0-.4.015-.654.03a3.072,3.072,0,0,0-.746.137,1.779,1.779,0,0,0-.609.32.728.728,0,0,0-.259.594.667.667,0,0,0,.35.609,1.427,1.427,0,0,0,.73.2,2.344,2.344,0,0,0,.654-.091,2.124,2.124,0,0,0,.563-.259,1.326,1.326,0,0,0,.4-.426,1.283,1.283,0,0,0,.137-.609V46.6h-.563Z" transform="translate(-135.134 -38.274)"/><path class="j" d="M147.46,42.408h2.115v.974h.03a2.214,2.214,0,0,1,.365-.411,3.5,3.5,0,0,1,.517-.38,3.675,3.675,0,0,1,.654-.274,2.456,2.456,0,0,1,.746-.107,3.623,3.623,0,0,1,1.491.289,3.4,3.4,0,0,1,1.157.791,3.641,3.641,0,0,1,.746,1.217,4.589,4.589,0,0,1,.259,1.537,4.443,4.443,0,0,1-.244,1.491,4.017,4.017,0,0,1-.67,1.263,3.344,3.344,0,0,1-1.065.883,3.082,3.082,0,0,1-1.415.335,3.807,3.807,0,0,1-1.339-.228,2.182,2.182,0,0,1-1.02-.761h-.03V53.3h-2.3Zm2.1,3.713a1.893,1.893,0,0,0,.487,1.354,1.8,1.8,0,0,0,1.354.517,1.744,1.744,0,0,0,1.354-.517,1.944,1.944,0,0,0,.487-1.354,1.892,1.892,0,0,0-.487-1.354,1.8,1.8,0,0,0-1.354-.517,1.744,1.744,0,0,0-1.354.517A1.918,1.918,0,0,0,149.56,46.121Z" transform="translate(-130.568 -38.269)"/><path class="j" d="M153.65,42.408h2.3v1.187h.03a2.835,2.835,0,0,1,.867-1.035,2.206,2.206,0,0,1,1.263-.35,3.44,3.44,0,0,1,.4.015,2.282,2.282,0,0,1,.365.061v2.1c-.167-.046-.32-.091-.487-.122a2.62,2.62,0,0,0-.5-.03,2.379,2.379,0,0,0-1.035.183,1.319,1.319,0,0,0-.593.517,2.03,2.03,0,0,0-.274.791,6.845,6.845,0,0,0-.061,1v3.1h-2.3V42.408Z" transform="translate(-127.354 -38.269)"/><path class="j" d="M164.654,48.541a3.573,3.573,0,0,1-1.385,1.08,4.1,4.1,0,0,1-1.735.38,4.663,4.663,0,0,1-1.613-.274A3.781,3.781,0,0,1,157.73,47.7a3.943,3.943,0,0,1-.32-1.6,3.841,3.841,0,0,1,.32-1.6,3.741,3.741,0,0,1,.883-1.233,3.914,3.914,0,0,1,1.309-.791,4.664,4.664,0,0,1,1.613-.274,3.708,3.708,0,0,1,1.446.274,2.861,2.861,0,0,1,1.1.791,3.481,3.481,0,0,1,.7,1.233,4.825,4.825,0,0,1,.243,1.6v.715h-5.326a1.811,1.811,0,0,0,.593,1.05,1.694,1.694,0,0,0,1.126.4,1.731,1.731,0,0,0,.959-.259,2.532,2.532,0,0,0,.685-.654Zm-1.948-3.272a1.329,1.329,0,0,0-.38-.989,1.353,1.353,0,0,0-1.02-.411,1.812,1.812,0,0,0-.67.122,1.42,1.42,0,0,0-.5.32,1.315,1.315,0,0,0-.32.441,1.618,1.618,0,0,0-.137.533h3.028Z" transform="translate(-125.376 -38.269)"/><path class="j" d="M167.666,44.584a1.631,1.631,0,0,0-1.324-.624,1.23,1.23,0,0,0-.563.137.48.48,0,0,0-.274.472.432.432,0,0,0,.289.411,3.048,3.048,0,0,0,.715.228c.289.061.609.137.928.213a3.281,3.281,0,0,1,.928.365,2.009,2.009,0,0,1,.715.67,2.055,2.055,0,0,1,.289,1.126,2.093,2.093,0,0,1-.32,1.187,2.37,2.37,0,0,1-.807.746,3.612,3.612,0,0,1-1.1.4,6.576,6.576,0,0,1-1.2.122,5.581,5.581,0,0,1-1.567-.228,2.916,2.916,0,0,1-1.339-.791l1.385-1.537a2.424,2.424,0,0,0,.715.609,1.926,1.926,0,0,0,.913.213,1.813,1.813,0,0,0,.715-.122.433.433,0,0,0,.32-.426.47.47,0,0,0-.289-.441,3,3,0,0,0-.715-.243c-.289-.061-.594-.137-.928-.213a3.774,3.774,0,0,1-.928-.35,1.843,1.843,0,0,1-.715-.654,2.055,2.055,0,0,1-.289-1.126,2.166,2.166,0,0,1,.274-1.126,2.448,2.448,0,0,1,.7-.776,3.375,3.375,0,0,1,1-.457,4.9,4.9,0,0,1,1.141-.152,5.5,5.5,0,0,1,1.476.213,2.7,2.7,0,0,1,1.263.761Z" transform="translate(-122.438 -38.269)"/><path class="j" d="M172.316,44.584a1.63,1.63,0,0,0-1.324-.624,1.23,1.23,0,0,0-.563.137.48.48,0,0,0-.274.472.432.432,0,0,0,.289.411,3.047,3.047,0,0,0,.715.228c.289.061.609.137.928.213a3.281,3.281,0,0,1,.928.365,2.009,2.009,0,0,1,.715.67,2.055,2.055,0,0,1,.289,1.126,2.094,2.094,0,0,1-.32,1.187,2.37,2.37,0,0,1-.807.746,3.611,3.611,0,0,1-1.1.4,6.575,6.575,0,0,1-1.2.122,5.581,5.581,0,0,1-1.567-.228,2.916,2.916,0,0,1-1.339-.791l1.385-1.537a2.424,2.424,0,0,0,.715.609,1.926,1.926,0,0,0,.913.213,1.813,1.813,0,0,0,.715-.122.434.434,0,0,0,.32-.426.47.47,0,0,0-.289-.441,3,3,0,0,0-.715-.243c-.289-.061-.593-.137-.928-.213a3.775,3.775,0,0,1-.928-.35,1.843,1.843,0,0,1-.715-.654,2.055,2.055,0,0,1-.289-1.126,2.166,2.166,0,0,1,.274-1.126,2.448,2.448,0,0,1,.7-.776,3.375,3.375,0,0,1,1-.457,4.9,4.9,0,0,1,1.141-.152,5.5,5.5,0,0,1,1.476.213,2.7,2.7,0,0,1,1.263.761Z" transform="translate(-120.012 -38.269)"/><path class="j" d="M172.51,41.259a1.339,1.339,0,0,1,2.678,0,1.243,1.243,0,0,1-.4.944,1.325,1.325,0,0,1-.943.4,1.351,1.351,0,0,1-1.339-1.339Zm.183,2.344h2.3v7.426h-2.3Z" transform="translate(-117.497 -39.463)"/><path class="j" d="M175.04,46.116a3.841,3.841,0,0,1,.32-1.6,3.74,3.74,0,0,1,.883-1.233,3.914,3.914,0,0,1,1.309-.791,4.887,4.887,0,0,1,3.226,0,3.781,3.781,0,0,1,2.191,2.024,3.892,3.892,0,0,1,.32,1.6,3.842,3.842,0,0,1-.32,1.6,3.741,3.741,0,0,1-.883,1.233,4.071,4.071,0,0,1-1.309.791,4.887,4.887,0,0,1-3.226,0,3.781,3.781,0,0,1-2.191-2.024A3.943,3.943,0,0,1,175.04,46.116Zm2.3,0a1.893,1.893,0,0,0,.487,1.354,1.8,1.8,0,0,0,1.354.517,1.744,1.744,0,0,0,1.354-.517,1.944,1.944,0,0,0,.487-1.354,1.892,1.892,0,0,0-.487-1.354,1.8,1.8,0,0,0-1.354-.517,1.744,1.744,0,0,0-1.354.517A1.918,1.918,0,0,0,177.338,46.116Z" transform="translate(-116.177 -38.263)"/><path class="j" d="M181.355,42.4h2.207v1h.03a1.849,1.849,0,0,1,.3-.426,2.348,2.348,0,0,1,.472-.38,3.354,3.354,0,0,1,.624-.274,2.422,2.422,0,0,1,.761-.107,3.054,3.054,0,0,1,1.4.274,2.1,2.1,0,0,1,.837.746,3.119,3.119,0,0,1,.411,1.111,7.994,7.994,0,0,1,.107,1.385v4.094h-2.3V46.192c0-.213,0-.441-.015-.67a2.172,2.172,0,0,0-.137-.639,1.1,1.1,0,0,0-.35-.472,1.082,1.082,0,0,0-.685-.183,1.38,1.38,0,0,0-.715.167,1.145,1.145,0,0,0-.426.426,1.6,1.6,0,0,0-.2.609,5.237,5.237,0,0,0-.046.7v3.7h-2.3V42.4Z" transform="translate(-112.889 -38.263)"/><path class="j" d="M195.2,44.8a1.251,1.251,0,0,0-.472-.411,1.394,1.394,0,0,0-.654-.167,1.744,1.744,0,0,0-1.354.517,1.944,1.944,0,0,0-.487,1.354,1.893,1.893,0,0,0,.487,1.354,1.8,1.8,0,0,0,1.354.517,1.265,1.265,0,0,0,.654-.167,1.977,1.977,0,0,0,.472-.4l1.507,1.583a2.94,2.94,0,0,1-1.263.776,4.605,4.605,0,0,1-3-.046,3.781,3.781,0,0,1-2.191-2.024,3.942,3.942,0,0,1-.32-1.6,3.841,3.841,0,0,1,.32-1.6,3.739,3.739,0,0,1,.883-1.233,3.913,3.913,0,0,1,1.309-.791,4.605,4.605,0,0,1,3-.046,3.033,3.033,0,0,1,1.263.776Z" transform="translate(-108.407 -38.274)"/><path class="j" d="M194.83,41.259a1.339,1.339,0,0,1,2.678,0,1.243,1.243,0,0,1-.4.944,1.325,1.325,0,0,1-.944.4,1.3,1.3,0,0,1-.943-.4A1.243,1.243,0,0,1,194.83,41.259Zm.183,2.344h2.3v7.426h-2.3Z" transform="translate(-105.85 -39.463)"/><path class="j" d="M202.832,44.928h-2.024v2.481c0,.2.015.4.03.563a1,1,0,0,0,.137.441.788.788,0,0,0,.335.289,1.621,1.621,0,0,0,.594.091c.122,0,.289-.015.487-.03a.9.9,0,0,0,.457-.183v1.9a3.515,3.515,0,0,1-.791.183,7.37,7.37,0,0,1-.807.046,4.654,4.654,0,0,1-1.065-.122,2.311,2.311,0,0,1-.852-.4,1.861,1.861,0,0,1-.578-.7,2.413,2.413,0,0,1-.213-1.035V44.928H197.08V43.087h1.461V40.88h2.3v2.207h2.024v1.841Z" transform="translate(-104.676 -38.963)"/><path class="j" d="M201.44,46.116a3.841,3.841,0,0,1,.32-1.6,3.74,3.74,0,0,1,.883-1.233,3.914,3.914,0,0,1,1.309-.791,4.887,4.887,0,0,1,3.226,0,3.781,3.781,0,0,1,2.191,2.024,3.892,3.892,0,0,1,.32,1.6,3.841,3.841,0,0,1-.32,1.6,3.741,3.741,0,0,1-.883,1.233,4.071,4.071,0,0,1-1.309.791,4.887,4.887,0,0,1-3.226,0,3.781,3.781,0,0,1-2.191-2.024A3.943,3.943,0,0,1,201.44,46.116Zm2.3,0a1.893,1.893,0,0,0,.487,1.354,1.8,1.8,0,0,0,1.354.517,1.744,1.744,0,0,0,1.354-.517,1.944,1.944,0,0,0,.487-1.354,1.893,1.893,0,0,0-.487-1.354,1.8,1.8,0,0,0-1.354-.517,1.744,1.744,0,0,0-1.354.517A1.918,1.918,0,0,0,203.738,46.116Z" transform="translate(-102.401 -38.263)"/><path class="j" d="M212.287,50.974c-.152.4-.3.746-.441,1.05a2.386,2.386,0,0,1-.548.776,2.145,2.145,0,0,1-.837.472,4.453,4.453,0,0,1-1.324.167,5.331,5.331,0,0,1-1.7-.274l.3-1.887a2.631,2.631,0,0,0,1.065.228,1.8,1.8,0,0,0,.624-.091,1.092,1.092,0,0,0,.411-.243,1.521,1.521,0,0,0,.274-.4c.076-.152.152-.335.228-.533l.167-.426L207.25,42.33h2.481l1.9,4.9h.03l1.628-4.9h2.359Z" transform="translate(-99.369 -38.206)"/><path class="j" d="M220.434,48.541a3.573,3.573,0,0,1-1.385,1.08,4.1,4.1,0,0,1-1.735.38,4.663,4.663,0,0,1-1.613-.274A3.781,3.781,0,0,1,213.51,47.7a3.943,3.943,0,0,1-.32-1.6,3.842,3.842,0,0,1,.32-1.6,3.74,3.74,0,0,1,.883-1.233,3.914,3.914,0,0,1,1.309-.791,4.664,4.664,0,0,1,1.613-.274,3.708,3.708,0,0,1,1.446.274,2.86,2.86,0,0,1,1.1.791,3.481,3.481,0,0,1,.7,1.233,4.825,4.825,0,0,1,.244,1.6v.715h-5.326a1.811,1.811,0,0,0,.594,1.05,1.694,1.694,0,0,0,1.126.4,1.731,1.731,0,0,0,.959-.259,2.532,2.532,0,0,0,.685-.654ZM218.5,45.269a1.329,1.329,0,0,0-.38-.989,1.353,1.353,0,0,0-1.02-.411,1.812,1.812,0,0,0-.67.122,1.42,1.42,0,0,0-.5.32,1.315,1.315,0,0,0-.32.441,1.617,1.617,0,0,0-.137.533H218.5Z" transform="translate(-96.27 -38.269)"/><path class="j" d="M219.105,42.4h2.207v1h.03a1.85,1.85,0,0,1,.3-.426,2.348,2.348,0,0,1,.472-.38,3.352,3.352,0,0,1,.624-.274,2.421,2.421,0,0,1,.761-.107,3.054,3.054,0,0,1,1.4.274,2.1,2.1,0,0,1,.837.746,3.118,3.118,0,0,1,.411,1.111,8,8,0,0,1,.107,1.385v4.094h-2.3V46.192c0-.213,0-.441-.015-.67a2.175,2.175,0,0,0-.137-.639,1.1,1.1,0,0,0-.35-.472,1.082,1.082,0,0,0-.685-.183,1.38,1.38,0,0,0-.715.167,1.145,1.145,0,0,0-.426.426,1.6,1.6,0,0,0-.2.609,5.24,5.24,0,0,0-.046.7v3.7h-2.3V42.4Z" transform="translate(-93.191 -38.263)"/><path class="j" d="M224.865,42.4h2.207v1h.03a1.849,1.849,0,0,1,.3-.426,2.348,2.348,0,0,1,.472-.38,3.353,3.353,0,0,1,.624-.274,2.422,2.422,0,0,1,.761-.107,3.054,3.054,0,0,1,1.4.274,2.1,2.1,0,0,1,.837.746,3.118,3.118,0,0,1,.411,1.111,7.989,7.989,0,0,1,.107,1.385v4.094h-2.3V46.192c0-.213,0-.441-.015-.67a2.172,2.172,0,0,0-.137-.639,1.1,1.1,0,0,0-.35-.472,1.082,1.082,0,0,0-.685-.183,1.381,1.381,0,0,0-.715.167,1.145,1.145,0,0,0-.426.426,1.6,1.6,0,0,0-.2.609,5.242,5.242,0,0,0-.046.7v3.7h-2.3V42.4Z" transform="translate(-90.185 -38.263)"/><path class="j" d="M237.724,48.541a3.573,3.573,0,0,1-1.385,1.08A4.1,4.1,0,0,1,234.6,50a4.663,4.663,0,0,1-1.613-.274A3.781,3.781,0,0,1,230.8,47.7a3.943,3.943,0,0,1-.32-1.6,3.842,3.842,0,0,1,.32-1.6,3.74,3.74,0,0,1,.883-1.233,3.914,3.914,0,0,1,1.309-.791,4.664,4.664,0,0,1,1.613-.274,3.708,3.708,0,0,1,1.446.274,2.861,2.861,0,0,1,1.1.791,3.481,3.481,0,0,1,.7,1.233,4.825,4.825,0,0,1,.243,1.6v.715h-5.326a1.811,1.811,0,0,0,.594,1.05,1.694,1.694,0,0,0,1.126.4,1.731,1.731,0,0,0,.959-.259,2.532,2.532,0,0,0,.685-.654Zm-1.933-3.272a1.329,1.329,0,0,0-.38-.989,1.353,1.353,0,0,0-1.02-.411,1.812,1.812,0,0,0-.67.122,1.42,1.42,0,0,0-.5.32,1.315,1.315,0,0,0-.32.441,1.617,1.617,0,0,0-.137.533h3.028Z" transform="translate(-87.248 -38.269)"/></g><g transform="translate(27.178 75.055)"><path class="j" d="M136.36,57.98h2.3V69.531h-2.3Z" transform="translate(-136.36 -57.98)"/><path class="j" d="M146.054,66.9a3.573,3.573,0,0,1-1.385,1.08,4.1,4.1,0,0,1-1.735.38,4.663,4.663,0,0,1-1.613-.274,3.781,3.781,0,0,1-2.191-2.024,3.943,3.943,0,0,1-.32-1.6,3.841,3.841,0,0,1,.32-1.6,3.74,3.74,0,0,1,.883-1.233,3.913,3.913,0,0,1,1.309-.791,4.664,4.664,0,0,1,1.613-.274,3.708,3.708,0,0,1,1.446.274,2.861,2.861,0,0,1,1.1.791,3.481,3.481,0,0,1,.7,1.233,4.824,4.824,0,0,1,.243,1.6v.715h-5.326a1.811,1.811,0,0,0,.593,1.05,1.694,1.694,0,0,0,1.126.4,1.731,1.731,0,0,0,.959-.259,2.532,2.532,0,0,0,.685-.654Zm-1.933-3.272a1.329,1.329,0,0,0-.38-.989,1.353,1.353,0,0,0-1.02-.411,1.812,1.812,0,0,0-.67.122,1.421,1.421,0,0,0-.5.32,1.316,1.316,0,0,0-.32.441,1.619,1.619,0,0,0-.137.533h3.028Z" transform="translate(-135.082 -56.629)"/><path class="j" d="M149.066,62.944a1.631,1.631,0,0,0-1.324-.624,1.23,1.23,0,0,0-.563.137.48.48,0,0,0-.274.472.432.432,0,0,0,.289.411,3.047,3.047,0,0,0,.715.228c.289.061.609.137.928.213a3.281,3.281,0,0,1,.928.365,2.009,2.009,0,0,1,.715.67,2.055,2.055,0,0,1,.289,1.126,2.093,2.093,0,0,1-.32,1.187,2.37,2.37,0,0,1-.807.746,3.611,3.611,0,0,1-1.1.4,6.575,6.575,0,0,1-1.2.122,5.581,5.581,0,0,1-1.567-.228,2.916,2.916,0,0,1-1.339-.791l1.385-1.537a2.424,2.424,0,0,0,.715.609,1.926,1.926,0,0,0,.913.213,1.813,1.813,0,0,0,.715-.122.433.433,0,0,0,.32-.426.47.47,0,0,0-.289-.441,3,3,0,0,0-.715-.243c-.289-.061-.594-.137-.928-.213a3.775,3.775,0,0,1-.928-.35,1.843,1.843,0,0,1-.715-.654,2.055,2.055,0,0,1-.289-1.126,2.166,2.166,0,0,1,.274-1.126,2.448,2.448,0,0,1,.7-.776,3.376,3.376,0,0,1,1-.457,4.9,4.9,0,0,1,1.141-.152,5.5,5.5,0,0,1,1.476.213,2.7,2.7,0,0,1,1.263.761Z" transform="translate(-132.144 -56.629)"/><path class="j" d="M156.686,62.944a1.63,1.63,0,0,0-1.324-.624,1.229,1.229,0,0,0-.563.137.48.48,0,0,0-.274.472.432.432,0,0,0,.289.411,3.046,3.046,0,0,0,.715.228c.289.061.609.137.928.213a3.282,3.282,0,0,1,.928.365,2.009,2.009,0,0,1,.715.67,2.055,2.055,0,0,1,.289,1.126,2.094,2.094,0,0,1-.32,1.187,2.37,2.37,0,0,1-.807.746,3.611,3.611,0,0,1-1.1.4,6.575,6.575,0,0,1-1.2.122,5.581,5.581,0,0,1-1.567-.228,2.916,2.916,0,0,1-1.339-.791l1.385-1.537a2.424,2.424,0,0,0,.715.609,1.926,1.926,0,0,0,.913.213,1.813,1.813,0,0,0,.715-.122.433.433,0,0,0,.32-.426.47.47,0,0,0-.289-.441,3,3,0,0,0-.715-.243c-.289-.061-.594-.137-.928-.213a3.774,3.774,0,0,1-.928-.35,1.843,1.843,0,0,1-.715-.654,2.055,2.055,0,0,1-.289-1.126,2.166,2.166,0,0,1,.274-1.126,2.448,2.448,0,0,1,.7-.776,3.376,3.376,0,0,1,1-.457,4.9,4.9,0,0,1,1.141-.152,5.5,5.5,0,0,1,1.476.213,2.7,2.7,0,0,1,1.263.761Z" transform="translate(-128.168 -56.629)"/><path class="j" d="M156.81,64.466a3.841,3.841,0,0,1,.32-1.6,3.741,3.741,0,0,1,.883-1.233,3.914,3.914,0,0,1,1.309-.791,4.887,4.887,0,0,1,3.226,0,3.781,3.781,0,0,1,2.191,2.024,3.891,3.891,0,0,1,.32,1.6,3.841,3.841,0,0,1-.32,1.6,3.74,3.74,0,0,1-.883,1.233,4.07,4.07,0,0,1-1.309.791,4.887,4.887,0,0,1-3.226,0,3.781,3.781,0,0,1-2.191-2.024A3.892,3.892,0,0,1,156.81,64.466Zm2.283,0a1.893,1.893,0,0,0,.487,1.354,1.8,1.8,0,0,0,1.354.517,1.744,1.744,0,0,0,1.354-.517,1.944,1.944,0,0,0,.487-1.354,1.893,1.893,0,0,0-.487-1.354,1.8,1.8,0,0,0-1.354-.517,1.744,1.744,0,0,0-1.354.517A1.918,1.918,0,0,0,159.093,64.466Z" transform="translate(-125.689 -56.629)"/><path class="j" d="M163.13,57.98h2.3V69.531h-2.3Z" transform="translate(-122.391 -57.98)"/><path class="j" d="M172.878,68.116h-2.207v-1h-.03a1.946,1.946,0,0,1-.32.426,1.987,1.987,0,0,1-.472.38,3.353,3.353,0,0,1-.624.274,2.421,2.421,0,0,1-.761.107,3.168,3.168,0,0,1-1.415-.274,2,2,0,0,1-.837-.746,2.841,2.841,0,0,1-.4-1.111,9.844,9.844,0,0,1-.107-1.385V60.69h2.3v3.637c0,.213.015.441.03.67a2.174,2.174,0,0,0,.137.639,1.1,1.1,0,0,0,.35.472,1.082,1.082,0,0,0,.685.183,1.42,1.42,0,0,0,.715-.167,1.145,1.145,0,0,0,.426-.426,1.581,1.581,0,0,0,.183-.609,5.237,5.237,0,0,0,.046-.7v-3.7h2.3v7.426Z" transform="translate(-121.045 -56.566)"/><path class="j" d="M176.782,63.288h-2.024v2.481c0,.2.015.4.03.563a1,1,0,0,0,.137.441.788.788,0,0,0,.335.289,1.621,1.621,0,0,0,.593.091c.122,0,.289-.015.487-.03a.9.9,0,0,0,.457-.183v1.9a3.518,3.518,0,0,1-.791.183,7.37,7.37,0,0,1-.807.046,4.654,4.654,0,0,1-1.065-.122,2.311,2.311,0,0,1-.852-.4,1.86,1.86,0,0,1-.578-.7,2.414,2.414,0,0,1-.213-1.035V63.288H171.03V61.447h1.461V59.24h2.3v2.207h2.024v1.841Z" transform="translate(-118.269 -57.323)"/><path class="j" d="M175.48,59.619a1.339,1.339,0,0,1,2.678,0,1.243,1.243,0,0,1-.4.944,1.325,1.325,0,0,1-.944.4,1.3,1.3,0,0,1-.943-.4A1.266,1.266,0,0,1,175.48,59.619Zm.183,2.328h2.3v7.426h-2.3Z" transform="translate(-115.947 -57.823)"/><path class="j" d="M178.01,64.466a3.842,3.842,0,0,1,.32-1.6,3.741,3.741,0,0,1,.883-1.233,3.914,3.914,0,0,1,1.309-.791,4.887,4.887,0,0,1,3.226,0,3.781,3.781,0,0,1,2.191,2.024,3.891,3.891,0,0,1,.32,1.6,3.841,3.841,0,0,1-.32,1.6,3.74,3.74,0,0,1-.883,1.233,4.07,4.07,0,0,1-1.309.791,4.887,4.887,0,0,1-3.226,0,3.781,3.781,0,0,1-2.191-2.024A3.892,3.892,0,0,1,178.01,64.466Zm2.283,0a1.893,1.893,0,0,0,.487,1.354,1.8,1.8,0,0,0,1.354.517,1.744,1.744,0,0,0,1.354-.517,1.944,1.944,0,0,0,.487-1.354,1.893,1.893,0,0,0-.487-1.354,1.8,1.8,0,0,0-1.354-.517,1.744,1.744,0,0,0-1.354.517A1.918,1.918,0,0,0,180.293,64.466Z" transform="translate(-114.627 -56.629)"/><path class="j" d="M184.315,60.753h2.207v1h.03a1.849,1.849,0,0,1,.3-.426,2.348,2.348,0,0,1,.472-.38,3.353,3.353,0,0,1,.624-.274,2.422,2.422,0,0,1,.761-.107,3.054,3.054,0,0,1,1.4.274,2.1,2.1,0,0,1,.837.746,3.119,3.119,0,0,1,.411,1.111,8,8,0,0,1,.107,1.385v4.094h-2.3V64.542c0-.213,0-.441-.015-.67a2.173,2.173,0,0,0-.137-.639,1.1,1.1,0,0,0-.35-.472,1.082,1.082,0,0,0-.685-.183,1.38,1.38,0,0,0-.715.167,1.145,1.145,0,0,0-.426.426,1.6,1.6,0,0,0-.2.609,5.237,5.237,0,0,0-.046.7v3.7h-2.3V60.753Z" transform="translate(-111.345 -56.629)"/><path class="j" d="M194.426,62.944a1.63,1.63,0,0,0-1.324-.624,1.229,1.229,0,0,0-.563.137.48.48,0,0,0-.274.472.432.432,0,0,0,.289.411,3.046,3.046,0,0,0,.715.228c.289.061.609.137.928.213a3.282,3.282,0,0,1,.928.365,2.009,2.009,0,0,1,.715.67,2.055,2.055,0,0,1,.289,1.126,2.094,2.094,0,0,1-.32,1.187,2.37,2.37,0,0,1-.807.746,3.611,3.611,0,0,1-1.1.4,6.574,6.574,0,0,1-1.2.122,5.581,5.581,0,0,1-1.567-.228,2.916,2.916,0,0,1-1.339-.791l1.385-1.537a2.425,2.425,0,0,0,.715.609,1.926,1.926,0,0,0,.913.213,1.813,1.813,0,0,0,.715-.122.433.433,0,0,0,.32-.426.47.47,0,0,0-.289-.441,3,3,0,0,0-.715-.243c-.289-.061-.594-.137-.928-.213a3.774,3.774,0,0,1-.928-.35,1.844,1.844,0,0,1-.715-.654,2.055,2.055,0,0,1-.289-1.126,2.166,2.166,0,0,1,.274-1.126,2.448,2.448,0,0,1,.7-.776,3.375,3.375,0,0,1,1-.457,4.9,4.9,0,0,1,1.141-.152,5.5,5.5,0,0,1,1.476.213,2.7,2.7,0,0,1,1.263.761Z" transform="translate(-108.475 -56.629)"/></g><g transform="translate(26.965 95.432)"><path class="j" d="M143.814,80.4a3.886,3.886,0,0,1-1.461,1.141,4.3,4.3,0,0,1-1.826.4,4.807,4.807,0,0,1-1.689-.289,4.11,4.11,0,0,1-1.37-.822,3.571,3.571,0,0,1-.913-1.294,4.013,4.013,0,0,1-.335-1.674,3.964,3.964,0,0,1,.335-1.674,4.148,4.148,0,0,1,.913-1.294,3.788,3.788,0,0,1,1.37-.822,4.808,4.808,0,0,1,1.689-.289,3.7,3.7,0,0,1,1.507.289,3.337,3.337,0,0,1,1.157.822,3.584,3.584,0,0,1,.73,1.294,5.291,5.291,0,0,1,.259,1.674V78.6h-5.57a1.888,1.888,0,0,0,.624,1.1,1.76,1.76,0,0,0,1.187.411,1.894,1.894,0,0,0,1-.259,2.536,2.536,0,0,0,.715-.685Zm-2.039-3.424a1.364,1.364,0,0,0-.4-1.035,1.422,1.422,0,0,0-1.08-.426,1.982,1.982,0,0,0-.7.122,1.785,1.785,0,0,0-.517.335,1.481,1.481,0,0,0-.335.472,1.81,1.81,0,0,0-.137.548h3.165Z" transform="translate(-136.22 -70.112)"/><path class="j" d="M144.834,77.522,142.247,73.9h2.831l1.37,2.115,1.324-2.115h2.678l-2.526,3.622,3,4.17h-2.831l-1.7-2.587-1.826,2.587h-2.8Z" transform="translate(-133.329 -70.05)"/><path class="j" d="M148.15,72.77a1.357,1.357,0,0,1,.411-.989,1.332,1.332,0,0,1,.989-.411,1.357,1.357,0,0,1,.989.411,1.332,1.332,0,0,1,.411.989,1.356,1.356,0,0,1-.411.989,1.332,1.332,0,0,1-.989.411,1.4,1.4,0,0,1-1.4-1.4Zm.2,2.45h2.4V83h-2.4Z" transform="translate(-129.995 -71.37)"/><path class="j" d="M155.565,76.245a1.7,1.7,0,0,0-1.4-.654,1.406,1.406,0,0,0-.593.137.5.5,0,0,0-.289.5.437.437,0,0,0,.289.426,4.289,4.289,0,0,0,.746.243c.3.076.624.137.974.228a3.6,3.6,0,0,1,.974.38,2.187,2.187,0,0,1,.746.7,2.057,2.057,0,0,1,.289,1.172,2.151,2.151,0,0,1-.335,1.248,2.593,2.593,0,0,1-.837.791,3.481,3.481,0,0,1-1.157.411,7.239,7.239,0,0,1-1.263.122,6.116,6.116,0,0,1-1.644-.228,3.085,3.085,0,0,1-1.415-.822l1.461-1.613a2.652,2.652,0,0,0,.746.639,2.119,2.119,0,0,0,.959.213,2.252,2.252,0,0,0,.746-.122.452.452,0,0,0,.335-.441.491.491,0,0,0-.289-.457,3.249,3.249,0,0,0-.746-.259c-.3-.076-.624-.137-.974-.228a3.572,3.572,0,0,1-.974-.365,1.889,1.889,0,0,1-.746-.685,2.057,2.057,0,0,1-.289-1.172,2.443,2.443,0,0,1,.274-1.187,2.377,2.377,0,0,1,.73-.822,3.3,3.3,0,0,1,1.05-.472,4.569,4.569,0,0,1,1.2-.152,5.478,5.478,0,0,1,1.552.228,2.844,2.844,0,0,1,1.324.807Z" transform="translate(-128.69 -70.112)"/><path class="j" d="M161.417,76.611H159.3V79.2c0,.213.015.411.03.578a1.242,1.242,0,0,0,.137.457.672.672,0,0,0,.35.289,1.77,1.77,0,0,0,.624.107,3.776,3.776,0,0,0,.5-.046.9.9,0,0,0,.472-.183v1.994a3.942,3.942,0,0,1-.837.2,8.215,8.215,0,0,1-.852.046,5.212,5.212,0,0,1-1.126-.122,2.853,2.853,0,0,1-.9-.411,1.756,1.756,0,0,1-.593-.73,2.6,2.6,0,0,1-.213-1.1v-3.7H155.36V74.693H156.9V72.38h2.4v2.313h2.115Z" transform="translate(-126.233 -70.843)"/><path class="j" d="M165.155,80.765h-.03a2.344,2.344,0,0,1-1.065.9,3.644,3.644,0,0,1-1.4.274,3.438,3.438,0,0,1-1.05-.152,2.7,2.7,0,0,1-.883-.457,2.228,2.228,0,0,1-.609-.746,2.253,2.253,0,0,1-.228-1.035,2.429,2.429,0,0,1,.243-1.141,2.305,2.305,0,0,1,.67-.761,3.4,3.4,0,0,1,.974-.472,7.069,7.069,0,0,1,1.126-.243,10.124,10.124,0,0,1,1.172-.091c.4-.015.746-.015,1.08-.015a1.266,1.266,0,0,0-.457-1.02,1.7,1.7,0,0,0-1.08-.38,2.3,2.3,0,0,0-1.08.243,3.079,3.079,0,0,0-.867.685l-1.278-1.309a4.545,4.545,0,0,1,1.568-.944,5.474,5.474,0,0,1,1.857-.32,5.085,5.085,0,0,1,1.735.259,2.509,2.509,0,0,1,1.081.776,3.109,3.109,0,0,1,.563,1.263,8.3,8.3,0,0,1,.152,1.72v3.957H165.14v-.989Zm-.594-2.435c-.183,0-.411.015-.685.03a3.449,3.449,0,0,0-.791.137,1.832,1.832,0,0,0-.639.335.745.745,0,0,0-.259.624.683.683,0,0,0,.365.639,1.567,1.567,0,0,0,.776.213,2.648,2.648,0,0,0,.685-.091,1.844,1.844,0,0,0,.578-.274A1.425,1.425,0,0,0,165,79.5a1.242,1.242,0,0,0,.152-.639v-.517h-.594Z" transform="translate(-123.869 -70.112)"/><path class="j" d="M165.79,73.963h2.3v1.05h.03a1.709,1.709,0,0,1,.32-.441,2.222,2.222,0,0,1,.5-.4,3.69,3.69,0,0,1,.654-.289,2.723,2.723,0,0,1,.807-.107,3.408,3.408,0,0,1,1.476.274,1.963,1.963,0,0,1,.867.776A3.07,3.07,0,0,1,173.171,76a8.787,8.787,0,0,1,.107,1.461v4.291h-2.4v-3.8c0-.228-.015-.457-.03-.7a2.381,2.381,0,0,0-.137-.67,1.193,1.193,0,0,0-.365-.5,1.177,1.177,0,0,0-.715-.2,1.5,1.5,0,0,0-.746.167,1.119,1.119,0,0,0-.441.441,1.66,1.66,0,0,0-.2.639,5.709,5.709,0,0,0-.046.73v3.881h-2.4Z" transform="translate(-120.79 -70.112)"/><path class="j" d="M177.387,76.611h-2.115V79.2c0,.213.015.411.03.578a1.242,1.242,0,0,0,.137.457.672.672,0,0,0,.35.289,1.77,1.77,0,0,0,.624.107,3.776,3.776,0,0,0,.5-.046.9.9,0,0,0,.472-.183v1.994a3.942,3.942,0,0,1-.837.2,8.214,8.214,0,0,1-.852.046,5.212,5.212,0,0,1-1.126-.122,2.854,2.854,0,0,1-.9-.411,1.756,1.756,0,0,1-.594-.73,2.6,2.6,0,0,1-.213-1.1v-3.7H171.33V74.693h1.537V72.38h2.4v2.313h2.115Z" transform="translate(-117.899 -70.843)"/><path class="j" d="M183.554,80.4a3.886,3.886,0,0,1-1.461,1.141,4.3,4.3,0,0,1-1.826.4,4.807,4.807,0,0,1-1.689-.289,4.11,4.11,0,0,1-1.37-.822,3.571,3.571,0,0,1-.913-1.294,4.013,4.013,0,0,1-.335-1.674,3.964,3.964,0,0,1,.335-1.674,4.147,4.147,0,0,1,.913-1.294,3.788,3.788,0,0,1,1.37-.822,4.808,4.808,0,0,1,1.689-.289,3.7,3.7,0,0,1,1.507.289,3.336,3.336,0,0,1,1.157.822,3.583,3.583,0,0,1,.73,1.294,5.291,5.291,0,0,1,.259,1.674V78.6h-5.57a1.888,1.888,0,0,0,.624,1.1,1.76,1.76,0,0,0,1.187.411,1.894,1.894,0,0,0,1-.259,2.536,2.536,0,0,0,.715-.685Zm-2.024-3.424a1.364,1.364,0,0,0-.4-1.035,1.422,1.422,0,0,0-1.08-.426,1.982,1.982,0,0,0-.7.122,1.784,1.784,0,0,0-.517.335,1.48,1.48,0,0,0-.335.472,1.809,1.809,0,0,0-.137.548h3.165Z" transform="translate(-115.483 -70.112)"/><path class="j" d="M186.725,76.245a1.7,1.7,0,0,0-1.4-.654,1.406,1.406,0,0,0-.593.137.5.5,0,0,0-.289.5.437.437,0,0,0,.289.426,4.288,4.288,0,0,0,.746.243c.3.076.624.137.974.228a3.6,3.6,0,0,1,.974.38,2.187,2.187,0,0,1,.746.7,2.057,2.057,0,0,1,.289,1.172,2.151,2.151,0,0,1-.335,1.248,2.592,2.592,0,0,1-.837.791,3.481,3.481,0,0,1-1.157.411,7.239,7.239,0,0,1-1.263.122,6.116,6.116,0,0,1-1.644-.228,3.085,3.085,0,0,1-1.415-.822l1.461-1.613a2.652,2.652,0,0,0,.746.639,2.119,2.119,0,0,0,.959.213,2.252,2.252,0,0,0,.746-.122.452.452,0,0,0,.335-.441.491.491,0,0,0-.289-.457,3.248,3.248,0,0,0-.746-.259c-.3-.076-.624-.137-.974-.228a3.571,3.571,0,0,1-.974-.365,1.89,1.89,0,0,1-.746-.685,2.057,2.057,0,0,1-.289-1.172,2.442,2.442,0,0,1,.274-1.187,2.377,2.377,0,0,1,.73-.822,3.305,3.305,0,0,1,1.05-.472,4.569,4.569,0,0,1,1.2-.152,5.478,5.478,0,0,1,1.552.228,2.844,2.844,0,0,1,1.324.807Z" transform="translate(-112.431 -70.112)"/></g><g transform="translate(8.323 0)"><path class="k" d="M131.092,8.66h3l7.168,16.481h-4.094l-1.415-3.5h-6.407l-1.37,3.5h-4Zm1.4,4.794-2.009,5.128h4.033Z" transform="translate(-123.97 -8.66)"/><path class="k" d="M136.435,8.66h5.494l3.789,10.759h.046l3.82-10.759h5.479V25.141h-3.637V12.495h-.046l-4.337,12.646h-2.77L140.1,12.495h-.046V25.141H136.42V8.66Z" transform="translate(-117.474 -8.66)"/><path class="k" d="M150.87,8.66h6.118a12.323,12.323,0,0,1,2.42.228,5.441,5.441,0,0,1,1.994.807,4.15,4.15,0,0,1,1.354,1.537,5.252,5.252,0,0,1,.5,2.435,5.489,5.489,0,0,1-.472,2.42,3.937,3.937,0,0,1-1.278,1.567,4.928,4.928,0,0,1-1.933.822,11.05,11.05,0,0,1-2.42.243h-2.648v6.422H150.87Zm3.637,6.985h2.42a4.838,4.838,0,0,0,.944-.091,2.437,2.437,0,0,0,.822-.32,1.589,1.589,0,0,0,.578-.609,1.883,1.883,0,0,0,.228-.974,1.622,1.622,0,0,0-.289-1.02,1.9,1.9,0,0,0-.746-.594,3.459,3.459,0,0,0-1.02-.274,8.828,8.828,0,0,0-1.065-.061h-1.857v3.941Z" transform="translate(-109.933 -8.66)"/><path class="k" d="M160.6,8.66h3.637V21.793h6.726v3.348H160.6Z" transform="translate(-104.856 -8.66)"/><path class="k" d="M168.7,8.66h3.637V25.141H168.7Z" transform="translate(-100.63 -8.66)"/><path class="k" d="M173.35,8.66h11.064v3.348h-7.426v3.348h6.863V18.7h-6.863v6.422H173.35Z" transform="translate(-98.203 -8.66)"/><path class="k" d="M182.3,8.66h3.637V25.141H182.3Z" transform="translate(-93.533 -8.66)"/><path class="k" d="M186.95,8.66h11.2v3.348h-7.563v3.074h7.152V18.43h-7.152v3.348h7.989v3.348H186.95Z" transform="translate(-91.107 -8.66)"/><path class="k" d="M196.5,8.66h6.376a11.062,11.062,0,0,1,2.389.243,5.778,5.778,0,0,1,1.978.822,4.15,4.15,0,0,1,1.354,1.537,5.163,5.163,0,0,1,.5,2.4,4.784,4.784,0,0,1-.913,2.968,4.121,4.121,0,0,1-2.648,1.552l4.185,6.97h-4.352l-3.439-6.589h-1.8v6.589H196.5Zm3.637,6.818h2.146c.32,0,.67-.015,1.035-.03a3.256,3.256,0,0,0,.989-.213,1.855,1.855,0,0,0,.73-.548,1.629,1.629,0,0,0,.289-1.05,1.75,1.75,0,0,0-.259-1,1.839,1.839,0,0,0-.654-.578,2.68,2.68,0,0,0-.913-.274,7.437,7.437,0,0,0-1-.076h-2.374v3.774Z" transform="translate(-86.123 -8.66)"/></g><g transform="translate(0 46.24)"><g transform="translate(0 10.046) rotate(-64.024)"><path class="h" d="M6.618,10.315,1.839.5A.906.906,0,0,0,.637.089h0L.5.15a.906.906,0,0,0-.411,1.2l4.778,9.816a.906.906,0,0,0,1.2.411h0l.137-.061a.9.9,0,0,0,.411-1.2" transform="translate(1.925 0)"/><path class="h" d="M8.162,2.44,1.238.051A.9.9,0,0,0,.1.614L.051.766A.9.9,0,0,0,.614,1.908L7.538,4.3A.9.9,0,0,0,8.68,3.734h0L8.725,3.6A.925.925,0,0,0,8.162,2.44" transform="translate(0 7.738)"/><path class="h" d="M.051,7.548,2.44.608A.908.908,0,0,1,3.582.045h0l.137.046a.908.908,0,0,1,.563,1.141L1.893,8.172a.908.908,0,0,1-1.141.563h0L.6,8.689A.9.9,0,0,1,.051,7.548" transform="translate(6.848 3.255)"/></g></g><g transform="translate(0.007 75.354)"><g transform="translate(0 10.033) rotate(-64.024)"><path class="g" d="M6.618,10.315,1.839.5A.906.906,0,0,0,.637.089h0L.5.15a.906.906,0,0,0-.411,1.2l4.778,9.816a.906.906,0,0,0,1.2.411h0l.137-.061a.9.9,0,0,0,.411-1.2" transform="translate(1.91 0)"/><path class="g" d="M8.162,2.44,1.238.051A.9.9,0,0,0,.1.614L.051.766A.9.9,0,0,0,.614,1.908L7.538,4.3A.9.9,0,0,0,8.68,3.734h0L8.725,3.6A.938.938,0,0,0,8.162,2.44" transform="translate(0 7.738)"/><path class="g" d="M.045,7.548,2.435.608A.908.908,0,0,1,3.576.045h0l.137.046a.908.908,0,0,1,.563,1.141L1.887,8.172a.908.908,0,0,1-1.141.563h0L.593,8.689A.913.913,0,0,1,.045,7.548" transform="translate(6.839 3.255)"/></g></g></g></g></g></svg>