<svg xmlns="http://www.w3.org/2000/svg" width="13.688" height="13.003" viewBox="0 0 13.688 13.003"><defs><style>.a{fill:#83b4ff;}</style></defs><g transform="translate(-53.776 182.034) rotate(-90)"><path class="a" d="M184.991,66.058V54.71a.944.944,0,0,1,.955-.934h.16a.944.944,0,0,1,.955.934V66.058a.945.945,0,0,1-.955.934h-.16a.945.945,0,0,1-.955-.934" transform="translate(-10.499)"/><path class="a" d="M185.3,77.905l5.509-5.39a.969.969,0,0,1,1.35,0l.113.11a.92.92,0,0,1,0,1.321l-5.508,5.39a.969.969,0,0,1-1.35,0l-.113-.11a.921.921,0,0,1,0-1.321" transform="translate(-10.521 -12.147)"/><path class="a" d="M176.281,77.905l-5.509-5.39a.969.969,0,0,0-1.35,0l-.113.11a.921.921,0,0,0,0,1.321l5.509,5.39a.969.969,0,0,0,1.35,0l.113-.11a.92.92,0,0,0,0-1.321" transform="translate(0 -12.147)"/></g></svg>