<svg xmlns="http://www.w3.org/2000/svg" width="38.804" height="38.804" viewBox="0 0 38.804 38.804"><defs><style>.a{fill:#00204a;}</style></defs><g transform="translate(-1102.486 -1533.306)"><g transform="translate(-1907.072 295.6) rotate(-45)"><g transform="matrix(0, -1, 1, 0, 1162.478, 3251.491)"><path class="a" d="M217.233,110.922V69.9a3.327,3.327,0,0,1,3.276-3.376h.547a3.327,3.327,0,0,1,3.276,3.376v41.023a3.328,3.328,0,0,1-3.276,3.377h-.547a3.328,3.328,0,0,1-3.276-3.377"/></g></g><g transform="translate(2378.996 -1476.252) rotate(45)"><g transform="matrix(0, -1, 1, 0, 1162.478, 3251.491)"><path class="a" d="M217.233,110.922V69.9a3.327,3.327,0,0,1,3.276-3.376h.547a3.327,3.327,0,0,1,3.276,3.376v41.023a3.328,3.328,0,0,1-3.276,3.377h-.547a3.328,3.328,0,0,1-3.276-3.377"/></g></g></g></svg>