<svg xmlns="http://www.w3.org/2000/svg" width="21.066" height="18" viewBox="0 0 21.066 18"><defs><style>.a{fill:#83b4ff;}.b{fill:#002b5e;}</style></defs><g transform="translate(-196.334 -15)"><g transform="translate(209.4 21)"><g transform="translate(0 0)"><path class="a" d="M4.551,8.985l-.958,1.953a1.9,1.9,0,0,1-2.516.88A1.847,1.847,0,0,1,.183,9.342l.958-1.954.507-1.049L4.406,1.06A1.9,1.9,0,0,1,6.922.18a1.846,1.846,0,0,1,.894,2.478L5.058,7.935Z" transform="translate(0 0.001)"/></g></g><path class="b" d="M472.3,259.263H458.559a2.289,2.289,0,0,0-2.29,2.289v9.158a2.29,2.29,0,0,0,2.29,2.29H472.3a2.29,2.29,0,0,0,2.29-2.29v-9.158A2.29,2.29,0,0,0,472.3,259.263Zm-3.768,6.109,4.846-4.153a1.1,1.1,0,0,1,.067.333v9.158a1.078,1.078,0,0,1-.046.225Zm3.768-4.964a1.064,1.064,0,0,1,.214.043l-7.083,6.071-7.083-6.071a1.063,1.063,0,0,1,.215-.043Zm-14.837,10.526a1.089,1.089,0,0,1-.045-.224v-9.158a1.1,1.1,0,0,1,.068-.333l4.845,4.152Zm1.1.921a1.111,1.111,0,0,1-.327-.066l4.964-5.672,1.859,1.593a.568.568,0,0,0,.744,0l1.859-1.593,4.964,5.672a1.1,1.1,0,0,1-.326.066Z" transform="translate(-259.935 -244.263)"/></g></svg>