<svg xmlns="http://www.w3.org/2000/svg" width="20.561" height="19.6" viewBox="0 0 20.561 19.6"><defs><style>.a{fill:#83b4ff;}.b{fill:#fff;}</style></defs><g transform="translate(2779.161 -1486.4)"><g transform="translate(-2766.6 1494)"><g transform="translate(0 0)"><path class="a" d="M4.551,8.985l-.958,1.953a1.9,1.9,0,0,1-2.516.88A1.847,1.847,0,0,1,.183,9.342l.958-1.954.507-1.049L4.406,1.06A1.9,1.9,0,0,1,6.922.18a1.846,1.846,0,0,1,.894,2.478L5.058,7.935Z" transform="translate(0 0.001)"/></g></g><g transform="translate(-2779.161 1486.4)"><g transform="translate(0)"><path class="b" d="M2.566,17.6H8.279V11.344H6.227V9.281H8.279V6.7a2.575,2.575,0,0,1,2.566-2.578h2.566V6.188H11.358a1.03,1.03,0,0,0-1.026,1.031V9.281h2.986l-.342,2.063H10.332V17.6h4.619a2.575,2.575,0,0,0,2.566-2.578V2.578A2.575,2.575,0,0,0,14.951,0H2.566A2.575,2.575,0,0,0,0,2.578V15.022A2.575,2.575,0,0,0,2.566,17.6ZM1.026,2.578a1.545,1.545,0,0,1,1.54-1.547H14.951a1.545,1.545,0,0,1,1.54,1.547V15.022a1.545,1.545,0,0,1-1.54,1.547H11.358V12.375h2.487L14.53,8.25H11.358V7.219h3.079V3.094H10.845A3.6,3.6,0,0,0,7.253,6.7V8.25H5.2v4.125H7.253v4.194H2.566a1.545,1.545,0,0,1-1.54-1.547Z"/></g><path class="b" d="M10.332,17.6V11.344h2.644l.342-2.062H10.332V7.219a1.03,1.03,0,0,1,1.026-1.031h2.053V4.125H10.845A2.575,2.575,0,0,0,8.279,6.7V9.281H6.227v2.062H8.279V17.6H2.566A2.575,2.575,0,0,1,0,15.022V2.578A2.575,2.575,0,0,1,2.566,0H14.951a2.575,2.575,0,0,1,2.566,2.578V15.022A2.575,2.575,0,0,1,14.951,17.6Zm1.026-1.031h3.593a1.545,1.545,0,0,0,1.539-1.547V2.578a1.545,1.545,0,0,0-1.539-1.547H2.566a1.545,1.545,0,0,0-1.54,1.547V15.022a1.545,1.545,0,0,0,1.54,1.547H7.253V12.375H5.2V8.25H7.253V6.7a3.605,3.605,0,0,1,3.592-3.609h3.592V7.219H11.358V8.25H14.53l-.684,4.125H11.358Z" transform="translate(0 0)"/></g></g></svg>