<svg xmlns="http://www.w3.org/2000/svg" width="167.469" height="60.708" viewBox="0 0 167.469 60.708"><defs><style>.a{fill:#fff;}.b{fill:#83b4ff;}.c{fill:#83fa93;}.d{fill:#fff085;}.e{fill:#f9c185;}.f{fill:#f786be;}</style></defs><g transform="translate(0.783 28.409)"><g transform="translate(0 0.469)"><path class="a" d="M67.835,109.739h4.05v14.668h7.5v3.746H67.835Z" transform="translate(-67.835 -109.739)"/></g><g transform="translate(12.929 0.469)"><path class="a" d="M88.13,109.739h3.349l8,18.414H94.906l-1.583-3.9H86.183l-1.531,3.9H80.187Zm1.558,5.357-2.233,5.722h4.491Z" transform="translate(-80.187 -109.739)"/></g><g transform="translate(43.821 0.469)"><path class="a" d="M109.7,109.739h6.854a17.376,17.376,0,0,1,2.4.169,6.556,6.556,0,0,1,2.167.676A4.156,4.156,0,0,1,122.681,112a4.349,4.349,0,0,1,.6,2.419,3.865,3.865,0,0,1-.87,2.587,4.777,4.777,0,0,1-2.3,1.47v.053a5.244,5.244,0,0,1,1.649.507,4.414,4.414,0,0,1,1.273.962,4.1,4.1,0,0,1,.817,1.366,4.8,4.8,0,0,1,.286,1.664,4.43,4.43,0,0,1-.623,2.432,4.9,4.9,0,0,1-1.609,1.574,7.065,7.065,0,0,1-2.22.858,11.88,11.88,0,0,1-2.453.26H109.7Zm4.05,7.36h2.933a4.138,4.138,0,0,0,.922-.1,2.546,2.546,0,0,0,.818-.338,1.763,1.763,0,0,0,.584-.624,1.875,1.875,0,0,0,.221-.936,1.7,1.7,0,0,0-.247-.949,1.723,1.723,0,0,0-.636-.585,3.077,3.077,0,0,0-.883-.3,5.328,5.328,0,0,0-.96-.091h-2.752Zm0,7.621h3.634a4.482,4.482,0,0,0,.947-.1,2.5,2.5,0,0,0,.87-.365,2.069,2.069,0,0,0,.635-.676,1.955,1.955,0,0,0,.247-1.014,1.63,1.63,0,0,0-.324-1.053,2.068,2.068,0,0,0-.818-.611,4.184,4.184,0,0,0-1.064-.287,7.887,7.887,0,0,0-1.064-.078h-3.064Z" transform="translate(-109.701 -109.739)"/></g><g transform="translate(59.786 0.469)"><path class="a" d="M132.9,109.739h3.349l8,18.414h-4.569l-1.583-3.9h-7.14l-1.531,3.9h-4.465Zm1.557,5.357-2.232,5.722h4.491Z" transform="translate(-124.954 -109.739)"/></g><g transform="translate(80.581)"><path class="a" d="M155.284,114.26a2.889,2.889,0,0,0-1.337-.924,4.793,4.793,0,0,0-1.6-.3,4.192,4.192,0,0,0-.909.1,3.463,3.463,0,0,0-.882.325,1.924,1.924,0,0,0-.675.585,1.483,1.483,0,0,0-.26.884,1.466,1.466,0,0,0,.624,1.274,5.871,5.871,0,0,0,1.571.754q.946.312,2.037.624a8.407,8.407,0,0,1,2.038.884,4.829,4.829,0,0,1,1.571,1.534,4.682,4.682,0,0,1,.623,2.575,5.924,5.924,0,0,1-.571,2.679,5.435,5.435,0,0,1-1.544,1.9,6.554,6.554,0,0,1-2.259,1.118,10.331,10.331,0,0,1-6.036-.182,8.3,8.3,0,0,1-2.855-1.768l2.881-3.173a4.2,4.2,0,0,0,1.571,1.287,4.471,4.471,0,0,0,1.96.455,4.425,4.425,0,0,0,1-.117,3.249,3.249,0,0,0,.909-.351,1.958,1.958,0,0,0,.649-.6,1.493,1.493,0,0,0,.247-.858,1.557,1.557,0,0,0-.637-1.314,5.855,5.855,0,0,0-1.6-.82q-.961-.338-2.076-.676a9.3,9.3,0,0,1-2.077-.91,5,5,0,0,1-1.6-1.509,4.314,4.314,0,0,1-.636-2.471,5.536,5.536,0,0,1,.584-2.6,5.654,5.654,0,0,1,1.557-1.873,6.774,6.774,0,0,1,2.245-1.131,9.191,9.191,0,0,1,2.622-.377,10.283,10.283,0,0,1,3.011.443,6.938,6.938,0,0,1,2.622,1.482Z" transform="translate(-144.822 -109.292)"/></g><g transform="translate(96.909)"><path class="a" d="M173.428,114.546a3.976,3.976,0,0,0-1.467-1.118,4.867,4.867,0,0,0-2.012-.391,5.03,5.03,0,0,0-3.8,1.678,5.741,5.741,0,0,0-1.116,1.885,7.2,7.2,0,0,0,0,4.747,5.9,5.9,0,0,0,1.1,1.872,4.994,4.994,0,0,0,1.648,1.236,4.762,4.762,0,0,0,2.038.442,4.555,4.555,0,0,0,2.207-.521,4.393,4.393,0,0,0,1.583-1.456l3.375,2.523a7.031,7.031,0,0,1-2.96,2.419,9.147,9.147,0,0,1-3.686.78,11.289,11.289,0,0,1-3.972-.676,9.069,9.069,0,0,1-3.141-1.938,8.784,8.784,0,0,1-2.064-3.055,11.215,11.215,0,0,1,0-8.011,8.793,8.793,0,0,1,2.064-3.056,9.1,9.1,0,0,1,3.141-1.938,11.3,11.3,0,0,1,3.972-.676,9.669,9.669,0,0,1,1.623.143,8.745,8.745,0,0,1,1.661.455,7.385,7.385,0,0,1,1.571.832,6.251,6.251,0,0,1,1.35,1.274Z" transform="translate(-160.422 -109.292)"/></g><g transform="translate(116.717 0.469)"><path class="a" d="M194.844,121.053a8.9,8.9,0,0,1-.494,3.017,6.626,6.626,0,0,1-1.467,2.393,6.708,6.708,0,0,1-2.427,1.587,10.168,10.168,0,0,1-6.724,0,6.71,6.71,0,0,1-2.428-1.587,6.633,6.633,0,0,1-1.466-2.393,8.89,8.89,0,0,1-.494-3.017V109.739h4.05V120.9a4.488,4.488,0,0,0,.272,1.586,3.775,3.775,0,0,0,.766,1.262,3.472,3.472,0,0,0,1.181.832,3.707,3.707,0,0,0,1.493.3,3.618,3.618,0,0,0,1.48-.3,3.507,3.507,0,0,0,1.168-.832,3.786,3.786,0,0,0,.766-1.262,4.474,4.474,0,0,0,.273-1.586V109.739h4.05Z" transform="translate(-179.346 -109.739)"/></g><g transform="translate(137.148 0.469)"><path class="a" d="M198.865,109.739h4.049v14.668h7.5v3.746H198.865Z" transform="translate(-198.865 -109.739)"/></g><g transform="translate(152.126 0.469)"><path class="a" d="M213.176,109.739h12.487v3.745h-8.437v3.433h7.97v3.745h-7.97v3.745h8.9v3.746H213.176Z" transform="translate(-213.176 -109.739)"/></g></g><g transform="translate(0 15.549)"><path class="a" d="M171.166,100.353H68.756a1.674,1.674,0,0,1,0-3.348h102.41a1.674,1.674,0,0,1,0,3.348Z" transform="translate(-67.086 -97.006)"/></g><g transform="translate(0 57.361)"><path class="a" d="M232.885,140.3H68.756a1.673,1.673,0,0,1,0-3.347H232.885a1.673,1.673,0,0,1,0,3.347Z" transform="translate(-67.086 -136.952)"/></g><g transform="translate(163.504)"><path class="a" d="M224.967,101.265a1.672,1.672,0,0,1-1.67-1.674V83.824a1.67,1.67,0,1,1,3.341,0V99.592A1.672,1.672,0,0,1,224.967,101.265Z" transform="translate(-223.297 -82.15)"/></g><g transform="translate(156.194 0.042)"><path class="b" d="M217.985,101.263c-.041,0-.082,0-.123-.005a1.672,1.672,0,0,1-1.543-1.791l1.15-15.725a1.67,1.67,0,1,1,3.331.244l-1.151,15.725A1.671,1.671,0,0,1,217.985,101.263Z" transform="translate(-216.313 -82.19)"/></g><g transform="translate(147.113 0.462)"><path class="c" d="M209.31,101.245a1.693,1.693,0,0,1-.4-.049,1.674,1.674,0,0,1-1.221-2.026l3.777-15.307a1.671,1.671,0,1,1,3.243.8L210.93,99.973A1.671,1.671,0,0,1,209.31,101.245Z" transform="translate(-207.638 -82.591)"/></g><g transform="translate(136.624 2.188)"><path class="d" d="M199.285,101.168a1.674,1.674,0,0,1-1.437-2.525l8-13.58a1.672,1.672,0,1,1,2.877,1.7l-8,13.58A1.67,1.67,0,0,1,199.285,101.168Z" transform="translate(-197.617 -84.24)"/></g><g transform="translate(125.282 4.838)"><path class="e" d="M188.45,101.05a1.674,1.674,0,0,1-1.158-2.88l11.343-10.932a1.672,1.672,0,0,1,2.316,2.412l-11.343,10.931A1.667,1.667,0,0,1,188.45,101.05Z" transform="translate(-186.78 -86.772)"/></g><g transform="translate(111.08 8.091)"><path class="f" d="M174.883,100.9a1.674,1.674,0,0,1-.814-3.136l13.748-7.677a1.673,1.673,0,0,1,1.626,2.923L175.7,100.693A1.669,1.669,0,0,1,174.883,100.9Z" transform="translate(-173.212 -89.88)"/></g></svg>