<svg xmlns="http://www.w3.org/2000/svg" width="437.999" height="159" viewBox="0 0 437.999 159"><defs><style>.a{fill:#1f2650;}.b{fill:#83b4ff;}.c{fill:#83fa93;}.d{fill:#fff085;}.e{fill:#f9c185;}.f{fill:#f786be;}</style></defs><g transform="translate(-183.648 -225.204)"><path class="a" d="M185.7,300.837H196.29v38.418h19.623v9.81H185.7Z"/><path class="a" d="M240.286,300.837h8.759l20.912,48.229h-11.95l-4.141-10.219H235.195l-4.005,10.219H219.511Zm4.075,14.032-5.839,14.986h11.746Z"/><path class="a" d="M300.306,300.837h17.925a45.38,45.38,0,0,1,6.281.442,17.13,17.13,0,0,1,5.669,1.772,10.875,10.875,0,0,1,4.073,3.711,11.4,11.4,0,0,1,1.562,6.337,10.133,10.133,0,0,1-2.274,6.777,12.493,12.493,0,0,1-6.01,3.849v.138a13.7,13.7,0,0,1,4.312,1.327,11.546,11.546,0,0,1,3.328,2.521,10.748,10.748,0,0,1,2.137,3.577,12.594,12.594,0,0,1,.748,4.359,11.615,11.615,0,0,1-1.63,6.37,12.819,12.819,0,0,1-4.209,4.121,18.464,18.464,0,0,1-5.806,2.248,31.028,31.028,0,0,1-6.417.681H300.306ZM310.9,320.114h7.671a10.8,10.8,0,0,0,2.411-.272,6.652,6.652,0,0,0,2.138-.885,4.614,4.614,0,0,0,1.528-1.636,4.916,4.916,0,0,0,.578-2.453,4.46,4.46,0,0,0-.645-2.486,4.508,4.508,0,0,0-1.663-1.533,8.038,8.038,0,0,0-2.309-.784,13.915,13.915,0,0,0-2.511-.239h-7.2Zm0,19.96H320.4a11.7,11.7,0,0,0,2.478-.272,6.534,6.534,0,0,0,2.276-.955,5.416,5.416,0,0,0,1.662-1.77,5.127,5.127,0,0,0,.646-2.657,4.274,4.274,0,0,0-.847-2.758,5.409,5.409,0,0,0-2.14-1.6,10.931,10.931,0,0,0-2.784-.751,20.6,20.6,0,0,0-2.782-.2H310.9Z"/><path class="a" d="M362.839,300.837H371.6l20.912,48.229H380.56l-4.141-10.219H357.746l-4.005,10.219H342.063Zm4.073,14.032-5.838,14.986h11.745Z"/><path class="a" d="M423.811,312.622a7.555,7.555,0,0,0-3.5-2.419,12.52,12.52,0,0,0-4.176-.784,10.948,10.948,0,0,0-2.377.274,9.05,9.05,0,0,0-2.307.85,5.035,5.035,0,0,0-1.766,1.533,3.889,3.889,0,0,0-.68,2.316,3.841,3.841,0,0,0,1.632,3.338,15.344,15.344,0,0,0,4.108,1.976q2.475.817,5.328,1.634a21.974,21.974,0,0,1,5.329,2.316,12.638,12.638,0,0,1,4.108,4.018,12.276,12.276,0,0,1,1.629,6.745,15.535,15.535,0,0,1-1.493,7.016,14.232,14.232,0,0,1-4.038,4.973,17.131,17.131,0,0,1-5.907,2.928,26.984,26.984,0,0,1-15.786-.477,21.692,21.692,0,0,1-7.468-4.631l7.536-8.309a10.985,10.985,0,0,0,4.108,3.371,11.68,11.68,0,0,0,5.126,1.192,11.556,11.556,0,0,0,2.613-.307,8.493,8.493,0,0,0,2.377-.92,5.123,5.123,0,0,0,1.7-1.566,3.914,3.914,0,0,0,.647-2.247A4.08,4.08,0,0,0,418.887,332a15.305,15.305,0,0,0-4.176-2.147q-2.512-.884-5.43-1.77a24.3,24.3,0,0,1-5.432-2.385,13.073,13.073,0,0,1-4.176-3.952,11.312,11.312,0,0,1-1.663-6.471,14.516,14.516,0,0,1,1.528-6.812,14.8,14.8,0,0,1,4.073-4.905,17.708,17.708,0,0,1,5.872-2.962,24.008,24.008,0,0,1,6.859-.988,26.858,26.858,0,0,1,7.875,1.159,18.139,18.139,0,0,1,6.859,3.882Z"/><path class="a" d="M473.171,313.371a10.4,10.4,0,0,0-3.837-2.929,12.712,12.712,0,0,0-5.262-1.023,13.147,13.147,0,0,0-9.947,4.4,15.039,15.039,0,0,0-2.92,4.937,18.886,18.886,0,0,0,0,12.434,15.468,15.468,0,0,0,2.886,4.9,13.062,13.062,0,0,0,4.31,3.236,12.439,12.439,0,0,0,5.331,1.157,11.9,11.9,0,0,0,5.771-1.363,11.494,11.494,0,0,0,4.139-3.814l8.828,6.607a18.4,18.4,0,0,1-7.741,6.337,23.894,23.894,0,0,1-9.641,2.042,29.488,29.488,0,0,1-10.389-1.772,23.713,23.713,0,0,1-8.214-5.075,23.008,23.008,0,0,1-5.4-8,29.412,29.412,0,0,1,0-20.983,23.031,23.031,0,0,1,5.4-8,23.788,23.788,0,0,1,8.214-5.075,29.526,29.526,0,0,1,10.389-1.772,25.255,25.255,0,0,1,4.244.375,22.846,22.846,0,0,1,4.345,1.192,19.307,19.307,0,0,1,4.108,2.18,16.358,16.358,0,0,1,3.53,3.336Z"/><path class="a" d="M531.494,330.469a23.352,23.352,0,0,1-1.291,7.9,17.358,17.358,0,0,1-3.837,6.267,17.541,17.541,0,0,1-6.347,4.156,26.557,26.557,0,0,1-17.585,0A17.033,17.033,0,0,1,492.25,338.37a23.313,23.313,0,0,1-1.291-7.9V300.837h10.593v29.224a11.769,11.769,0,0,0,.712,4.153,9.89,9.89,0,0,0,2,3.3,9.082,9.082,0,0,0,3.09,2.18,9.684,9.684,0,0,0,3.9.784,9.45,9.45,0,0,0,3.87-.784,9.172,9.172,0,0,0,3.055-2.18,9.917,9.917,0,0,0,2-3.3,11.732,11.732,0,0,0,.713-4.153V300.837h10.593Z"/><path class="a" d="M544.394,300.837h10.591v38.418h19.623v9.81H544.394Z"/><path class="a" d="M583.568,300.837h32.658v9.809H594.161v8.992h20.844v9.809H594.161v9.809H617.45v9.81H583.568Z"/><path class="a" d="M455.859,274.7H188.016a4.384,4.384,0,0,1,0-8.768H455.859a4.384,4.384,0,0,1,0,8.768Z"/><path class="a" d="M617.279,384.2H188.016a4.383,4.383,0,0,1,0-8.766H617.279a4.383,4.383,0,0,1,0,8.766Z"/><path class="a" d="M615.644,275.269a4.375,4.375,0,0,1-4.368-4.384v-41.3a4.369,4.369,0,1,1,8.737,0v41.3A4.377,4.377,0,0,1,615.644,275.269Z"/><path class="b" d="M596.529,275.269c-.108,0-.214,0-.323-.013a4.377,4.377,0,0,1-4.037-4.691l3.007-41.186a4.368,4.368,0,1,1,8.712.639L600.88,271.2A4.373,4.373,0,0,1,596.529,275.269Z"/><path class="c" d="M572.782,275.269a4.379,4.379,0,0,1-4.245-5.437l9.879-40.09a4.37,4.37,0,1,1,8.482,2.1l-9.879,40.092A4.373,4.373,0,0,1,572.782,275.269Z"/><path class="d" d="M545.34,275.269a4.382,4.382,0,0,1-3.759-6.612L562.5,233.09a4.373,4.373,0,1,1,7.526,4.457l-20.92,35.567A4.367,4.367,0,0,1,545.34,275.269Z"/><path class="e" d="M515.678,275.269a4.384,4.384,0,0,1-3.029-7.542L542.316,239.1a4.377,4.377,0,0,1,6.058,6.318l-29.668,28.629A4.357,4.357,0,0,1,515.678,275.269Z"/><path class="f" d="M478.539,275.269a4.386,4.386,0,0,1-2.13-8.213l35.955-20.106a4.379,4.379,0,0,1,4.254,7.657l-35.954,20.107A4.359,4.359,0,0,1,478.539,275.269Z"/></g></svg>