<svg xmlns="http://www.w3.org/2000/svg" width="21.519" height="20" viewBox="0 0 21.519 20"><defs><style>.a{fill:#83b4ff;}.b{fill:#002b5e;}</style></defs><g transform="translate(2764.119 -1486)"><g transform="translate(-2750.6 1494)"><g transform="translate(0 0)"><path class="a" d="M4.551,8.985l-.958,1.953a1.9,1.9,0,0,1-2.516.88A1.847,1.847,0,0,1,.183,9.342l.958-1.954.507-1.049L4.406,1.06A1.9,1.9,0,0,1,6.922.18a1.846,1.846,0,0,1,.894,2.478L5.058,7.935Z" transform="translate(0 0.001)"/></g></g><path class="b" d="M2.507,17.2A2.516,2.516,0,0,1,0,14.681V2.519A2.516,2.516,0,0,1,2.507,0h12.1a2.517,2.517,0,0,1,2.508,2.519V14.681A2.517,2.517,0,0,1,14.611,17.2ZM1,2.519V14.681a1.51,1.51,0,0,0,1.5,1.511h12.1a1.51,1.51,0,0,0,1.5-1.511V2.519a1.51,1.51,0,0,0-1.5-1.511H2.507A1.51,1.51,0,0,0,1,2.519ZM4.046,8.6a4.514,4.514,0,1,1,4.513,4.535A4.53,4.53,0,0,1,4.046,8.6Zm1,0a3.51,3.51,0,1,0,3.51-3.528A3.522,3.522,0,0,0,5.049,8.6ZM12.07,3.561a1.5,1.5,0,1,1,1.5,1.511A1.51,1.51,0,0,1,12.07,3.561Zm1,0a.5.5,0,1,0,.5-.5A.5.5,0,0,0,13.073,3.561Z" transform="translate(-2764.119 1486)"/></g></svg>