<svg xmlns="http://www.w3.org/2000/svg" width="21.518" height="20" viewBox="0 0 21.518 20"><defs><style>.a{fill:#83b4ff;}.b{fill:#fff;}</style></defs><g transform="translate(2764.119 -1486)"><g transform="translate(-2750.6 1494)"><g transform="translate(0 0)"><path class="a" d="M4.551,8.985l-.958,1.953a1.9,1.9,0,0,1-2.516.88A1.847,1.847,0,0,1,.183,9.342l.958-1.954.507-1.049L4.406,1.06A1.9,1.9,0,0,1,6.922.18a1.846,1.846,0,0,1,.894,2.478L5.058,7.935Z" transform="translate(0 0.001)"/></g></g><g transform="translate(-2764.119 1486)"><g transform="translate(0 0)"><path class="b" d="M2.508,17.2h12.1a2.516,2.516,0,0,0,2.508-2.52V2.52A2.516,2.516,0,0,0,14.611,0H2.508A2.516,2.516,0,0,0,0,2.52V14.68A2.516,2.516,0,0,0,2.508,17.2ZM1,2.52a1.51,1.51,0,0,1,1.5-1.512h12.1a1.51,1.51,0,0,1,1.5,1.512V14.68a1.51,1.51,0,0,1-1.5,1.512H2.508A1.51,1.51,0,0,1,1,14.68Z"/><path class="b" d="M14.676,19.232A4.535,4.535,0,1,0,10.162,14.7,4.53,4.53,0,0,0,14.676,19.232Zm0-8.062A3.527,3.527,0,1,1,11.165,14.7,3.523,3.523,0,0,1,14.676,11.17Z" transform="translate(-6.117 -6.097)"/><path class="b" d="M31.823,8.146a1.512,1.512,0,1,0-1.5-1.512A1.51,1.51,0,0,0,31.823,8.146Zm0-2.016a.5.5,0,1,1-.5.5A.5.5,0,0,1,31.823,6.131Z" transform="translate(-18.248 -3.074)"/></g><path class="b" d="M2.508,17.2A2.517,2.517,0,0,1,0,14.681V2.52A2.517,2.517,0,0,1,2.508,0h12.1a2.517,2.517,0,0,1,2.508,2.52V14.681a2.517,2.517,0,0,1-2.508,2.52ZM1,2.52V14.681a1.51,1.51,0,0,0,1.5,1.512h12.1a1.51,1.51,0,0,0,1.5-1.512V2.52a1.51,1.51,0,0,0-1.5-1.512H2.508A1.51,1.51,0,0,0,1,2.52ZM4.046,8.6a4.514,4.514,0,1,1,4.514,4.536A4.53,4.53,0,0,1,4.046,8.6Zm1,0A3.511,3.511,0,1,0,8.559,5.073,3.523,3.523,0,0,0,5.049,8.6ZM12.07,3.561a1.5,1.5,0,1,1,1.5,1.512A1.51,1.51,0,0,1,12.07,3.561Zm1,0a.5.5,0,1,0,.5-.5A.5.5,0,0,0,13.073,3.561Z"/></g></g></svg>