<svg xmlns="http://www.w3.org/2000/svg" xmlns:xlink="http://www.w3.org/1999/xlink" width="13.669" height="13.669" viewBox="0 0 13.669 13.669"><defs><style>.a{fill:none;}.b{clip-path:url(#a);}.c{clip-path:url(#b);}.d{fill:#ffcc4d;}.e{fill:#664500;}.f{fill:#fff;}</style><clipPath id="a"><rect class="a" width="13.669" height="13.669" rx="3.75"/></clipPath><clipPath id="b"><rect class="a" width="13.669" height="13.669"/></clipPath></defs><g class="b"><g class="c"><g class="c"><g class="c"><g class="c"><circle class="d" cx="6.834" cy="6.834" r="6.834"/><path class="e" d="M876.96,456.317c0,.944-.425,2.088-.949,2.088s-.95-1.144-.95-2.088.426-2.088.95-2.088S876.96,455.374,876.96,456.317Z" transform="translate(-871.645 -451.571)"/><path class="e" d="M884.815,456.317c0,.944-.425,2.088-.949,2.088s-.949-1.144-.949-2.088.425-2.088.949-2.088S884.815,455.374,884.815,456.317Z" transform="translate(-874.564 -451.571)"/><path class="e" d="M878.031,463.059a16.085,16.085,0,0,1-3.417-.38c-.258-.05-.759,0-.759.759,0,1.519,1.745,3.417,4.177,3.417s4.177-1.9,4.177-3.417c0-.759-.5-.809-.76-.759A16.074,16.074,0,0,1,878.031,463.059Z" transform="translate(-871.196 -454.706)"/><path class="f" d="M875.062,463.9a15.572,15.572,0,0,0,6.834,0s-.759,1.519-3.417,1.519S875.062,463.9,875.062,463.9Z" transform="translate(-871.645 -455.163)"/></g></g></g></g></g></svg>