<svg xmlns="http://www.w3.org/2000/svg" xmlns:xlink="http://www.w3.org/1999/xlink" width="13.669" height="13.669" viewBox="0 0 13.669 13.669"><defs><style>.a{fill:none;}.b{clip-path:url(#a);}.c{clip-path:url(#b);}.d{fill:#3e721d;}.e{fill:#77b255;}</style><clipPath id="a"><rect class="a" width="13.669" height="13.669" rx="3.75"/></clipPath><clipPath id="b"><rect class="a" width="13.669" height="13.669"/></clipPath></defs><g class="b"><g class="c"><g class="c"><g class="c"><g class="c"><path class="d" d="M889.354,442.327a.378.378,0,0,1-.33-.192l-1.608-2.648a.368.368,0,0,1,.119-.514l1.882-1.139a.656.656,0,0,1,.252-.063.376.376,0,0,1,.325.2l1.18,1.944.062.848c.1.182-.363.449-.546.554l-1.149.962A.378.378,0,0,1,889.354,442.327Z" transform="translate(-877.963 -431.316)"/><path class="e" d="M886.078,444.637a.379.379,0,0,1-.38-.38V441.98a.379.379,0,0,1,.38-.38h3.8a.557.557,0,0,0,.588-.676s.124.213.143.247a1,1,0,0,1,.013.951l-1.173,2.324a.373.373,0,0,1-.331.191Z" transform="translate(-877.346 -432.488)"/><path class="e" d="M884.128,445.5a.38.38,0,0,1-.268-.111l-2.278-2.278a.379.379,0,0,1,0-.537l2.278-2.278a.379.379,0,0,1,.648.268v4.556a.38.38,0,0,1-.38.38Z" transform="translate(-875.775 -432.214)"/><path class="d" d="M882.342,428.89a.381.381,0,0,1-.021.382l-1.63,2.635a.368.368,0,0,1-.512.128l-1.87-1.159a.668.668,0,0,1-.17-.2.377.377,0,0,1,.028-.379l1.2-1.934.727-.44c.115-.176.566.119.742.234l1.379.587A.38.38,0,0,1,882.342,428.89Z" transform="translate(-874.523 -427.638)"/><path class="e" d="M885.25,430.716a.379.379,0,0,1-.166.511l-2.03,1.034a.38.38,0,0,1-.51-.166l-1.724-3.383a.558.558,0,0,0-.87-.217s.134-.207.156-.239a.994.994,0,0,1,.842-.443l2.6-.011a.375.375,0,0,1,.32.208Z" transform="translate(-875.21 -427.612)"/><path class="e" d="M887.448,432.032a.375.375,0,0,1,.023.289l-1,3.064a.378.378,0,0,1-.478.244l-3.064-1a.38.38,0,0,1-.055-.7l4.06-2.068a.38.38,0,0,1,.419.049A.372.372,0,0,1,887.448,432.032Z" transform="translate(-876.221 -429.107)"/><path class="d" d="M874.414,442.219a.378.378,0,0,1,.335-.182l3.1,0a.37.37,0,0,1,.378.369l-.006,2.2a.674.674,0,0,1-.077.248.377.377,0,0,1-.338.175l-2.275,0-.757-.387c-.209-.007-.194-.545-.189-.754l-.225-1.483A.368.368,0,0,1,874.414,442.219Z" transform="translate(-873.132 -432.902)"/><path class="e" d="M874.13,437.664a.379.379,0,0,1,.522-.127l1.946,1.184a.379.379,0,0,1,.126.522l-1.973,3.244a.557.557,0,0,0,.272.854s-.247-.005-.286-.008a1,1,0,0,1-.819-.482l-1.376-2.21a.375.375,0,0,1,.009-.382Z" transform="translate(-872.439 -431.209)"/><path class="e" d="M873.829,435.755a.382.382,0,0,1,.234-.172l3.13-.762a.379.379,0,0,1,.459.279l.762,3.13a.377.377,0,0,1-.045.287.373.373,0,0,1-.1.109.38.38,0,0,1-.422.018l-3.893-2.367a.382.382,0,0,1-.178-.383A.371.371,0,0,1,873.829,435.755Z" transform="translate(-872.915 -430.216)"/></g></g></g></g></g></svg>