<svg xmlns="http://www.w3.org/2000/svg" width="49.481" height="44.623" viewBox="0 0 49.481 44.623"><defs><style>.a{fill:#00204a;}</style></defs><g transform="translate(-138.519 -3016)"><g transform="matrix(0, 1, -1, 0, 254.522, 2817.509)"><path class="a" d="M217.233,110.922V69.9a3.327,3.327,0,0,1,3.276-3.376h.547a3.327,3.327,0,0,1,3.276,3.376v41.023a3.328,3.328,0,0,1-3.276,3.377h-.547a3.328,3.328,0,0,1-3.276-3.377"/><path class="a" d="M218.232,109.839l18.9-19.485a3.207,3.207,0,0,1,4.633,0l.387.4a3.451,3.451,0,0,1,0,4.776l-18.9,19.485a3.207,3.207,0,0,1-4.633,0l-.388-.4a3.453,3.453,0,0,1,0-4.776"/><path class="a" d="M223.374,109.839l-18.9-19.485a3.206,3.206,0,0,0-4.632,0l-.388.4a3.453,3.453,0,0,0,0,4.776l18.9,19.485a3.207,3.207,0,0,0,4.633,0l.387-.4a3.451,3.451,0,0,0,0-4.776"/></g></g></svg>