<svg xmlns="http://www.w3.org/2000/svg" width="22.557" height="19.511" viewBox="0 0 22.557 19.511"><defs><style>.a{fill:#83b4ff;}.b{fill:#fff;stroke:rgba(0,0,0,0);stroke-miterlimit:10;}</style></defs><g transform="translate(2832.241 -1486.489)"><g transform="translate(-2818.6 1494)"><g transform="translate(0 0)"><path class="a" d="M4.551,8.985l-.958,1.953a1.9,1.9,0,0,1-2.516.88A1.847,1.847,0,0,1,.183,9.342l.958-1.954.507-1.049L4.406,1.06A1.9,1.9,0,0,1,6.922.18a1.846,1.846,0,0,1,.894,2.478L5.058,7.935Z" transform="translate(0 0.001)"/></g></g><g transform="translate(-2831 1487.2)"><g transform="translate(0 0)"><path class="b" d="M20.3,6.954c-1.277.059-1.249.055-1.394.067l.756-2.184s-2.361.878-2.96,1.035a4.7,4.7,0,0,0-5.579-.454A3.921,3.921,0,0,0,9.27,9.436a10.279,10.279,0,0,1-6.676-3.8l-.56-.68-.419.777A4.741,4.741,0,0,0,1.12,8.894a4.575,4.575,0,0,0,.435,1.234l-.48-.188-.057.812a4.366,4.366,0,0,0,.726,2.574,4.569,4.569,0,0,0,.566.705l-.248-.039.3.93a4.507,4.507,0,0,0,2.3,2.693c-1.072.46-1.938.753-3.362,1.227L0,19.275l1.2.665a12.542,12.542,0,0,0,3.681,1.354c3.56.564,7.567.1,10.266-2.352,2.273-2.069,3.018-5.013,2.863-8.076a1.929,1.929,0,0,1,.354-1.246C18.87,8.941,20.3,6.959,20.3,6.954ZM17.415,8.9a3.141,3.141,0,0,0-.59,2.028c.156,3.09-.675,5.486-2.472,7.121-2.1,1.911-5.483,2.661-9.286,2.058a9.134,9.134,0,0,1-1.99-.6,31.355,31.355,0,0,0,3.6-1.5l2.078-.994-2.294-.148a3.237,3.237,0,0,1-2.576-1.484,4.074,4.074,0,0,0,.873-.147l2.188-.616-2.206-.546a3.288,3.288,0,0,1-2.007-1.411,3.42,3.42,0,0,1-.435-.97,5.452,5.452,0,0,0,.9.144l2.042.2L3.622,10.767a3.463,3.463,0,0,1-1.29-3.628,11.763,11.763,0,0,0,8.34,3.629,7.191,7.191,0,0,0-.122-1.02,2.773,2.773,0,0,1,1.2-3.306,3.523,3.523,0,0,1,4.192.351,1.056,1.056,0,0,0,.977.264,8.153,8.153,0,0,0,.8-.247L17.21,8.292h.655Z" transform="translate(0 -4.711)"/></g><path class="b" d="M4.884,16.584A12.542,12.542,0,0,1,1.2,15.229L0,14.565l1.3-.433c1.424-.473,2.289-.767,3.362-1.227a4.508,4.508,0,0,1-2.3-2.693l-.3-.93.248.039a4.576,4.576,0,0,1-.566-.706A4.367,4.367,0,0,1,1.018,6.04l.057-.812.481.188A4.569,4.569,0,0,1,1.12,4.183a4.739,4.739,0,0,1,.495-3.161L2.034.245l.56.68a10.281,10.281,0,0,0,6.676,3.8A3.922,3.922,0,0,1,11.128.708a4.7,4.7,0,0,1,5.579.454C17.3,1,19.666.127,19.666.127L18.91,2.31c.144-.012.116-.007,1.393-.067,0,0-1.433,1.987-1.937,2.667a1.93,1.93,0,0,0-.354,1.246c.155,3.063-.591,6.006-2.863,8.075A11.1,11.1,0,0,1,7.573,16.8,17.238,17.238,0,0,1,4.884,16.584ZM2.737,7.954A3.287,3.287,0,0,0,4.745,9.365l2.206.546-2.188.616a4.1,4.1,0,0,1-.874.147,3.238,3.238,0,0,0,2.576,1.483l2.294.148L6.682,13.3a31.25,31.25,0,0,1-3.6,1.5,9.133,9.133,0,0,0,1.99.6c3.8.6,7.188-.147,9.286-2.057,1.8-1.635,2.628-4.032,2.472-7.122a3.139,3.139,0,0,1,.59-2.027l.45-.609H17.21L17.723,2.1a8.159,8.159,0,0,1-.805.248,1.057,1.057,0,0,1-.977-.264,3.522,3.522,0,0,0-4.192-.351,2.773,2.773,0,0,0-1.2,3.305,7.217,7.217,0,0,1,.122,1.02,11.763,11.763,0,0,1-8.34-3.63A3.463,3.463,0,0,0,3.622,6.056L5.239,7.332,3.2,7.128a5.5,5.5,0,0,1-.9-.144A3.414,3.414,0,0,0,2.737,7.954Z" transform="translate(0 0)"/></g></g></svg>