<svg xmlns="http://www.w3.org/2000/svg" xmlns:xlink="http://www.w3.org/1999/xlink" width="56" height="44" viewBox="0 0 56 44"><defs><style>.a{fill:#fff;}.a,.d,.e{stroke:#d0e2fc;}.b{fill:#d0e2fc;}.c{clip-path:url(#a);}.d{fill:none;}.d,.e{stroke-width:0.442px;}.e{fill:#002b5e;}</style><clipPath id="a"><rect class="a" width="53" height="29" transform="translate(501 3415)"/></clipPath></defs><g transform="translate(-494 -3415)"><circle class="b" cx="22" cy="22" r="22" transform="translate(506 3415)"/><g class="c" transform="translate(-7 2)"><g transform="translate(503.786 3416.634)"><g transform="translate(0 0)"><path class="d" d="M32.809,15.045c1.862,1.274,3.724,2.548,5.563,3.855a.459.459,0,0,1-.265.829c-.007,0-.009.009-.017.013A43.155,43.155,0,0,1,3.222,21.569q1.931,6.807,3.861,13.614c5.649-.747,11.014-4.058,16.1-6.437,5.6-2.623,11.189-5.3,16.821-7.861a.457.457,0,0,1,.6.182.472.472,0,0,1,.306.366l1.849,9.049a180.207,180.207,0,0,1,7.923-16.9A88.532,88.532,0,0,1,32.809,15.045Z" transform="translate(-1.948 -12.399)"/><path class="e" d="M51.784,12.655a88.566,88.566,0,0,1-20.342,1.6.5.5,0,0,0-.321.91c2.092,1.427,4.18,2.861,6.289,4.262A43.143,43.143,0,0,1,2.891,20.5a.509.509,0,0,0-.665.566L6.484,36.078a.522.522,0,0,0,.586.41c5.653-.606,10.9-3.814,15.959-6.184,5.741-2.687,11.507-5.324,17.221-8.067q1.056,5.161,2.11,10.321a.509.509,0,0,0,.975.079,177.839,177.839,0,0,1,8.954-19.2A.512.512,0,0,0,51.784,12.655ZM43.018,30.729,41.169,21.68a.473.473,0,0,0-.306-.366.457.457,0,0,0-.6-.182C34.631,23.7,29.048,26.37,23.443,28.993c-5.083,2.379-10.448,5.689-16.1,6.437Q5.415,28.622,3.485,21.815a43.155,43.155,0,0,0,34.869-1.827c.007,0,.01-.009.017-.013a.459.459,0,0,0,.265-.829c-1.839-1.307-3.7-2.58-5.563-3.855a88.693,88.693,0,0,0,17.869-1.458A180.2,180.2,0,0,0,43.018,30.729Z" transform="translate(-2.211 -12.645)"/></g></g></g></g></svg>