<svg xmlns="http://www.w3.org/2000/svg" xmlns:xlink="http://www.w3.org/1999/xlink" width="49" height="52" viewBox="0 0 49 52"><defs><style>.a{fill:#fff;stroke:#707070;}.b{fill:#d0e2fc;}.c{clip-path:url(#a);}.d{fill:#212f5c;}</style><clipPath id="a"><rect class="a" width="45" height="52" transform="translate(197.5 3022)"/></clipPath></defs><g transform="translate(-194 -3026)"><g transform="translate(0 2631)"><g transform="translate(-21 -2735)"><circle class="b" cx="22" cy="22" r="22" transform="translate(220 3136)"/></g></g><g class="c" transform="translate(-3.5 4)"><g transform="translate(208.582 3021.55)"><path class="d" d="M38.518,5.227a.376.376,0,0,0-.294-.549C31.178,3.735,23.971,2.817,17,4.273c-.005-.144,0-.287-.012-.431a.19.19,0,0,0-.021-.078,1.651,1.651,0,0,0-1.552-1.456c-2.151-.124-1.854,3.316-1.955,4.754q-.294,4.185-.589,8.371-.075,1.064-.15,2.128a3.911,3.911,0,0,0,.008,1.779,1.539,1.539,0,0,0,.782.644Q12.079,33.72,10.644,47.457c-.114,1.086-.308,2.2-.338,3.292-.016.586.1,1.361.689,1.623,1.589.71,1.649-2.682,1.772-3.517q.958-6.519,1.708-13.076.841-7.357,1.414-14.753a23.711,23.711,0,0,0,5.538,1.2,58.882,58.882,0,0,0,7.544.166q4.476-.11,8.952-.231a.361.361,0,0,0,.243-.61l-8.07-8.2A16.413,16.413,0,0,0,38.518,5.227ZM16.51,5.122c.054-.012.108-.022.162-.034,0,.228-.011.456-.024.684,0,.048,0,.1-.007.145-.042.656-.115,1.312-.2,1.966-.03.228-.064.455-.1.682l-.02.141a0,0,0,0,1,0,0c-.007-.023-.015-.045-.022-.067-.143-.463-.3-.92-.469-1.372-.042-.113-.082-.226-.126-.339-.179-.464-.37-.923-.575-1.377-.013-.03-.028-.059-.042-.089l.021.009a1.191,1.191,0,0,0,.182.041c.031.006.061.016.094.019a1.263,1.263,0,0,0,.205,0c.028,0,.055,0,.083,0a1.3,1.3,0,0,0,.264-.067c.011,0,.022,0,.032-.009a1.537,1.537,0,0,0,.3-.157,1.808,1.808,0,0,0,.219-.172h0ZM14.759,3.779a.745.745,0,0,1,.277-.446.7.7,0,0,1,1.07.365c.327.71-.392,1.047-.91.829a.734.734,0,0,1-.4-.409.323.323,0,0,0-.035-.06c-.007-.01-.012-.023-.018-.032A.861.861,0,0,1,14.759,3.779Zm-.7,4.581q.074-1.062.149-2.124c.032-.46.031-.97.074-1.464a1.672,1.672,0,0,0,.222.3c.022.025.045.047.069.07a1.506,1.506,0,0,0,.263.207l.007.005h0c.027.057.055.113.08.17q.105.231.206.463.116.268.227.538c.054.132.108.264.16.4q.135.347.26.7c.032.089.065.176.1.265q.174.5.329,1.013s0,0,0,.006a.09.09,0,0,0,.037.046.062.062,0,0,0,.016.006.1.1,0,0,0,.026,0,.02.02,0,0,1,0,.006c-.057.38-.115.759-.172,1.136-.018.118-.034.236-.052.354q-.084.574-.156,1.145c0,.035-.009.069-.013.1-.106-.385-.23-.762-.348-1.143-.1-.311-.182-.625-.286-.934-.181-.534-.382-1.061-.586-1.586-.062-.162-.115-.327-.18-.487,0,0-.005,0-.007-.007a.074.074,0,0,0-.037-.037.048.048,0,0,0-.018,0,.074.074,0,0,0-.036.006.073.073,0,0,0-.016.011.106.106,0,0,0-.023.027.087.087,0,0,0-.012.025.1.1,0,0,0,0,.051s0,.008,0,.013q.6,1.492,1.071,3.028c.122.4.239.8.348,1.2a.086.086,0,0,0,.043.056h.007a.09.09,0,0,0,.051.006c0,.037-.01.074-.014.111,0,0,0,.008,0,.012-.1.892-.181,1.788-.254,2.683-.022.27-.042.54-.062.81q-.049.665-.09,1.329-.032.525-.057,1.051c-.026.524-.047,1.05-.065,1.575-.006.182-.013.364-.018.546l-.006,0c-.143-.059-.281-.128-.422-.19-.058-.085-.118-.169-.173-.256s-.124-.2-.183-.295c-.1-.171-.194-.346-.284-.523-.049-.1-.1-.189-.146-.286-.1-.211-.19-.428-.275-.647-.026-.066-.056-.129-.081-.2-.1-.274-.189-.555-.268-.841q.073-1.03.145-2.061l.162-2.308q.047-.669.094-1.338v0l1.5,3.886c0,.005.007.006.009.01a.092.092,0,0,0,.037.04.078.078,0,0,0,.022.006.1.1,0,0,0,.036,0,.063.063,0,0,0,.022-.008.078.078,0,0,0,.025-.017A.056.056,0,0,0,15.527,15a.071.071,0,0,0,0-.055l-1.566-4.058s0,0-.006-.006a.088.088,0,0,0-.065-.05h-.01l.124-1.76C14.026,8.835,14.043,8.6,14.059,8.36Zm-.649,9.226c.007-.106.015-.212.022-.318.038.12.072.241.115.359.022.061.043.122.066.183q.156.41.343.8c.025.051.052.1.077.151.109.218.226.431.35.642.04.068.08.136.121.2.023.038.051.074.075.111l-.012-.006c-.091-.043-.186-.08-.276-.124-.056-.027-.125-.056-.2-.086a2.913,2.913,0,0,1-.5-.24.645.645,0,0,1-.151-.128.589.589,0,0,1-.1-.216A4.689,4.689,0,0,1,13.41,17.586ZM11.137,51.611c-.127-.088-.144-.536-.149-.657,0-.084,0-.167,0-.251.014-.319.067-.639.1-.953l.082-.786.244-2.333.99-9.472q.157-1.5.314-3l.175-1.673L14.17,20.294c.294.141.586.288.887.413.055.022.11.042.164.064v0c-.052.675-.115,1.348-.171,2.023-.109,1.319-.213,2.638-.335,3.955-.13,1.413-.276,2.824-.42,4.235-.064.62-.119,1.241-.186,1.86-.179,1.672-.375,3.342-.574,5.011-.044.367-.081.734-.127,1.1q-.374,3.056-.794,6.1-.209,1.517-.43,3.033c-.142.975-.22,2-.446,2.95-.011.045-.026.11-.045.178C11.622,51.49,11.475,51.846,11.137,51.611ZM29.386,12.86a.405.405,0,0,0-.239.254.337.337,0,0,0-.008.176c0,.007.009.013.011.02a.345.345,0,0,0,.084.15h0l.008.009L34.69,19,37.1,21.457h0q-2.991.08-5.983.158c-1.164.029-2.329.059-3.494.079-1,.017-2,.021-3,0a31.9,31.9,0,0,1-5.851-.6c-.079-.017-.159-.029-.238-.046-.415-.091-.827-.2-1.237-.315-.118-.033-.235-.072-.352-.108-.3-.09-.589-.186-.88-.29-.074-.026-.146-.055-.219-.081a.3.3,0,0,0-.054-.041.313.313,0,0,0-.046-.03.294.294,0,0,0-.054-.016.425.425,0,0,0-.053-.011v0c.006-.2.013-.391.02-.586.014-.432.028-.864.048-1.3.016-.337.036-.673.055-1.009s.036-.691.06-1.036c.033-.5.074-1,.115-1.5.016-.186.027-.372.044-.558q.094-1.055.21-2.107c.035-.319.077-.638.12-.958.021-.156.045-.313.067-.469s.044-.308.067-.463L16.61,9.1l.022-.145q.058-.388.111-.776c.014-.1.027-.2.041-.3.03-.227.057-.455.083-.683.012-.107.026-.214.037-.321.026-.251.046-.5.064-.752.009-.125.017-.249.024-.374q.02-.365.026-.729h0l.344-.072c.24-.048.48-.1.721-.139.189-.034.378-.065.567-.095.242-.039.484-.077.727-.111.188-.026.377-.049.566-.072.244-.03.488-.059.733-.084.188-.019.376-.035.565-.051.246-.021.491-.042.737-.059.189-.013.378-.022.567-.033.245-.013.491-.027.737-.036.191-.007.382-.011.574-.016.245-.006.489-.012.734-.014.193,0,.385,0,.578,0,.244,0,.488,0,.731.006.194,0,.388.01.582.015.244.007.487.013.73.023.195.008.389.018.583.028.243.012.486.023.73.038.2.012.391.027.587.04.242.017.484.033.727.052.2.016.394.033.591.051.241.021.481.041.722.064l.594.06c.24.024.48.047.721.073l.577.065c.245.027.491.054.736.083l.551.067.759.093.435.056q1.083.138,2.161.283a16.364,16.364,0,0,1-1.933,2.93,15.854,15.854,0,0,1-1.92,1.953c-.058.05-.114.1-.173.15-.03.025-.061.047-.091.072A15.091,15.091,0,0,1,29.386,12.86Z" transform="translate(-10.304 -2.305)"/><path d="M13.433,11.713c-.02-.046-.039-.1-.057-.147-.134-.368-.262-.858-.579-1.04a.082.082,0,0,0-.086,0,.467.467,0,0,0-.076.065.129.129,0,0,0-.033.07c0,.021-.006.047-.009.081a.066.066,0,0,0,.005.02.091.091,0,0,0,.038.06l.023.014.035.021a.078.078,0,0,0,.068.008.1.1,0,0,0,.059-.1.086.086,0,0,0-.036-.051s0-.005,0-.006a1.147,1.147,0,0,1,.314.5c.148.353.272.786.346.957l.465,1.08.2.462a.072.072,0,0,0,.047.044.056.056,0,0,0,.017,0,.073.073,0,0,0,.039-.007.084.084,0,0,0,.014-.011.1.1,0,0,0,.028-.033.078.078,0,0,0,.005-.016.093.093,0,0,0,0-.064Q13.841,12.662,13.433,11.713Z" transform="translate(-9.259 1.443)"/></g></g></g></svg>