<svg xmlns="http://www.w3.org/2000/svg" width="56.961" height="60.482" viewBox="0 0 56.961 60.482"><defs><style>.a{fill:#d0e2fc;}.b{fill:#002b5e;}</style></defs><g transform="translate(-207.039 -3119.518)"><circle class="a" cx="22" cy="22" r="22" transform="translate(220 3136)"/><path class="b" d="M9.64,56.525c-.1.905-.151,1.76-.251,2.514a.3.3,0,0,1-.05.2.489.489,0,0,0,.352.553c.05,0,.1.05.151.05h.151c.251-.05.453-.2.453-.453h0c.1-.7.151-1.509.251-2.363h.151c.553-.2.453-.453.453-.6-.1-.4-.151-.251-.151-.3l-.251-.251-.05-.05-.05-.05c.5-4.878,1.458-11.063,5.18-13.477a7.532,7.532,0,0,1,3.118-1.257c3.218-.453,6.034,1.911,8.2,5.129a27.4,27.4,0,0,1,1.76,3.118v.05c0,.754,0,1.509.05,2.162a.517.517,0,0,0,.553.5.528.528,0,0,0,.453-.251c.1.3.251.654.352.955a14.078,14.078,0,0,1,.654,2.615.378.378,0,0,0,.251.352.489.489,0,0,0,.453.05,1.028,1.028,0,0,0,.453-.251.739.739,0,0,0,.2-.6.673.673,0,0,1-.05-.251.523.523,0,0,0-.3-.654c-.05,0-.1-.05-.151-.05a24.868,24.868,0,0,0-1.509-4.325c-.1-.2-.151-.352-.251-.553a19.775,19.775,0,0,1,1.006-6.085A7.956,7.956,0,0,1,37.4,37.416c.251.3.5.6.754.855,1.961,2.112,3.772,3.269,4.828,6.034a60.1,60.1,0,0,1,2.565,10.409c0,.1.1.2.151.3a.507.507,0,0,0,.453.151.52.52,0,0,0,.453-.6c-.151-.905-.3-2.011-.6-3.269.05-.05.05-.151.1-.2a23.255,23.255,0,0,1,1.81-6.286c1.056-2.313,2.665-4.274,4.626-4.626.1,0,.151-.05.251-.05A2.51,2.51,0,0,1,55.4,41.187a8.081,8.081,0,0,1,1.157,3.621c.352,2.414.251,5.23.4,7.292.05.4.05.8.1,1.157a3.608,3.608,0,0,0,.251,1.056.261.261,0,0,0,.1.2l.05.05a.384.384,0,0,0,.251.1h.151c.05,0,.05,0,.1-.05a.543.543,0,0,0,.352-.7c-.05-.2-.151-.5-.2-.8-.251-1.911-.1-5.431-.5-8.448a9.09,9.09,0,0,0-1.358-4.073,3.867,3.867,0,0,0-.905-.905,3.235,3.235,0,0,0-1.207-.5,11.3,11.3,0,0,0,1.509-1.106c.1-.05.151-.151.251-.2a5.706,5.706,0,0,0,2.062-5.129.185.185,0,0,0-.05-.151,4.3,4.3,0,0,0-4.777-3.721,5.3,5.3,0,0,0-1.207.3c-.553-.352-.754-2.213-1.157-4.174s-1.358-4.124-4.073-4.727c-.2-.05-.4-.05-.6-.1a4.465,4.465,0,0,0,1.106-.8,3.961,3.961,0,0,0,1.458-3.118c-.352-1.911-2.565-2.615-4.777-2.313A7.3,7.3,0,0,0,39.46,16.3a.535.535,0,0,0,.8.7,6.506,6.506,0,0,1,3.772-2.011,5,5,0,0,1,2.514.251c.654.3,1.006.7,1.056,1.157a2.813,2.813,0,0,1-1.157,2.213,3.872,3.872,0,0,1-2.213,1.106,2.982,2.982,0,0,1-1.911-.3,1.44,1.44,0,0,1-.855-1.106,1.842,1.842,0,0,1,.3-1.257.518.518,0,0,0-.905-.5h0a3.157,3.157,0,0,0-.4,1.961,2.9,2.9,0,0,0,2.514,2.263,10.374,10.374,0,0,0-3.47,2.363A7.391,7.391,0,0,0,37.549,26.3a7.785,7.785,0,0,0-5.431-2.363c-1.157-2.313-1.911-5.783-5.733-6.638a7.89,7.89,0,0,0-2.112-.2,3.7,3.7,0,0,0,1.71-3.47,3.331,3.331,0,0,0-3.772-2.816,5.194,5.194,0,0,0-3.017,1.71.571.571,0,0,0-.151.4c-.05,0-.05-.05-.1-.05a.559.559,0,0,0-.7.251,3.27,3.27,0,0,0-.3,1.911,3.487,3.487,0,0,0,3.218,2.917c-3.068,1.76-4.476,5.532-5.934,7.794a10.341,10.341,0,0,0-1.81.1,6.128,6.128,0,0,0-3.068,1.157,2.931,2.931,0,0,0-1.157,1.81,2.453,2.453,0,0,0-.05.855.484.484,0,0,0,.4.453c.05,0,.1.05.2,0,.1,0,.151-.05.251-.1-.1.2-.2.453-.3.7a8.083,8.083,0,0,0-.5,3.922A6.089,6.089,0,0,0,11,38.321a7.926,7.926,0,0,0,.754.6,6.587,6.587,0,0,0,4.526,1.207A6.191,6.191,0,0,0,19.8,38.17a4.533,4.533,0,0,0,.453-.5,19.036,19.036,0,0,0,1.559-1.961,3.383,3.383,0,0,0,.352-.553,6.566,6.566,0,0,0,1.207-4.325A5.393,5.393,0,0,0,21,27.308a8.128,8.128,0,0,0-1.861-.955,10.126,10.126,0,0,0-1.76-.5c-.3-.05-.654-.1-.955-.151.4-.7.8-1.458,1.257-2.213a19.557,19.557,0,0,1,1.257-2.011c1.207-1.71,2.665-3.168,4.777-3.42a7.338,7.338,0,0,1,2.514.151c3.017.6,3.621,3.369,4.878,5.833a2.853,2.853,0,0,0-.905.6A3.605,3.605,0,0,0,29.3,26.5c0,.1-.05.2-.05.3a5.621,5.621,0,0,0-.905,2.514,7.277,7.277,0,0,0,.05,1.81,7.177,7.177,0,0,0,3.42,5.381,4.005,4.005,0,0,0,2.565.453,6.268,6.268,0,0,0,3.269-1.71L37.8,35.1a5.74,5.74,0,0,0,1.911-4.978A6.6,6.6,0,0,0,38.5,27.258a3.461,3.461,0,0,1,.1-.654,6.836,6.836,0,0,1,1.76-2.866,8.584,8.584,0,0,1,4.023-2.414c.2-.05.453-.1.654-.151a5.253,5.253,0,0,1,1.257,0,.856.856,0,0,1,.352.05c2.162.5,2.816,2.062,3.269,3.922a8.526,8.526,0,0,1,.2,1.106c.1.6.2,1.157.3,1.71a4.245,4.245,0,0,0,.7,1.609c-.453.3-.905.654-1.408,1.056a1.333,1.333,0,0,1-.3.251.51.51,0,0,0-.151.5.277.277,0,0,0,.151.251l.1.1a11.251,11.251,0,0,0-.251,4.325,5.259,5.259,0,0,0,.955,2.565,2.647,2.647,0,0,0,1.006.8,7.744,7.744,0,0,0-1.559,1.056A12.269,12.269,0,0,0,47.1,44.2a28.338,28.338,0,0,0-1.157,3.017c-.05.2-.1.352-.151.5a5.259,5.259,0,0,0-.2.855v-.05h0a38.207,38.207,0,0,0-1.458-4.777,9.754,9.754,0,0,0-2.162-3.47c-1.207-1.307-2.565-2.363-3.822-3.973a.546.546,0,0,0-.453-.2h-.05a9.042,9.042,0,0,0-7.292,6.286,21.134,21.134,0,0,0-.855,3.52v.1c-.05.3-.05.6-.1.905-.05-.05-.05-.1-.1-.151-.05-.1-.151-.251-.2-.352-.151-.251-.352-.5-.5-.8a1.1,1.1,0,0,0-.151-.251c-1.76-2.665-4.124-4.928-6.99-5.532a6.8,6.8,0,0,0-2.263-.1,7.927,7.927,0,0,0-3.57,1.458C13.21,42.847,11.9,45.613,11.1,48.58c-.251,1.006-.453,2.062-.654,3.118q-.3,1.81-.453,3.47c-.5,0-.3,1.106-.352,1.358M22.01,31.18a5.89,5.89,0,0,1-1.358,4.073c-1.458,2.062-3.017,3.721-4.878,3.973A5.5,5.5,0,0,1,12,38.17,4.817,4.817,0,0,1,9.941,34.7a6.327,6.327,0,0,1,1.559-5.18.547.547,0,0,0,0-.754.7.7,0,0,0-.453-.151.435.435,0,0,0-.3.151h0a7.836,7.836,0,0,0-.8,1.006v-.05a2.033,2.033,0,0,1,.8-1.76,4.8,4.8,0,0,1,2.514-.905,10.912,10.912,0,0,1,5.632.754A4.463,4.463,0,0,1,22.01,31.18ZM18.691,14.938a2.713,2.713,0,0,1,.2-1.358.453.453,0,0,0,.05-.251.608.608,0,0,0,.7-.05A4.4,4.4,0,0,1,22.06,11.87a2.222,2.222,0,0,1,2.565,1.911,2.585,2.585,0,0,1-1.257,2.464,4.416,4.416,0,0,1-1.71.7A2.538,2.538,0,0,1,18.691,14.938ZM37.6,33.393A7.106,7.106,0,0,1,36.593,34.6a4.9,4.9,0,0,1-2.665,1.458A3.6,3.6,0,0,1,30.81,34.8c-.1-.1-.2-.251-.3-.352a5.576,5.576,0,0,1-.855-1.509,7.06,7.06,0,0,1-.5-1.76,5.121,5.121,0,0,1,.352-2.917l.151.151a.509.509,0,0,0,.754-.1.6.6,0,0,0,0-.7v-.251a.727.727,0,0,0-.352-.5,1.468,1.468,0,0,1,.1-.453,2.453,2.453,0,0,1,.151-.352,1.552,1.552,0,0,1,1.006-.855,6.69,6.69,0,0,0,.7.955.406.406,0,0,0,.453.151.435.435,0,0,0,.3-.151.55.55,0,0,0,.05-.754,2.187,2.187,0,0,1-.3-.352A6.846,6.846,0,0,1,35.738,26.4,8.426,8.426,0,0,1,37.1,27.71v.251a.49.49,0,0,0,.5.4,1.573,1.573,0,0,1,.251.5,3.839,3.839,0,0,1,.453,1.408A3.972,3.972,0,0,1,37.6,33.393Zm12.873-1.81a.638.638,0,0,0,.05-.3,5.427,5.427,0,0,1,2.665-1.307,3.179,3.179,0,0,1,3.57,2.967,4.618,4.618,0,0,1-1.71,4.174,6.208,6.208,0,0,1-2.866,1.659,1.336,1.336,0,0,1-1.408-.553,4.919,4.919,0,0,1-.754-2.062A10.312,10.312,0,0,1,50.472,31.583Z" transform="translate(197.923 3108.734)"/></g></svg>