<svg xmlns="http://www.w3.org/2000/svg" width="51.161" height="60.882" viewBox="0 0 51.161 60.882"><defs><style>.a,.c{fill:#d0e2fc;}.b,.d{fill:none;}.b,.c,.d{stroke:#002b5e;}.b{stroke-linecap:round;stroke-linejoin:round;stroke-width:0.6px;}.c{stroke-miterlimit:10;}.d{stroke-width:0.7px;}</style></defs><g transform="translate(-917.46 -3352.976)"><g transform="translate(917.76 3362.507)"><circle class="a" cx="22" cy="22" r="22" transform="translate(6.861 7.35)"/><path class="b" d="M313.444,790.841q0,1.638-.053,3.294c-12.124.833-24.471,2-36.658,2-3.139,0-6.269-.073-9.382-.247q.008-.808.009-1.612c0-7.459-.627-15.15-.627-22.679a80.814,80.814,0,0,1,1.016-13.77,1,1,0,0,0-.005-.34,34.406,34.406,0,0,0,3.881.231c7.247-.006,15.351-1.829,21.183-2.177.8-.047,1.6-.075,2.415-.075,5.254,0,10.876.856,16.278,1.026v0C311.531,768.322,313.447,779.352,313.444,790.841Z" transform="translate(-266.733 -755.46)"/></g><g transform="translate(932.161 3377.833)"><path class="c" d="M9.247,0,12.1,5.79l6.39.929-4.624,4.507,1.092,6.364-5.715-3-5.715,3,1.092-6.364L0,6.719,6.39,5.79Z" transform="matrix(0.998, -0.07, 0.07, 0.998, 0, 1.29)"/></g><path class="d" d="M922.274,3354.522c-2.127-.568-.55,3.368-.55,3.368,0,.017,2.1,4.962,2.183,8.16S924.4,3355.091,922.274,3354.522Z" transform="translate(1.72 2.058)"/><path class="d" d="M1.112.056C-1.014-.512.562,3.424.562,3.424c0,.017,2.1,4.962,2.183,8.16S3.239.624,1.112.056Z" transform="translate(953.85 3353.375) rotate(8)"/><path class="d" d="M917.76,3370.128s10.032-1.665,18.8-2.937c9.871-1.431,19.417-2.348,26.318,0" transform="translate(0 6.261)"/></g></svg>