<svg xmlns="http://www.w3.org/2000/svg" width="84.089" height="85" viewBox="0 0 84.089 85"><defs><style>.a{fill:#c0cad7;opacity:0.442;}.b{fill:#002b5e;}</style></defs><g transform="translate(-713.911 -724)"><ellipse class="a" cx="32.5" cy="32" rx="32.5" ry="32" transform="translate(733 745)"/><g transform="translate(713.71 723.79)"><g transform="translate(28.568 33.859)"><path class="b" d="M9.447,39.729c-.064.573-.1,1.114-.159,1.591a.191.191,0,0,1-.032.127.31.31,0,0,0,.223.35c.032,0,.064.032.1.032h.1c.159-.032.286-.127.286-.286h0c.064-.446.1-.955.159-1.5h.1c.35-.127.286-.286.286-.382-.064-.255-.1-.159-.1-.191l-.159-.159-.032-.032-.032-.032c.318-3.087.923-7,3.278-8.528a4.766,4.766,0,0,1,1.973-.8c2.037-.286,3.819,1.209,5.187,3.246a17.341,17.341,0,0,1,1.114,1.973v.032c0,.477,0,.955.032,1.368a.327.327,0,0,0,.35.318.334.334,0,0,0,.286-.159c.064.191.159.414.223.6a8.909,8.909,0,0,1,.414,1.655.239.239,0,0,0,.159.223.309.309,0,0,0,.286.032.65.65,0,0,0,.286-.159.468.468,0,0,0,.127-.382.426.426,0,0,1-.032-.159.331.331,0,0,0-.191-.414c-.032,0-.064-.032-.1-.032a15.737,15.737,0,0,0-.955-2.737c-.064-.127-.1-.223-.159-.35a12.514,12.514,0,0,1,.636-3.85,5.034,5.034,0,0,1,3.914-3.5c.159.191.318.382.477.541,1.241,1.337,2.387,2.068,3.055,3.819a38.029,38.029,0,0,1,1.623,6.587c0,.064.064.127.1.191a.321.321,0,0,0,.286.1.329.329,0,0,0,.286-.382c-.1-.573-.191-1.273-.382-2.068.032-.032.032-.1.064-.127a14.716,14.716,0,0,1,1.146-3.978c.668-1.464,1.687-2.7,2.928-2.928.064,0,.1-.032.159-.032a1.588,1.588,0,0,1,1.655.668,5.113,5.113,0,0,1,.732,2.291c.223,1.527.159,3.309.255,4.614.032.255.032.509.064.732a2.283,2.283,0,0,0,.159.668.165.165,0,0,0,.064.127l.032.032a.243.243,0,0,0,.159.064h.1c.032,0,.032,0,.064-.032a.344.344,0,0,0,.223-.446c-.032-.127-.1-.318-.127-.509-.159-1.209-.064-3.437-.318-5.346a5.753,5.753,0,0,0-.859-2.578,2.447,2.447,0,0,0-.573-.573,2.047,2.047,0,0,0-.764-.318,7.152,7.152,0,0,0,.955-.7c.064-.032.1-.1.159-.127a3.611,3.611,0,0,0,1.3-3.246.117.117,0,0,0-.032-.1,2.723,2.723,0,0,0-3.023-2.355,3.357,3.357,0,0,0-.764.191c-.35-.223-.477-1.4-.732-2.641A3.417,3.417,0,0,0,32.9,16.786c-.127-.032-.255-.032-.382-.064a2.826,2.826,0,0,0,.7-.509,2.506,2.506,0,0,0,.923-1.973c-.223-1.209-1.623-1.655-3.023-1.464a4.617,4.617,0,0,0-2.8,1.5.338.338,0,0,0,.509.446,4.117,4.117,0,0,1,2.387-1.273A3.163,3.163,0,0,1,32.8,13.6c.414.191.636.446.668.732a1.78,1.78,0,0,1-.732,1.4,2.45,2.45,0,0,1-1.4.7,1.887,1.887,0,0,1-1.209-.191.911.911,0,0,1-.541-.7,1.166,1.166,0,0,1,.191-.8.328.328,0,1,0-.573-.318h0a2,2,0,0,0-.255,1.241A1.832,1.832,0,0,0,30.545,17.1a6.565,6.565,0,0,0-2.2,1.5,4.677,4.677,0,0,0-1.241,2,4.926,4.926,0,0,0-3.437-1.5c-.732-1.464-1.209-3.66-3.628-4.2a4.993,4.993,0,0,0-1.337-.127,2.343,2.343,0,0,0,1.082-2.2A2.108,2.108,0,0,0,17.4,10.8a3.287,3.287,0,0,0-1.909,1.082.361.361,0,0,0-.1.255c-.032,0-.032-.032-.064-.032a.354.354,0,0,0-.446.159,2.069,2.069,0,0,0-.191,1.209,2.206,2.206,0,0,0,2.037,1.846c-1.941,1.114-2.832,3.5-3.755,4.932a6.544,6.544,0,0,0-1.146.064,3.878,3.878,0,0,0-1.941.732A1.854,1.854,0,0,0,9.161,22.2a1.553,1.553,0,0,0-.032.541.306.306,0,0,0,.255.286c.032,0,.064.032.127,0,.064,0,.1-.032.159-.064-.064.127-.127.286-.191.446a5.115,5.115,0,0,0-.318,2.482,3.853,3.853,0,0,0,1.146,2.323,5.014,5.014,0,0,0,.477.382,4.168,4.168,0,0,0,2.864.764,3.918,3.918,0,0,0,2.228-1.241,2.869,2.869,0,0,0,.286-.318,12.045,12.045,0,0,0,.986-1.241,2.14,2.14,0,0,0,.223-.35,4.155,4.155,0,0,0,.764-2.737,3.413,3.413,0,0,0-1.5-2.228,5.144,5.144,0,0,0-1.177-.6,6.408,6.408,0,0,0-1.114-.318c-.191-.032-.414-.064-.6-.1.255-.446.509-.923.8-1.4a12.376,12.376,0,0,1,.8-1.273,4.453,4.453,0,0,1,3.023-2.164,4.644,4.644,0,0,1,1.591.1c1.909.382,2.291,2.132,3.087,3.691a1.806,1.806,0,0,0-.573.382,2.282,2.282,0,0,0-.573,1.177c0,.064-.032.127-.032.191a3.557,3.557,0,0,0-.573,1.591,4.605,4.605,0,0,0,.032,1.146,4.542,4.542,0,0,0,2.164,3.4,2.535,2.535,0,0,0,1.623.286,3.966,3.966,0,0,0,2.068-1.082l.1-.1a3.632,3.632,0,0,0,1.209-3.15,4.179,4.179,0,0,0-.764-1.814,2.19,2.19,0,0,1,.064-.414,4.326,4.326,0,0,1,1.114-1.814,5.432,5.432,0,0,1,2.546-1.527c.127-.032.286-.064.414-.1a3.324,3.324,0,0,1,.8,0,.542.542,0,0,1,.223.032c1.368.318,1.782,1.3,2.068,2.482a5.4,5.4,0,0,1,.127.7c.064.382.127.732.191,1.082a2.686,2.686,0,0,0,.446,1.018c-.286.191-.573.414-.891.668a.844.844,0,0,1-.191.159.323.323,0,0,0-.1.318.175.175,0,0,0,.1.159l.064.064a7.12,7.12,0,0,0-.159,2.737,3.328,3.328,0,0,0,.6,1.623,1.675,1.675,0,0,0,.636.509,4.9,4.9,0,0,0-.986.668,7.764,7.764,0,0,0-1.623,2.355,17.931,17.931,0,0,0-.732,1.909c-.032.127-.064.223-.1.318a3.328,3.328,0,0,0-.127.541v-.032h0a24.179,24.179,0,0,0-.923-3.023,6.173,6.173,0,0,0-1.368-2.2c-.764-.827-1.623-1.5-2.418-2.514a.346.346,0,0,0-.286-.127h-.032a5.722,5.722,0,0,0-4.614,3.978,13.374,13.374,0,0,0-.541,2.228v.064c-.032.191-.032.382-.064.573-.032-.032-.032-.064-.064-.1-.032-.064-.1-.159-.127-.223-.1-.159-.223-.318-.318-.509a.7.7,0,0,0-.1-.159,7.542,7.542,0,0,0-4.423-3.5,4.3,4.3,0,0,0-1.432-.064,5.016,5.016,0,0,0-2.259.923A7.951,7.951,0,0,0,10.37,34.7c-.159.636-.286,1.3-.414,1.973q-.191,1.146-.286,2.2c-.318,0-.191.7-.223.859m7.828-16.038a3.727,3.727,0,0,1-.859,2.578c-.923,1.3-1.909,2.355-3.087,2.514a3.479,3.479,0,0,1-2.387-.668,3.048,3.048,0,0,1-1.3-2.2,4,4,0,0,1,.986-3.278.346.346,0,0,0,0-.477.444.444,0,0,0-.286-.1.275.275,0,0,0-.191.1h0a4.959,4.959,0,0,0-.509.636v-.032a1.287,1.287,0,0,1,.509-1.114,3.035,3.035,0,0,1,1.591-.573,6.906,6.906,0,0,1,3.564.477A2.824,2.824,0,0,1,17.275,23.691Zm-2.1-10.278a1.717,1.717,0,0,1,.127-.859.287.287,0,0,0,.032-.159.385.385,0,0,0,.446-.032,2.781,2.781,0,0,1,1.527-.891,1.406,1.406,0,0,1,1.623,1.209,1.636,1.636,0,0,1-.8,1.559,2.794,2.794,0,0,1-1.082.446A1.606,1.606,0,0,1,15.175,13.412ZM27.14,25.091a4.5,4.5,0,0,1-.636.764,3.1,3.1,0,0,1-1.687.923,2.277,2.277,0,0,1-1.973-.8c-.064-.064-.127-.159-.191-.223a3.529,3.529,0,0,1-.541-.955,4.468,4.468,0,0,1-.318-1.114,3.24,3.24,0,0,1,.223-1.846l.1.1a.322.322,0,0,0,.477-.064.382.382,0,0,0,0-.446v-.159a.46.46,0,0,0-.223-.318.929.929,0,0,1,.064-.286,1.552,1.552,0,0,1,.1-.223.982.982,0,0,1,.636-.541,4.233,4.233,0,0,0,.446.6.257.257,0,0,0,.286.1.275.275,0,0,0,.191-.1.348.348,0,0,0,.032-.477,1.384,1.384,0,0,1-.191-.223,4.332,4.332,0,0,1,2.037.859,5.332,5.332,0,0,1,.859.827v.159a.31.31,0,0,0,.318.255,1,1,0,0,1,.159.318,2.43,2.43,0,0,1,.286.891A2.514,2.514,0,0,1,27.14,25.091Zm8.146-1.146a.4.4,0,0,0,.032-.191A3.434,3.434,0,0,1,37,22.927,2.011,2.011,0,0,1,39.264,24.8a2.922,2.922,0,0,1-1.082,2.641,3.929,3.929,0,0,1-1.814,1.05.845.845,0,0,1-.891-.35,3.113,3.113,0,0,1-.477-1.3A6.526,6.526,0,0,1,35.287,23.945Z" transform="translate(-9.116 -10.784)"/></g><g transform="translate(0.202 0.21)"><path class="b" d="M3.983,46.894c-.191,9.483-1.337,20.748.286,30.167l.1.509V77.6H4.4l.509.1c2.578.509,5.792,1.241,8.687,1.782.923.159,1.814.318,2.641.414h0l.1.668L17,80.529c3.087-.1,6.333-.382,9.61-.732,5.537-.6,11.169-1.5,16.579-2.514,2.45-.477,4.869-.955,7.192-1.432,7.637-1.655,16.42-2.832,24.153-5.282.573-.191,1.114-.382,1.655-.573l.764-.255-.318-.732c-.732-1.718-1.368-3.469-1.941-5.251-.764-2.45-1.432-4.964-1.973-7.542-.668-3.055-1.241-6.237-1.75-9.515-1.5-9.26-3.946-18.011-5.442-27.208-.223-1.337-.477-2.959-.8-4.614-.255-1.273-.573-2.609-.955-3.85A15.6,15.6,0,0,0,62.217,7.5,5.108,5.108,0,0,0,59,5.048a7,7,0,0,0-3.214.318c-.1-.414-.191-.827-.286-1.209a5.5,5.5,0,0,0-.955-1.877C53.243.688,52.034-.075,50.793.307,49.52.784,48.979,1.993,48.5,3.234c-.477,1.273-.827,2.7-1.209,3.66l-.1.255.1.255c-.1.1-.064.191,0,.286-1.846.35-3.755.636-5.7.891a11.928,11.928,0,0,0-.382-1.909,6.4,6.4,0,0,0-2.037-3.15l-.159-.127L38.8,3.361a4.968,4.968,0,0,0-2.164.159,6.368,6.368,0,0,0-4.264,5.473,4.7,4.7,0,0,0,.032.668c-.636.064-1.241.127-1.877.191a5.543,5.543,0,0,0-.159-.7.4.4,0,0,1-.032-.191,5.949,5.949,0,0,0-2.514-3.373,5.646,5.646,0,0,0-4.646-.764c-2.482.827-3.914,3.4-4.455,6.014a.117.117,0,0,1-.032.1h-1.4c-.986-1.718-2.864-3.023-5.76-3.6A9.409,9.409,0,0,0,6.783,7.5a6.972,6.972,0,0,0-4.2,3.532,7.588,7.588,0,0,0-.318,5.76c.032.1.064.159.1.255v.064a6.3,6.3,0,0,1-1.114.764l.159.382.382.986a.287.287,0,0,1,.159-.032,2.821,2.821,0,0,0,.541-.255,22.789,22.789,0,0,0,.923,4.01c.7,2.228,1.623,4.423,2.291,6.523a21.058,21.058,0,0,1,.732,2.864,63.766,63.766,0,0,1,.859,15.465,126.381,126.381,0,0,0-.064,15.911c.191,3.246-.414,9.387.636,13.047-.764-.159-1.527-.318-2.259-.477-1.432-9.037-.382-19.984-.159-29.372.032-2.355-1.05-9.165-2.068-15.593-.477-3.15-.955-6.237-1.273-8.5-.159-1.146-.286-2.1-.35-2.737a7,7,0,0,1-.032-.732v-.1l-.636-.127L.8,18.636l-.159-.255a.97.97,0,0,0-.414.6v.1a7.852,7.852,0,0,0,.064,1.655C.9,26.146,4.047,43.425,3.983,46.894ZM48.82,6.671c.318-.955.6-2,.955-2.928.414-1.177,1.018-1.973,1.368-2.037.223-.1.923,0,2.132,1.5a4.4,4.4,0,0,1,.7,1.4,7.444,7.444,0,0,1,.286,1.209c-.8.286-1.591.573-2.45.859a18.1,18.1,0,0,1-1.877.509l-.955.191.286-.573A3.265,3.265,0,0,0,48.82,6.671ZM33.9,8.93a4.273,4.273,0,0,1,.636-1.846,4.872,4.872,0,0,1,2.578-2.1,2.86,2.86,0,0,1,1.273-.127,5.3,5.3,0,0,1,1.4,2.323,12.647,12.647,0,0,1,.35,1.655c-.1,0-.159.032-.255.032-1.941.255-3.946.477-5.919.668A2.061,2.061,0,0,1,33.9,8.93ZM40.2,10.3a15.634,15.634,0,0,1-.255,2.737,8.076,8.076,0,0,0-1.241,0V13h0c-.032,0-.1.032-.127.032l-.573.1-.573.127-.064.414a2.358,2.358,0,0,0-.891,1.5l-.064.255.127.223a3.538,3.538,0,0,0,4.137,2.132h.032A3.473,3.473,0,0,0,42.965,14.4v-.509l-.446-.223a6.228,6.228,0,0,0-1.082-.382,15.47,15.47,0,0,0,.255-3.214c1.909-.255,3.787-.541,5.632-.891.986-.159,1.941-.35,2.9-.573.7-.159,1.368-.35,2.037-.541q1.146-.382,2.2-.764a18.813,18.813,0,0,1,.032,2.991H54.2a1.131,1.131,0,0,0-.318.064,2.273,2.273,0,0,0-1.114.8,3.306,3.306,0,0,0-1.4,3.5l.064.414.382.159a4.327,4.327,0,0,0,2.991.35,2.758,2.758,0,0,0,1.5-3.6,2.86,2.86,0,0,0-.382-.764c0-.159.032-.286.032-.446a23.5,23.5,0,0,0-.064-3.946,5.684,5.684,0,0,1,2.7-.318,3.406,3.406,0,0,1,2.228,1.75,14.068,14.068,0,0,1,1.4,3.182c.223.7.414,1.464.6,2.2.477,2.068.827,4.264,1.114,6.014,1.527,9.292,3.978,18.043,5.442,27.208.636,4.01,1.337,7.86,2.228,11.615.477,1.941.986,3.819,1.559,5.664.509,1.591,1.05,3.119,1.687,4.646l-.859.286c-6.555,2.1-14,3.246-20.907,4.614-1.05.191-2.1.414-3.119.636-10.119,2.164-21.925,4.169-32.3,4.614l.032-.446c-.1,0-.191-.032-.286-.032-2.609-18.425,1.4-39.109-4.487-57.629a48.131,48.131,0,0,0-2.832-7.064l-.1-.191.223.127.1.064c.032-.064.064-.1.1-.159a2.233,2.233,0,0,1,1.05-.541,5.611,5.611,0,0,1,.859-.223,25.4,25.4,0,0,1,4.041-.318c.032.064.064.159.1.223a10.686,10.686,0,0,1,.318,3.882h-.032l-.573.286-.573-.668h0a4.753,4.753,0,0,0-1.527,5.028l.127.509.509.032a6.52,6.52,0,0,0,2.609-.223c.032,0,.032,0,.064-.032a3.814,3.814,0,0,0,2.768-3.628v-.414L19.83,17.3a3.853,3.853,0,0,0-1.559-.732,12.374,12.374,0,0,0-.35-4.105c1.241-.032,2.418-.032,3.278-.127,2.609-.318,5.282-.573,7.987-.859a10.606,10.606,0,0,1-.255,3.023,6.423,6.423,0,0,0-1.559.286,6.924,6.924,0,0,0-.859.35h-.064a.068.068,0,0,1-.064.064,5.213,5.213,0,0,0-1.146.923l.509.446a3.674,3.674,0,0,0,.064,2.259,2.028,2.028,0,0,1,.064.223l.159.414.414.064a5.526,5.526,0,0,0,2.514-.1h0a3.327,3.327,0,0,0,1.909-1.559,3.656,3.656,0,0,0,.1-2.737.111.111,0,0,0-.032-.064l-.127-.509-.318-.032a11.745,11.745,0,0,0,.255-3.182C33.9,11.03,37.078,10.712,40.2,10.3Zm1.177,4.551a1.971,1.971,0,0,1-.732,1.241,13.146,13.146,0,0,0,.446-1.337A1.011,1.011,0,0,0,41.374,14.849Zm-1.718,1.559a2.111,2.111,0,0,1-1.591-1.146v-.032l.891.032a3.656,3.656,0,0,0-.064-.668c.032,0,.032-.032.064-.032a4.249,4.249,0,0,1,.636,0,10.344,10.344,0,0,1-.573,1.591Zm14.256-4.232a1.412,1.412,0,0,1,.414-.35h.032a9.481,9.481,0,0,1-.35,1.687l.8.286a.745.745,0,0,1-.477.382,2.639,2.639,0,0,1-1.559-.159,1.439,1.439,0,0,1,.382-1.177l.223.127a2.243,2.243,0,0,1,.35-.573c.064-.032.127-.1.191-.127ZM18.016,19.113h0c.064-.35.1-.668.127-1.018.159.064.286.127.477.223a2.349,2.349,0,0,1-1.782,1.846,4.876,4.876,0,0,1-1.432.191,3.1,3.1,0,0,1,.8-2.578l.35.636h.032a2.824,2.824,0,0,1-.064.477Zm11.2-1.559a2.008,2.008,0,0,1-.732.414,2.809,2.809,0,0,1-1.3.127,2.224,2.224,0,0,1,.286-1.75c.127-.032.223-.1.35-.127a3.7,3.7,0,0,0,.573-.127,4.274,4.274,0,0,1-.382.764Zm-8.846-7.033c.573-2.037,1.782-3.819,3.278-4.232a4.083,4.083,0,0,1,3.4.636A4.088,4.088,0,0,1,28.8,9.28c.032.064.064.1.064.159.064.191.1.382.159.573-2.673.255-5.346.541-7.955.827a6.2,6.2,0,0,1-.8.064A1.678,1.678,0,0,1,20.371,10.521ZM7.229,8.962a7.981,7.981,0,0,1,4.01-.127,7.178,7.178,0,0,1,4.3,2.2,19.3,19.3,0,0,0-4.551.573,4.167,4.167,0,0,0-1.559.859.953.953,0,0,0-.127-.255l-.8.446-.159-.286A21.325,21.325,0,0,0,3.665,16.09C2.71,12.685,4.269,9.917,7.229,8.962ZM9.393,76.583c-.986-3.055-.446-9.451-.636-12.92a123.32,123.32,0,0,1,.064-15.72A66.958,66.958,0,0,0,7.929,32.1a21.6,21.6,0,0,0-.8-3.055c-.7-2.2-1.591-4.391-2.291-6.523a19.484,19.484,0,0,1-.955-4.646c1.082-.859,2-1.814,2.959-2.673A14.624,14.624,0,0,1,8.5,13.99a3.471,3.471,0,0,0,.191.35,51.442,51.442,0,0,1,2.8,6.905c5.728,17.884,1.846,38.313,4.455,57.056-1.877-.255-4.105-.7-6.3-1.177A4.379,4.379,0,0,1,9.393,76.583Z" transform="translate(-0.202 -0.21)"/></g><g transform="translate(5.447 16.377)"><path class="b" d="M9.042,51.75C8.755,46.436,8.66,40.9,8.6,35.584c-.127-8.974-1.018-17.407-3.564-25.426C4.491,8.536,3.918,6.881,3.25,5.29l-1.4.573A50.331,50.331,0,0,1,3.6,10.636c2.482,7.828,3.341,16.07,3.5,24.98.1,5.314.159,10.883.446,16.229.255,4.487-.191,11.774.891,15.4L9.9,66.8C8.914,63.715,9.264,56.332,9.042,51.75Z" transform="translate(-1.85 -5.29)"/></g></g></g></svg>