<svg xmlns="http://www.w3.org/2000/svg" width="84.205" height="72.205" viewBox="0 0 84.205 72.205"><defs><style>.a{fill:#83b4ff;opacity:0.442;}.b,.c{fill:#002b5e;}.b{stroke:#002b5e;stroke-miterlimit:10;stroke-width:0.409px;}</style></defs><g transform="translate(-713.795 -891.795)"><circle class="a" cx="32.5" cy="32.5" r="32.5" transform="translate(733 899)"/><g transform="translate(713.8 891.79)"><g transform="translate(3.395 23.873)"><path class="b" d="M6.1,19.366h0a5.764,5.764,0,0,0,3.834-1.608,4.707,4.707,0,0,0,1.851-3.393c-.022-2.093-2.071-3.415-4.34-3.415a6.983,6.983,0,0,0-3.878,1.234A4.7,4.7,0,0,0,2.553,13l-.044.044a.584.584,0,0,0-.11.132,3.284,3.284,0,0,0-.749,2.071A4.352,4.352,0,0,0,6.1,19.366ZM3.369,13.858a7.871,7.871,0,0,1,.837-.661.022.022,0,0,0,.022-.022A5.757,5.757,0,0,1,7.423,12.14c1.895.022,3.151,1.058,3.151,2.225a3.568,3.568,0,0,1-1.454,2.49,4.592,4.592,0,0,1-3.04,1.3A3.225,3.225,0,0,1,2.8,15.246,2.178,2.178,0,0,1,3.369,13.858Z" transform="translate(-1.65 -16.95)"/><path class="b" d="M6.1,19.366h0a5.764,5.764,0,0,0,3.834-1.608,4.707,4.707,0,0,0,1.851-3.393c-.022-2.093-2.071-3.415-4.34-3.415a6.983,6.983,0,0,0-3.878,1.234A4.7,4.7,0,0,0,2.553,13l-.044.044a.584.584,0,0,0-.11.132,3.284,3.284,0,0,0-.749,2.071A4.352,4.352,0,0,0,6.1,19.366ZM3.369,13.858a7.871,7.871,0,0,1,.837-.661.022.022,0,0,0,.022-.022A5.757,5.757,0,0,1,7.423,12.14c1.895.022,3.151,1.058,3.151,2.225a3.568,3.568,0,0,1-1.454,2.49,4.592,4.592,0,0,1-3.04,1.3A3.225,3.225,0,0,1,2.8,15.246,2.178,2.178,0,0,1,3.369,13.858Z" transform="translate(11.35 -19.95)"/></g><g transform="translate(0.2 0.21)"><path class="b" d="M76.873,53.551a.587.587,0,0,0,.463-.705,5.156,5.156,0,0,1-.066-.925c0-2.137.727-5.971.749-9.32a10.414,10.414,0,0,0-.859-4.671,4.083,4.083,0,0,0-.881-1.146,4,4,0,0,0-1.212-.749,13.324,13.324,0,0,0,1.829-.947c.088-.066.2-.11.286-.176A6.35,6.35,0,0,0,80.2,29.645v-.176a4.719,4.719,0,0,0-4.649-4.781,5.776,5.776,0,0,0-1.344.176c-.551-.485-.507-2.556-.639-4.715-.154-2.181-.859-4.737-3.746-5.795-.22-.066-.419-.132-.639-.2a5.7,5.7,0,0,0,1.344-.727c1.366-1.036,2.049-2.115,2.049-3.217-.11-2.137-2.424-3.261-4.891-3.261a7.979,7.979,0,0,0-5.178,1.895.576.576,0,0,0-.066.837.6.6,0,0,0,.837.066,6.958,6.958,0,0,1,4.429-1.608A5.32,5.32,0,0,1,70.4,8.8a1.728,1.728,0,0,1,.969,1.41c0,.551-.375,1.344-1.586,2.269a4.373,4.373,0,0,1-2.6.859,3.713,3.713,0,0,1-2.071-.595,1.642,1.642,0,0,1-.771-1.344,2.236,2.236,0,0,1,.529-1.344.6.6,0,1,0-.969-.705h0a3.461,3.461,0,0,0-.749,2.049,3.157,3.157,0,0,0,2.38,2.864,11.409,11.409,0,0,0-4.142,2.049A8.97,8.97,0,0,0,58.74,19.51a8.544,8.544,0,0,0-5.6-3.415c-.925-2.71-1.212-6.588-5.244-8.13a10.459,10.459,0,0,0-2.291-.551,4,4,0,0,0,2.38-3.547A3.657,3.657,0,0,0,44.287.21a5.916,5.916,0,0,0-3.569,1.41.568.568,0,0,0-.22.419.3.3,0,0,0-.088-.066.582.582,0,0,0-.815.2,3.892,3.892,0,0,0-.617,2.071A3.86,3.86,0,0,0,42.04,7.921c-3.591,1.432-5.75,5.376-7.689,7.623a12.768,12.768,0,0,0-2-.176,7.093,7.093,0,0,0-3.5.793A3.407,3.407,0,0,0,27.3,17.946a3.294,3.294,0,0,0-.2.947.551.551,0,0,0,.375.573.643.643,0,0,0,.2.044,1.289,1.289,0,0,0,.286-.044c-.154.22-.286.485-.441.727a8.88,8.88,0,0,0-1.146,4.23,6.785,6.785,0,0,0,1.41,4.274,4.14,4.14,0,0,0,.749.771A7.324,7.324,0,0,0,33.271,31.5a7.117,7.117,0,0,0,4.164-1.586,5.84,5.84,0,0,0,.573-.463,23.725,23.725,0,0,0,2.027-1.917,5.776,5.776,0,0,0,.485-.551,7.005,7.005,0,0,0,1.961-4.517,5.794,5.794,0,0,0-2.071-4.186,9.7,9.7,0,0,0-1.895-1.322,13.871,13.871,0,0,0-1.851-.815c-.33-.11-.683-.22-1.036-.308.551-.683,1.124-1.454,1.7-2.2a25.03,25.03,0,0,1,1.7-2.027c1.586-1.7,3.393-3.04,5.728-3.018a7.641,7.641,0,0,1,2.71.529c3.173,1.1,3.481,4.23,4.451,7.094a2.906,2.906,0,0,0-1.08.529,3.806,3.806,0,0,0-1.256,1.917c-.022.11-.066.2-.088.308A5.813,5.813,0,0,0,48.1,21.582a8.383,8.383,0,0,0-.242,1.961,7.956,7.956,0,0,0,2.93,6.389,4.84,4.84,0,0,0,2.754.9,6.606,6.606,0,0,0,3.834-1.41c.066-.044.132-.11.2-.154a6.344,6.344,0,0,0,2.842-5.134,7.489,7.489,0,0,0-.9-3.3,3.063,3.063,0,0,1,.22-.683,7.373,7.373,0,0,1,2.335-2.842,9.751,9.751,0,0,1,4.759-2.049c.242-.022.485-.044.727-.044a4.8,4.8,0,0,1,1.388.2c.132.044.264.066.4.11,2.291.859,2.776,2.666,2.974,4.781a11.988,11.988,0,0,1,.066,1.256c.022.661.022,1.3.088,1.895a4.721,4.721,0,0,0,.507,1.873,11.121,11.121,0,0,0-1.7.947c-.11.088-.242.154-.375.264a.582.582,0,0,0-.22.551.649.649,0,0,0,.11.286c.022.044.066.066.088.11a12.646,12.646,0,0,0-.947,4.693,5.925,5.925,0,0,0,.661,2.974,2.972,2.972,0,0,0,.991,1.036,7.279,7.279,0,0,0-1.851.925,13.193,13.193,0,0,0-3.371,3.679,25.789,25.789,0,0,0-1.7,3.129,5.985,5.985,0,0,0-.242.551c-.132.308-.242.595-.353.881v-.066h0a51.535,51.535,0,0,0-.837-5.442,11.653,11.653,0,0,0-1.807-4.12c-1.1-1.63-2.446-2.974-3.569-4.913a.625.625,0,0,0-.463-.286c-.022,0-.044-.022-.066-.022A9.942,9.942,0,0,0,48.407,36.3a19.188,19.188,0,0,0-1.454,3.723.24.24,0,0,0-.022.11c-.088.33-.176.661-.242.969l-.066-.2c-.066-.154-.11-.286-.176-.441-.132-.308-.286-.617-.419-.947a2.224,2.224,0,0,0-.154-.33c-1.52-3.151-3.746-6.037-6.764-7.094a7.532,7.532,0,0,0-2.468-.419,9.4,9.4,0,0,0-4.12,1.036c-2.886,1.432-4.759,4.252-6.081,7.4-.441,1.08-.837,2.181-1.168,3.283-.4,1.256-.727,2.512-1.013,3.7a6.161,6.161,0,0,1-.683-.617A12.409,12.409,0,0,1,22.3,44.936a6.567,6.567,0,0,0-.947-1.124,2.647,2.647,0,0,0-.793-.485,4.513,4.513,0,0,0,.793-.419,4.612,4.612,0,0,0,.617-.485,4.3,4.3,0,0,0,1.3-3.085,4.7,4.7,0,0,0-1.63-3.5,5.629,5.629,0,0,0-3.812-1.344c-.286,0-.595.022-.9.044a1.664,1.664,0,0,1,.308-.242,3.164,3.164,0,0,1,1.256-.815.592.592,0,0,0-.132-1.146v-.022a30.733,30.733,0,0,0-4.142-6.9.67.67,0,0,0-.529-.242c-.639.044-1.256.11-1.851.154a19.416,19.416,0,0,0-5.288.947,6.645,6.645,0,0,0-3.3,2.644,8.385,8.385,0,0,0-.969,1.939A30.374,30.374,0,0,0,.2,40.926a13,13,0,0,0,.154,2.093.613.613,0,0,0,.595.507h.088a.6.6,0,0,0,.507-.683c-.044-.286-.088-.595-.11-.925h.044A.586.586,0,0,0,1.5,40.75c-.022-.044-.066-.088-.088-.132A29.812,29.812,0,0,1,3.395,31.3a5.921,5.921,0,0,1,3.591-3.9,12,12,0,0,1,3.04-.661c1.013-.132,2.159-.22,3.437-.33A33.529,33.529,0,0,1,16.482,31.1a14.785,14.785,0,0,1,.749,1.63l.022.022c-.11.066-.22.154-.33.22-.022.022-.066.044-.088.066A7.728,7.728,0,0,0,14.9,34.889c-.242.088-.507.176-.771.264a.576.576,0,0,0-.33.771c.022.088.088.132.132.2a.584.584,0,0,0,.132.11,7.391,7.391,0,0,0-.837,3.261c-.066,2.049,1.366,3.944,4.23,4.142a21.6,21.6,0,0,0-2.38,1.19c-.419.22-.815.485-1.212.727a11.031,11.031,0,0,0-5.53,9.254c0,.176-.022.353-.022.529a.592.592,0,0,0,.595.595h.022a.588.588,0,0,0,.595-.573h0a.826.826,0,0,1,.022-.242,11.1,11.1,0,0,1,.11-1.256,9.618,9.618,0,0,1,4.6-7.094c.441-.308.925-.595,1.432-.881.595-.33,1.146-.617,1.608-.837a6.33,6.33,0,0,1,2.446-.771c.705,0,.969.353,1.63,1.256.2.286.441.595.727.947a9.034,9.034,0,0,0,.771.859,8.108,8.108,0,0,0,1.1.925c-.242.991-.463,1.917-.683,2.71-.022.066-.044.154-.066.242a.6.6,0,0,0,.264.661c.044.022.088.066.132.066a.375.375,0,0,0,.154.022.589.589,0,0,0,.573-.441h0c.2-.771.419-1.63.639-2.578a1.118,1.118,0,0,1,.2.044c.617-.11.551-.441.595-.595-.066-.441-.11-.286-.132-.375a1.517,1.517,0,0,0-.242-.286c-.022-.022-.044-.066-.066-.088,0-.022-.022-.022-.022-.044,1.3-5.244,3.261-11.853,7.711-13.9a8.3,8.3,0,0,1,3.613-.9c3.591-.022,6.323,3.018,8.174,6.852a29,29,0,0,1,1.454,3.679v.044c-.132.837-.22,1.63-.286,2.357a.592.592,0,0,0,.529.639.609.609,0,0,0,.507-.22c.088.375.154.727.22,1.08a21.957,21.957,0,0,1,.33,2.93.634.634,0,0,0,.2.441.6.6,0,0,0,.463.132,1.16,1.16,0,0,0,.529-.176.765.765,0,0,0,.33-.617,1.239,1.239,0,0,0-.044-.286.592.592,0,0,0-.22-.771.293.293,0,0,0-.176-.066,31.982,31.982,0,0,0-.991-4.935c-.066-.22-.132-.419-.2-.639a21.639,21.639,0,0,1,2-6.478,8.784,8.784,0,0,1,7.579-5.134c.242.375.485.727.705,1.058,1.829,2.6,3.635,4.12,4.34,7.315A65.652,65.652,0,0,1,63.3,51.788a.631.631,0,0,0,.595.595.592.592,0,0,0,.595-.595c0-.991-.044-2.247-.132-3.635a.733.733,0,0,0,.132-.22,24.857,24.857,0,0,1,2.93-6.588c1.52-2.38,3.547-4.274,5.75-4.362h.286a2.751,2.751,0,0,1,2.688,1.52,9.209,9.209,0,0,1,.727,4.12c0,2.688-.507,5.728-.683,8.042-.044.463-.066.881-.066,1.278a6.451,6.451,0,0,0,.088,1.168.689.689,0,0,0,.11.22c.022.022.022.044.044.066a.529.529,0,0,0,.264.154.485.485,0,0,0,.176.022C76.785,53.551,76.829,53.551,76.873,53.551ZM41.291,22.441a6.312,6.312,0,0,1-2.115,4.23c-1.917,2-3.856,3.613-5.927,3.591a6.245,6.245,0,0,1-3.988-1.741,5.311,5.311,0,0,1-1.719-4.142,7,7,0,0,1,2.49-5.42.6.6,0,0,0,.11-.837.585.585,0,0,0-.485-.242.666.666,0,0,0-.353.11h0a6.284,6.284,0,0,0-1.036.991v-.066a2.106,2.106,0,0,1,1.146-1.785,5.865,5.865,0,0,1,2.908-.639,12.321,12.321,0,0,1,6.015,1.674C40.145,19.29,41.313,20.744,41.291,22.441ZM40.145,4.22a2.642,2.642,0,0,1,.441-1.432.626.626,0,0,0,.088-.264.569.569,0,0,0,.749.022A4.671,4.671,0,0,1,44.265,1.4a2.445,2.445,0,0,1,2.512,2.468,2.778,2.778,0,0,1-1.741,2.49,4.395,4.395,0,0,1-1.961.507A2.81,2.81,0,0,1,40.145,4.22ZM58.013,27.244a8.233,8.233,0,0,1-1.278,1.146,5.429,5.429,0,0,1-3.151,1.19,3.977,3.977,0,0,1-3.239-1.873c-.088-.132-.176-.308-.264-.441a7.407,7.407,0,0,1-.727-1.763,7.9,7.9,0,0,1-.286-2.027,5.71,5.71,0,0,1,.837-3.151,1.211,1.211,0,0,0,.154.2.573.573,0,0,0,.837.022.6.6,0,0,0,.11-.749,1.725,1.725,0,0,0,.066-.308.853.853,0,0,0-.286-.595,2.253,2.253,0,0,1,.176-.463c.066-.132.132-.264.2-.375a1.852,1.852,0,0,1,1.234-.793,11.285,11.285,0,0,0,.595,1.146.58.58,0,0,0,.485.264.463.463,0,0,0,.33-.11.6.6,0,0,0,.154-.837l-.264-.4a7.541,7.541,0,0,1,3.327,2,8.418,8.418,0,0,1,1.3,1.652c0,.088-.022.154-.022.242v.088a.564.564,0,0,0,.463.529,6.109,6.109,0,0,1,.22.573,5.182,5.182,0,0,1,.286,1.63A4.689,4.689,0,0,1,58.013,27.244ZM14.367,39.516a6.627,6.627,0,0,1,1.256-3.591,8.488,8.488,0,0,1,2.2-.33,4.083,4.083,0,0,1,3.768,1.961,3.633,3.633,0,0,1,.463,1.7,3.267,3.267,0,0,1-.639,1.895,3.892,3.892,0,0,1-3.261,1.366h-.33C15.138,42.314,14.433,41.146,14.367,39.516ZM72.312,27.2a.7.7,0,0,0,.066-.308,5.927,5.927,0,0,1,3.129-1.036,3.531,3.531,0,0,1,3.481,3.768A5.109,5.109,0,0,1,76.5,33.9a6.431,6.431,0,0,1-3.393,1.366,1.53,1.53,0,0,1-1.454-.837,4.849,4.849,0,0,1-.485-2.38A11.073,11.073,0,0,1,72.312,27.2Z" transform="translate(-0.2 -0.21)"/></g><g transform="translate(13.473 21.602)"><path class="b" d="M7.163,22.766c2-1.542,2.644-3.812,3.459-5.839a11.05,11.05,0,0,1,1.785-3.195,6.89,6.89,0,0,1,2.4-1.807,7.615,7.615,0,0,1,3.04-.837c1.168.022,1.586.529,2.071,1.564h0c.441,1.013.705,2.468,1.212,3.834a.6.6,0,0,0,.771.353.611.611,0,0,0,.33-.286.562.562,0,0,0,.022-.463c-.463-1.234-.705-2.688-1.234-3.9A3.269,3.269,0,0,0,17.87,9.921a8.983,8.983,0,0,0-3.525.947c-2.842,1.278-3.988,3.525-4.8,5.64-.176.463-.353.925-.529,1.366a13.522,13.522,0,0,1-1.5,2.864,6.132,6.132,0,0,1-1.058,1.08.6.6,0,0,0-.11.837.575.575,0,0,0,.463.242h.022a.529.529,0,0,0,.33-.132Z" transform="translate(-6.224 -9.919)"/></g><g transform="translate(31.782 24.542)"><path class="c" d="M20.87,11.289c-1.344.507-3.107,1.476-4.12,1.454-.573-.066-.793-.088-1.036-1.013a.6.6,0,1,0-1.168.242h0a2.178,2.178,0,0,0,2.093,1.961h.11c1.564-.022,3.3-1.08,4.539-1.52a.6.6,0,0,0-.419-1.124Z" transform="translate(-14.534 -11.254)"/></g><g transform="translate(53.592 24.551)"><path class="c" d="M30.485,11.505A2.99,2.99,0,0,1,28,12.717a4.261,4.261,0,0,1-2.6-.925.6.6,0,1,0-.749.925A5.41,5.41,0,0,0,28,13.907h.022a4.117,4.117,0,0,0,3.437-1.7.6.6,0,1,0-.969-.705Z" transform="translate(-24.433 -11.258)"/></g></g></g></svg>