<svg xmlns="http://www.w3.org/2000/svg" width="71.601" height="60.001" viewBox="0 0 71.601 60.001"><defs><style>.a{fill:#d0e2fc;}.b{fill:#002b5e;}.c{fill:none;stroke:#002b5e;stroke-width:0.7px;}</style></defs><g transform="translate(-1127.094 -3120)"><circle class="a" cx="22" cy="22" r="22" transform="translate(1152 3136.001)"/><g transform="translate(737.662 149.442)"><path class="b" d="M9.224,18.372a.3.3,0,0,1-.19-.072L9,18.264a.183.183,0,0,1-.076-.143,2.459,2.459,0,0,1-.19-.751c-.038-.25-.038-.536-.076-.822-.114-1.466-.038-3.468-.3-5.184A5.516,5.516,0,0,0,7.476,8.79,1.95,1.95,0,0,0,5.5,8.039c-.075,0-.113.036-.19.036-1.482.25-2.7,1.644-3.5,3.289A15.789,15.789,0,0,0,.444,15.833c-.032.031-.037.087-.061.125-.25.035-.468-.331-.349-1.919,0-.037.006-.074.009-.112l.021.082v.036a3.552,3.552,0,0,1,.152-.608c.038-.107.076-.214.114-.358A19.348,19.348,0,0,1,1.2,10.935,8.729,8.729,0,0,1,3.143,8.289a5.889,5.889,0,0,1,1.178-.751,1.984,1.984,0,0,1-.76-.572,3.612,3.612,0,0,1-.722-1.824,7.536,7.536,0,0,1,.19-3.075L2.953,2a.2.2,0,0,1-.114-.179.349.349,0,0,1,.114-.358,1.01,1.01,0,0,0,.228-.179c.248-.187.481-.358.707-.515.284-.172.6-.35.952-.531l.014.009A4.242,4.242,0,0,1,5.766.031,3.217,3.217,0,0,1,9.376,2.676a.125.125,0,0,1,.038.107A3.939,3.939,0,0,1,7.856,6.431c-.076.035-.114.107-.19.143a8.475,8.475,0,0,1-1.14.786,2.536,2.536,0,0,1,.912.358,2.853,2.853,0,0,1,.684.644,6.206,6.206,0,0,1,1.026,2.9c.3,2.145.191,4.647.38,6.006.038.215.114.429.152.572a.383.383,0,0,1-.266.5c-.038.036-.038.036-.076.036ZM5.8.817a4.218,4.218,0,0,0-2.015.93.428.428,0,0,1-.038.214,6.926,6.926,0,0,0-.342,3.254,3.368,3.368,0,0,0,.571,1.466,1.039,1.039,0,0,0,1.064.393A4.775,4.775,0,0,0,7.21,5.894,3.188,3.188,0,0,0,8.5,2.927,2.364,2.364,0,0,0,6.144.8,2.771,2.771,0,0,0,5.8.817Z" transform="translate(389.432 3001.507)"/><path class="b" d="M9.224,18.372a.3.3,0,0,1-.19-.072L9,18.264a.183.183,0,0,1-.076-.143,2.459,2.459,0,0,1-.19-.751c-.038-.25-.038-.536-.076-.822-.114-1.466-.038-3.468-.3-5.184A5.516,5.516,0,0,0,7.476,8.79,1.95,1.95,0,0,0,5.5,8.039c-.075,0-.113.036-.19.036-1.482.25-2.7,1.644-3.5,3.289A15.789,15.789,0,0,0,.444,15.833c-.032.031-.037.087-.061.125-.25.035-.468-.331-.349-1.919,0-.037.006-.074.009-.112l.021.082v.036a3.552,3.552,0,0,1,.152-.608c.038-.107.076-.214.114-.358A19.348,19.348,0,0,1,1.2,10.935,8.729,8.729,0,0,1,3.143,8.289a5.889,5.889,0,0,1,1.178-.751,1.984,1.984,0,0,1-.76-.572,3.612,3.612,0,0,1-.722-1.824,7.536,7.536,0,0,1,.19-3.075L2.953,2a.2.2,0,0,1-.114-.179.349.349,0,0,1,.114-.358,1.01,1.01,0,0,0,.228-.179c.248-.187.481-.358.707-.515.284-.172.6-.35.952-.531l.014.009A4.242,4.242,0,0,1,5.766.031,3.217,3.217,0,0,1,9.376,2.676a.125.125,0,0,1,.038.107A3.939,3.939,0,0,1,7.856,6.431c-.076.035-.114.107-.19.143a8.475,8.475,0,0,1-1.14.786,2.536,2.536,0,0,1,.912.358,2.853,2.853,0,0,1,.684.644,6.206,6.206,0,0,1,1.026,2.9c.3,2.145.191,4.647.38,6.006.038.215.114.429.152.572a.383.383,0,0,1-.266.5c-.038.036-.038.036-.076.036ZM5.8.817a4.218,4.218,0,0,0-2.015.93.428.428,0,0,1-.038.214,6.926,6.926,0,0,0-.342,3.254,3.368,3.368,0,0,0,.571,1.466,1.039,1.039,0,0,0,1.064.393A4.775,4.775,0,0,0,7.21,5.894,3.188,3.188,0,0,0,8.5,2.927,2.364,2.364,0,0,0,6.144.8,2.771,2.771,0,0,0,5.8.817Z" transform="translate(451.33 3001.507)"/><path class="b" d="M9.224,18.372a.3.3,0,0,1-.19-.072L9,18.264a.183.183,0,0,1-.076-.143,2.459,2.459,0,0,1-.19-.751c-.038-.25-.038-.536-.076-.822-.114-1.466-.038-3.468-.3-5.184A5.516,5.516,0,0,0,7.476,8.79,1.95,1.95,0,0,0,5.5,8.039c-.075,0-.113.036-.19.036-1.482.25-2.7,1.644-3.5,3.289A15.789,15.789,0,0,0,.444,15.833c-.032.031-.037.087-.061.125-.25.035-.468-.331-.349-1.919,0-.037.006-.074.009-.112l.021.082v.036a3.552,3.552,0,0,1,.152-.608c.038-.107.076-.214.114-.358A19.348,19.348,0,0,1,1.2,10.935,8.729,8.729,0,0,1,3.143,8.289a5.889,5.889,0,0,1,1.178-.751,1.984,1.984,0,0,1-.76-.572,3.612,3.612,0,0,1-.722-1.824,7.536,7.536,0,0,1,.19-3.075L2.953,2a.2.2,0,0,1-.114-.179.349.349,0,0,1,.114-.358,1.01,1.01,0,0,0,.228-.179c.248-.187.481-.358.707-.515.284-.172.6-.35.952-.531l.014.009A4.242,4.242,0,0,1,5.766.031,3.217,3.217,0,0,1,9.376,2.676a.125.125,0,0,1,.038.107A3.939,3.939,0,0,1,7.856,6.431c-.076.035-.114.107-.19.143a8.475,8.475,0,0,1-1.14.786,2.536,2.536,0,0,1,.912.358,2.853,2.853,0,0,1,.684.644,6.206,6.206,0,0,1,1.026,2.9c.3,2.145.191,4.647.38,6.006.038.215.114.429.152.572a.383.383,0,0,1-.266.5c-.038.036-.038.036-.076.036ZM5.8.817a4.218,4.218,0,0,0-2.015.93.428.428,0,0,1-.038.214,6.926,6.926,0,0,0-.342,3.254,3.368,3.368,0,0,0,.571,1.466,1.039,1.039,0,0,0,1.064.393A4.775,4.775,0,0,0,7.21,5.894,3.188,3.188,0,0,0,8.5,2.927,2.364,2.364,0,0,0,6.144.8,2.771,2.771,0,0,0,5.8.817Z" transform="translate(422.857 2970.558)"/><path class="b" d="M9.224,18.372a.3.3,0,0,1-.19-.072L9,18.264a.183.183,0,0,1-.076-.143,2.459,2.459,0,0,1-.19-.751c-.038-.25-.038-.536-.076-.822-.114-1.466-.038-3.468-.3-5.184A5.516,5.516,0,0,0,7.476,8.79,1.95,1.95,0,0,0,5.5,8.039c-.075,0-.113.036-.19.036-1.482.25-2.7,1.644-3.5,3.289A15.789,15.789,0,0,0,.444,15.833c-.032.031-.037.087-.061.125-.25.035-.468-.331-.349-1.919,0-.037.006-.074.009-.112l.021.082v.036a3.552,3.552,0,0,1,.152-.608c.038-.107.076-.214.114-.358A19.348,19.348,0,0,1,1.2,10.935,8.729,8.729,0,0,1,3.143,8.289a5.889,5.889,0,0,1,1.178-.751,1.984,1.984,0,0,1-.76-.572,3.612,3.612,0,0,1-.722-1.824,7.536,7.536,0,0,1,.19-3.075L2.953,2a.2.2,0,0,1-.114-.179.349.349,0,0,1,.114-.358,1.01,1.01,0,0,0,.228-.179c.248-.187.481-.358.707-.515.284-.172.6-.35.952-.531l.014.009A4.242,4.242,0,0,1,5.766.031,3.217,3.217,0,0,1,9.376,2.676a.125.125,0,0,1,.038.107A3.939,3.939,0,0,1,7.856,6.431c-.076.035-.114.107-.19.143a8.475,8.475,0,0,1-1.14.786,2.536,2.536,0,0,1,.912.358,2.853,2.853,0,0,1,.684.644,6.206,6.206,0,0,1,1.026,2.9c.3,2.145.191,4.647.38,6.006.038.215.114.429.152.572a.383.383,0,0,1-.266.5c-.038.036-.038.036-.076.036ZM5.8.817a4.218,4.218,0,0,0-2.015.93.428.428,0,0,1-.038.214,6.926,6.926,0,0,0-.342,3.254,3.368,3.368,0,0,0,.571,1.466,1.039,1.039,0,0,0,1.064.393A4.775,4.775,0,0,0,7.21,5.894,3.188,3.188,0,0,0,8.5,2.927,2.364,2.364,0,0,0,6.144.8,2.771,2.771,0,0,0,5.8.817Z" transform="translate(401.812 2981.7)"/><path class="b" d="M9.224,18.372a.3.3,0,0,1-.19-.072L9,18.264a.183.183,0,0,1-.076-.143,2.459,2.459,0,0,1-.19-.751c-.038-.25-.038-.536-.076-.822-.114-1.466-.038-3.468-.3-5.184A5.516,5.516,0,0,0,7.476,8.79,1.95,1.95,0,0,0,5.5,8.039c-.075,0-.113.036-.19.036-1.482.25-2.7,1.644-3.5,3.289A15.789,15.789,0,0,0,.444,15.833c-.032.031-.037.087-.061.125-.25.035-.468-.331-.349-1.919,0-.037.006-.074.009-.112l.021.082v.036a3.552,3.552,0,0,1,.152-.608c.038-.107.076-.214.114-.358A19.348,19.348,0,0,1,1.2,10.935,8.729,8.729,0,0,1,3.143,8.289a5.889,5.889,0,0,1,1.178-.751,1.984,1.984,0,0,1-.76-.572,3.612,3.612,0,0,1-.722-1.824,7.536,7.536,0,0,1,.19-3.075L2.953,2a.2.2,0,0,1-.114-.179.349.349,0,0,1,.114-.358,1.01,1.01,0,0,0,.228-.179c.248-.187.481-.358.707-.515.284-.172.6-.35.952-.531l.014.009A4.242,4.242,0,0,1,5.766.031,3.217,3.217,0,0,1,9.376,2.676a.125.125,0,0,1,.038.107A3.939,3.939,0,0,1,7.856,6.431c-.076.035-.114.107-.19.143a8.475,8.475,0,0,1-1.14.786,2.536,2.536,0,0,1,.912.358,2.853,2.853,0,0,1,.684.644,6.206,6.206,0,0,1,1.026,2.9c.3,2.145.191,4.647.38,6.006.038.215.114.429.152.572a.383.383,0,0,1-.266.5c-.038.036-.038.036-.076.036ZM5.8.817a4.218,4.218,0,0,0-2.015.93.428.428,0,0,1-.038.214,6.926,6.926,0,0,0-.342,3.254,3.368,3.368,0,0,0,.571,1.466,1.039,1.039,0,0,0,1.064.393A4.775,4.775,0,0,0,7.21,5.894,3.188,3.188,0,0,0,8.5,2.927,2.364,2.364,0,0,0,6.144.8,2.771,2.771,0,0,0,5.8.817Z" transform="translate(443.902 2981.7)"/><path class="c" d="M917.76,3366.995s3.144-.473,5.893-.833c3.093-.406,6.084-.666,8.247,0" transform="translate(-508.884 -353.09)"/><path class="c" d="M931.9,3365.754s-3.144.529-5.893.931c-3.093.454-6.084.744-8.247,0" transform="translate(-485.283 -354.478)"/><path class="c" d="M14.14,0S11,.529,8.247.931c-3.093.454-6.085.744-8.247,0" transform="translate(426.433 3007.86) rotate(-90)"/><path class="c" d="M14.14,0S11,.529,8.247.931c-3.093.454-6.085.744-8.247,0" transform="matrix(0.809, -0.588, 0.588, 0.809, 430.802, 3008.747)"/><path class="c" d="M14.14,0S11,.529,8.247.931c-3.093.454-6.085.744-8.247,0" transform="translate(423.745 3009.854) rotate(-130)"/></g></g></svg>