<svg xmlns="http://www.w3.org/2000/svg" width="784.529" height="471.343" viewBox="0 0 784.529 471.343"><defs><style>.a{opacity:0.294;}.b{fill:#83b4ff;}.c{opacity:0.332;}.d{opacity:0.472;}</style></defs><g class="a" transform="translate(-699.807 -1203.885)"><g transform="translate(699.807 1232.103)"><path class="b" d="M0,17.107V1.95A1.972,1.972,0,0,1,1.993,0h.333A1.972,1.972,0,0,1,4.319,1.95V17.107a1.972,1.972,0,0,1-1.993,1.95H1.993A1.972,1.972,0,0,1,0,17.107" transform="translate(658.208 73.797) rotate(-90)"/><path class="b" d="M0,17.107V1.95A1.972,1.972,0,0,1,1.993,0h.333A1.972,1.972,0,0,1,4.319,1.95V17.107a1.972,1.972,0,0,1-1.993,1.95H1.993A1.972,1.972,0,0,1,0,17.107" transform="translate(426.616 284.667) rotate(-90)"/><path class="b" d="M0,17.107V1.95A1.972,1.972,0,0,1,1.993,0h.333A1.972,1.972,0,0,1,4.319,1.95V17.107a1.972,1.972,0,0,1-1.993,1.95H1.993A1.972,1.972,0,0,1,0,17.107" transform="translate(494.875 248.1) rotate(-90)"/><path class="b" d="M0,17.107V1.95A1.972,1.972,0,0,1,1.993,0h.333A1.972,1.972,0,0,1,4.319,1.95V17.107a1.972,1.972,0,0,1-1.993,1.95H1.993A1.972,1.972,0,0,1,0,17.107" transform="translate(602.138 207.876) rotate(-90)"/><path class="b" d="M0,17.107V1.95A1.972,1.972,0,0,1,1.993,0h.333A1.972,1.972,0,0,1,4.319,1.95V17.107a1.972,1.972,0,0,1-1.993,1.95H1.993A1.972,1.972,0,0,1,0,17.107" transform="translate(658.208 356.582) rotate(-90)"/><path class="b" d="M0,17.107V1.95A1.972,1.972,0,0,1,1.993,0h.333A1.972,1.972,0,0,1,4.319,1.95V17.107a1.972,1.972,0,0,1-1.993,1.95H1.993A1.972,1.972,0,0,1,0,17.107" transform="translate(329.104 406.557) rotate(-90)"/><path class="b" d="M0,17.107V1.95A1.972,1.972,0,0,1,1.993,0h.333A1.972,1.972,0,0,1,4.319,1.95V17.107a1.972,1.972,0,0,1-1.993,1.95H1.993A1.972,1.972,0,0,1,0,17.107" transform="translate(280.348 260.289) rotate(-90)"/><path class="b" d="M0,17.107V1.95A1.972,1.972,0,0,1,1.993,0h.333A1.972,1.972,0,0,1,4.319,1.95V17.107a1.972,1.972,0,0,1-1.993,1.95H1.993A1.972,1.972,0,0,1,0,17.107" transform="translate(280.348 16.508) rotate(-90)"/><path class="b" d="M0,17.107V1.95A1.972,1.972,0,0,1,1.993,0h.333A1.972,1.972,0,0,1,4.319,1.95V17.107a1.972,1.972,0,0,1-1.993,1.95H1.993A1.972,1.972,0,0,1,0,17.107" transform="translate(134.079 40.886) rotate(-90)"/><path class="b" d="M0,17.107V1.95A1.972,1.972,0,0,1,1.993,0h.333A1.972,1.972,0,0,1,4.319,1.95V17.107a1.972,1.972,0,0,1-1.993,1.95H1.993A1.972,1.972,0,0,1,0,17.107" transform="translate(36.567 4.319) rotate(-90)"/><path class="b" d="M0,17.107V1.95A1.972,1.972,0,0,1,1.993,0h.333A1.972,1.972,0,0,1,4.319,1.95V17.107a1.972,1.972,0,0,1-1.993,1.95H1.993A1.972,1.972,0,0,1,0,17.107" transform="translate(12.189 65.264) rotate(-90)"/><path class="b" d="M0,17.107V1.95A1.972,1.972,0,0,1,1.993,0h.333A1.972,1.972,0,0,1,4.319,1.95V17.107a1.972,1.972,0,0,1-1.993,1.95H1.993A1.972,1.972,0,0,1,0,17.107" transform="translate(24.378 211.533) rotate(-90)"/><path class="b" d="M0,17.107V1.95A1.972,1.972,0,0,1,1.993,0h.333A1.972,1.972,0,0,1,4.319,1.95V17.107a1.972,1.972,0,0,1-1.993,1.95H1.993A1.972,1.972,0,0,1,0,17.107" transform="translate(0 260.289) rotate(-90)"/><path class="b" d="M0,17.107V1.95A1.972,1.972,0,0,1,1.993,0h.333A1.972,1.972,0,0,1,4.319,1.95V17.107a1.972,1.972,0,0,1-1.993,1.95H1.993A1.972,1.972,0,0,1,0,17.107" transform="translate(765.471 404.119) rotate(-90)"/><path class="b" d="M0,17.107V1.95A1.972,1.972,0,0,1,1.993,0h.333A1.972,1.972,0,0,1,4.319,1.95V17.107a1.972,1.972,0,0,1-1.993,1.95H1.993A1.972,1.972,0,0,1,0,17.107" transform="translate(70.696 443.124) rotate(-90)"/><path class="b" d="M0,17.107V1.95A1.972,1.972,0,0,1,1.993,0h.333A1.972,1.972,0,0,1,4.319,1.95V17.107a1.972,1.972,0,0,1-1.993,1.95H1.993A1.972,1.972,0,0,1,0,17.107" transform="translate(180.398 369.99) rotate(-90)"/><path class="b" d="M0,17.107V1.95A1.972,1.972,0,0,1,1.993,0h.333A1.972,1.972,0,0,1,4.319,1.95V17.107a1.972,1.972,0,0,1-1.993,1.95H1.993A1.972,1.972,0,0,1,0,17.107" transform="translate(387.611 150.588) rotate(-90)"/><path class="b" d="M0,17.107V1.95A1.972,1.972,0,0,1,1.993,0h.333A1.972,1.972,0,0,1,4.319,1.95V17.107a1.972,1.972,0,0,1-1.993,1.95H1.993A1.972,1.972,0,0,1,0,17.107" transform="translate(497.313 162.777) rotate(-90)"/></g><g class="c" transform="translate(1405.374 1614.283) rotate(180)"><path class="b" d="M0,10.439V1.19A1.2,1.2,0,0,1,1.216,0h.2A1.2,1.2,0,0,1,2.636,1.19v9.249a1.2,1.2,0,0,1-1.216,1.19h-.2A1.2,1.2,0,0,1,0,10.439" transform="translate(409.082 45.031) rotate(-90)"/><path class="b" d="M0,10.439V1.19A1.2,1.2,0,0,1,1.216,0h.2A1.2,1.2,0,0,1,2.636,1.19v9.249a1.2,1.2,0,0,1-1.216,1.19h-.2A1.2,1.2,0,0,1,0,10.439" transform="translate(267.763 173.706) rotate(-90)"/><path class="b" d="M0,10.439V1.19A1.2,1.2,0,0,1,1.216,0h.2A1.2,1.2,0,0,1,2.636,1.19v9.249a1.2,1.2,0,0,1-1.216,1.19h-.2A1.2,1.2,0,0,1,0,10.439" transform="translate(309.415 151.393) rotate(-90)"/><path class="b" d="M0,10.439V1.19A1.2,1.2,0,0,1,1.216,0h.2A1.2,1.2,0,0,1,2.636,1.19v9.249a1.2,1.2,0,0,1-1.216,1.19h-.2A1.2,1.2,0,0,1,0,10.439" transform="translate(374.868 126.848) rotate(-90)"/><path class="b" d="M0,10.439V1.19A1.2,1.2,0,0,1,1.216,0h.2A1.2,1.2,0,0,1,2.636,1.19v9.249a1.2,1.2,0,0,1-1.216,1.19h-.2A1.2,1.2,0,0,1,0,10.439" transform="translate(409.082 217.589) rotate(-90)"/><path class="b" d="M0,10.439V1.19A1.2,1.2,0,0,1,1.216,0h.2A1.2,1.2,0,0,1,2.636,1.19v9.249a1.2,1.2,0,0,1-1.216,1.19h-.2A1.2,1.2,0,0,1,0,10.439" transform="translate(208.26 248.085) rotate(-90)"/><path class="b" d="M0,10.439V1.19A1.2,1.2,0,0,1,1.216,0h.2A1.2,1.2,0,0,1,2.636,1.19v9.249a1.2,1.2,0,0,1-1.216,1.19h-.2A1.2,1.2,0,0,1,0,10.439" transform="translate(178.508 158.831) rotate(-90)"/><path class="b" d="M0,10.439V1.19A1.2,1.2,0,0,1,1.216,0h.2A1.2,1.2,0,0,1,2.636,1.19v9.249a1.2,1.2,0,0,1-1.216,1.19h-.2A1.2,1.2,0,0,1,0,10.439" transform="translate(178.508 10.073) rotate(-90)"/><path class="b" d="M0,10.439V1.19A1.2,1.2,0,0,1,1.216,0h.2A1.2,1.2,0,0,1,2.636,1.19v9.249a1.2,1.2,0,0,1-1.216,1.19h-.2A1.2,1.2,0,0,1,0,10.439" transform="translate(89.254 24.949) rotate(-90)"/><path class="b" d="M0,10.439V1.19A1.2,1.2,0,0,1,1.216,0h.2A1.2,1.2,0,0,1,2.636,1.19v9.249a1.2,1.2,0,0,1-1.216,1.19h-.2A1.2,1.2,0,0,1,0,10.439" transform="translate(29.751 2.636) rotate(-90)"/><path class="b" d="M0,10.439V1.19A1.2,1.2,0,0,1,1.216,0h.2A1.2,1.2,0,0,1,2.636,1.19v9.249a1.2,1.2,0,0,1-1.216,1.19h-.2A1.2,1.2,0,0,1,0,10.439" transform="translate(0 39.825) rotate(-90)"/><path class="b" d="M0,10.439V1.19A1.2,1.2,0,0,1,1.216,0h.2A1.2,1.2,0,0,1,2.636,1.19v9.249a1.2,1.2,0,0,1-1.216,1.19h-.2A1.2,1.2,0,0,1,0,10.439" transform="translate(22.314 129.079) rotate(-90)"/><path class="b" d="M0,10.439V1.19A1.2,1.2,0,0,1,1.216,0h.2A1.2,1.2,0,0,1,2.636,1.19v9.249a1.2,1.2,0,0,1-1.216,1.19h-.2A1.2,1.2,0,0,1,0,10.439" transform="translate(7.438 158.831) rotate(-90)"/><path class="b" d="M0,10.439V1.19A1.2,1.2,0,0,1,1.216,0h.2A1.2,1.2,0,0,1,2.636,1.19v9.249a1.2,1.2,0,0,1-1.216,1.19h-.2A1.2,1.2,0,0,1,0,10.439" transform="translate(474.535 246.597) rotate(-90)"/><path class="b" d="M0,10.439V1.19A1.2,1.2,0,0,1,1.216,0h.2A1.2,1.2,0,0,1,2.636,1.19v9.249a1.2,1.2,0,0,1-1.216,1.19h-.2A1.2,1.2,0,0,1,0,10.439" transform="translate(50.577 270.398) rotate(-90)"/><path class="b" d="M0,10.439V1.19A1.2,1.2,0,0,1,1.216,0h.2A1.2,1.2,0,0,1,2.636,1.19v9.249a1.2,1.2,0,0,1-1.216,1.19h-.2A1.2,1.2,0,0,1,0,10.439" transform="translate(117.518 225.771) rotate(-90)"/><path class="b" d="M0,10.439V1.19A1.2,1.2,0,0,1,1.216,0h.2A1.2,1.2,0,0,1,2.636,1.19v9.249a1.2,1.2,0,0,1-1.216,1.19h-.2A1.2,1.2,0,0,1,0,10.439" transform="translate(243.962 91.89) rotate(-90)"/><path class="b" d="M0,10.439V1.19A1.2,1.2,0,0,1,1.216,0h.2A1.2,1.2,0,0,1,2.636,1.19v9.249a1.2,1.2,0,0,1-1.216,1.19h-.2A1.2,1.2,0,0,1,0,10.439" transform="translate(310.902 99.328) rotate(-90)"/></g><g class="d" transform="translate(1395.375 1474.283) rotate(180)"><path class="b" d="M0,10.439V1.19A1.2,1.2,0,0,1,1.216,0h.2A1.2,1.2,0,0,1,2.636,1.19v9.249a1.2,1.2,0,0,1-1.216,1.19h-.2A1.2,1.2,0,0,1,0,10.439" transform="translate(409.082 45.031) rotate(-90)"/><path class="b" d="M0,10.439V1.19A1.2,1.2,0,0,1,1.216,0h.2A1.2,1.2,0,0,1,2.636,1.19v9.249a1.2,1.2,0,0,1-1.216,1.19h-.2A1.2,1.2,0,0,1,0,10.439" transform="translate(267.763 173.706) rotate(-90)"/><path class="b" d="M0,10.439V1.19A1.2,1.2,0,0,1,1.216,0h.2A1.2,1.2,0,0,1,2.636,1.19v9.249a1.2,1.2,0,0,1-1.216,1.19h-.2A1.2,1.2,0,0,1,0,10.439" transform="translate(309.415 151.393) rotate(-90)"/><path class="b" d="M0,10.439V1.19A1.2,1.2,0,0,1,1.216,0h.2A1.2,1.2,0,0,1,2.636,1.19v9.249a1.2,1.2,0,0,1-1.216,1.19h-.2A1.2,1.2,0,0,1,0,10.439" transform="translate(374.868 126.848) rotate(-90)"/><path class="b" d="M0,10.439V1.19A1.2,1.2,0,0,1,1.216,0h.2A1.2,1.2,0,0,1,2.636,1.19v9.249a1.2,1.2,0,0,1-1.216,1.19h-.2A1.2,1.2,0,0,1,0,10.439" transform="translate(409.082 217.589) rotate(-90)"/><path class="b" d="M0,10.439V1.19A1.2,1.2,0,0,1,1.216,0h.2A1.2,1.2,0,0,1,2.636,1.19v9.249a1.2,1.2,0,0,1-1.216,1.19h-.2A1.2,1.2,0,0,1,0,10.439" transform="translate(208.26 248.085) rotate(-90)"/><path class="b" d="M0,10.439V1.19A1.2,1.2,0,0,1,1.216,0h.2A1.2,1.2,0,0,1,2.636,1.19v9.249a1.2,1.2,0,0,1-1.216,1.19h-.2A1.2,1.2,0,0,1,0,10.439" transform="translate(178.508 158.831) rotate(-90)"/><path class="b" d="M0,10.439V1.19A1.2,1.2,0,0,1,1.216,0h.2A1.2,1.2,0,0,1,2.636,1.19v9.249a1.2,1.2,0,0,1-1.216,1.19h-.2A1.2,1.2,0,0,1,0,10.439" transform="translate(178.508 10.073) rotate(-90)"/><path class="b" d="M0,10.439V1.19A1.2,1.2,0,0,1,1.216,0h.2A1.2,1.2,0,0,1,2.636,1.19v9.249a1.2,1.2,0,0,1-1.216,1.19h-.2A1.2,1.2,0,0,1,0,10.439" transform="translate(89.254 24.949) rotate(-90)"/><path class="b" d="M0,10.439V1.19A1.2,1.2,0,0,1,1.216,0h.2A1.2,1.2,0,0,1,2.636,1.19v9.249a1.2,1.2,0,0,1-1.216,1.19h-.2A1.2,1.2,0,0,1,0,10.439" transform="translate(29.751 2.636) rotate(-90)"/><path class="b" d="M0,10.439V1.19A1.2,1.2,0,0,1,1.216,0h.2A1.2,1.2,0,0,1,2.636,1.19v9.249a1.2,1.2,0,0,1-1.216,1.19h-.2A1.2,1.2,0,0,1,0,10.439" transform="translate(0 39.825) rotate(-90)"/><path class="b" d="M0,10.439V1.19A1.2,1.2,0,0,1,1.216,0h.2A1.2,1.2,0,0,1,2.636,1.19v9.249a1.2,1.2,0,0,1-1.216,1.19h-.2A1.2,1.2,0,0,1,0,10.439" transform="translate(22.314 129.079) rotate(-90)"/><path class="b" d="M0,10.439V1.19A1.2,1.2,0,0,1,1.216,0h.2A1.2,1.2,0,0,1,2.636,1.19v9.249a1.2,1.2,0,0,1-1.216,1.19h-.2A1.2,1.2,0,0,1,0,10.439" transform="translate(7.438 158.831) rotate(-90)"/><path class="b" d="M0,10.439V1.19A1.2,1.2,0,0,1,1.216,0h.2A1.2,1.2,0,0,1,2.636,1.19v9.249a1.2,1.2,0,0,1-1.216,1.19h-.2A1.2,1.2,0,0,1,0,10.439" transform="translate(474.535 246.597) rotate(-90)"/><path class="b" d="M0,10.439V1.19A1.2,1.2,0,0,1,1.216,0h.2A1.2,1.2,0,0,1,2.636,1.19v9.249a1.2,1.2,0,0,1-1.216,1.19h-.2A1.2,1.2,0,0,1,0,10.439" transform="translate(50.577 270.398) rotate(-90)"/><path class="b" d="M0,10.439V1.19A1.2,1.2,0,0,1,1.216,0h.2A1.2,1.2,0,0,1,2.636,1.19v9.249a1.2,1.2,0,0,1-1.216,1.19h-.2A1.2,1.2,0,0,1,0,10.439" transform="translate(117.518 225.771) rotate(-90)"/><path class="b" d="M0,10.439V1.19A1.2,1.2,0,0,1,1.216,0h.2A1.2,1.2,0,0,1,2.636,1.19v9.249a1.2,1.2,0,0,1-1.216,1.19h-.2A1.2,1.2,0,0,1,0,10.439" transform="translate(243.962 91.89) rotate(-90)"/><path class="b" d="M0,10.439V1.19A1.2,1.2,0,0,1,1.216,0h.2A1.2,1.2,0,0,1,2.636,1.19v9.249a1.2,1.2,0,0,1-1.216,1.19h-.2A1.2,1.2,0,0,1,0,10.439" transform="translate(310.902 99.328) rotate(-90)"/></g></g></svg>